<?xml version="1.0" encoding="utf-8"?>
<!-- Generator: Adobe Illustrator 25.2.1, SVG Export Plug-In . SVG Version: 6.00 Build 0)  -->
<svg version="1.1" id="Layer_1" opacity="0.3" xmlns="http://www.w3.org/2000/svg" xmlns:xlink="http://www.w3.org/1999/xlink"
	 x="0px" y="0px" viewBox="0 0 2127 2109" style="enable-background:new 0 0 2127 2109;" xml:space="preserve">
<style type="text/css">
	.st0{fill-rule:evenodd;clip-rule:evenodd;fill:#FFFFFF;}
	.st1{fill:#FFFFFF;}
</style>
<g>
	<g>
		<path class="st0" d="M1032.6,748.8c1-0.4,2.8-0.7,5-1.1C1037.1,748.2,1034.4,748.9,1032.6,748.8z"/>
		<path class="st0" d="M1105.7,788.4c1.3,0,5.5,0,5,0.7C1108.3,789,1107.3,788.7,1105.7,788.4z"/>
		<path class="st0" d="M1112.6,790.2c0.4-0.3,3.5,0.3,5,0.5C1117.5,791,1113.5,790.5,1112.6,790.2z"/>
		<path class="st0" d="M1133.8,786.9c1.1,0,3.9,0.4,5.1,0.9C1138.5,788.1,1135.3,787.1,1133.8,786.9z"/>
		<path class="st0" d="M1141.4,795.6c1.8,0,4.6,0.7,8.4,1.8C1148.4,797.5,1144.4,796.3,1141.4,795.6z"/>
		<path class="st0" d="M1176.7,771.1c4.8,1.6,14.5,5,17.5,7.2C1188.8,775.3,1181.9,773.4,1176.7,771.1z"/>
		<path class="st0" d="M1183.5,789.6c5.8,1.4,15,6.9,21.8,10.1c0.7,1-9.9-5.1-12.1-5.5c-1.4-0.8-2.7-1.5-4-2.2
			C1187.3,791.2,1185.3,790.9,1183.5,789.6z"/>
		<path class="st0" d="M1242.9,829.8c0.2-0.4,0.7-0.3,2.1,1.2c0.3,0.5,0.3,0.8,0.1,0.9L1242.9,829.8z"/>
		<path class="st0" d="M1267.7,847.6c3.8,3.1,10.6,11.9,13.7,17.2c0.5,0.6,0.8,0.5,1.6,1.8c2.1,3,6.4,10,2,3.3
			c-2.8-4-5.4-7.6-8.1-11.1C1274.2,855.2,1271.3,851.6,1267.7,847.6z"/>
		<path class="st0" d="M1264.1,855.4c0.9,0.7,2.2,2.1,3.6,3.9C1267.1,859,1264.5,856.2,1264.1,855.4z"/>
		<path class="st0" d="M1284.6,848.6c0.8,0.5,3.2,4.1,4.6,5.9C1288,853.3,1285.4,850.2,1284.6,848.6z"/>
		<path class="st0" d="M1269.7,858.1c1.4,1.3,3.9,4.7,5.6,6.5C1276,866.6,1271.5,860.4,1269.7,858.1z"/>
		<path class="st0" d="M1270.1,862.3c1.2,0.9,3.9,4.5,5.8,7.1C1274.5,868,1272,864.6,1270.1,862.3z"/>
		<path class="st0" d="M1292.3,852.8c0.6-0.1,2.6,2.6,3.9,4.6C1295.6,857.2,1293.8,854.3,1292.3,852.8z"/>
		<path class="st0" d="M1291.4,857.9c1.8,2.1,7.1,9.7,9.2,13.9C1297.1,866.5,1294.9,863.1,1291.4,857.9z"/>
		<path class="st0" d="M1276.7,870.6c2.7,2.9,5.6,7.9,7,10.8C1281.7,878.5,1279.3,873.9,1276.7,870.6z"/>
		<path class="st0" d="M1288.4,875.3c1,1.2,2.3,3.4,3.6,5.3C1291.5,881.3,1289.7,877.6,1288.4,875.3z"/>
		<path class="st0" d="M1290.4,882c1.2,1.4,2,2.9,3.2,5.4C1293.1,886.9,1291.4,883.6,1290.4,882z"/>
		<path class="st0" d="M1292.1,888.8c0.7,0.6,3.4,5.7,2.1,5c-0.8-1.5-0.4-1.4-0.2-1.5C1293.1,890.5,1292.9,890.8,1292.1,888.8z"/>
		<path class="st0" d="M1309.9,898.8C1307.7,895.3,1305.9,888.5,1309.9,898.8L1309.9,898.8z"/>
		<path class="st0" d="M1318.6,905.1c1.4,3.2,2.5,6.4,3.7,10.3C1321.3,913.1,1319.1,906.8,1318.6,905.1z"/>
		<path class="st0" d="M1320.4,907.3c0-1.3,2.3,5.1,1.4,4L1320.4,907.3z"/>
		<path class="st0" d="M1330.8,912.3c0.8,1.1,1.6,3.7,2.1,5.9C1332.3,917.7,1331,913.3,1330.8,912.3z"/>
		<path class="st0" d="M1336.2,936.3C1338.3,943.4,1338.1,946,1336.2,936.3L1336.2,936.3z"/>
		<path class="st0" d="M1225.5,782.1c1.4,0.5,3.1,1.5,4.1,1.8c1.9,2,6.3,4.2,9.1,6.5C1234.6,788.5,1231.2,785,1225.5,782.1z"/>
		<path class="st0" d="M1285.5,854.5c1.2,1.6,0.8,1.6,2.3,3.4c-0.1,0.3-0.7-0.5-0.9-0.4c2.4,3.4,3.6,5.2,5.6,8.1
			c-0.4-0.3-0.7-0.6-0.9-0.5c3.3,3.3,5,8.7,10,16.8c-5-7.7-15.6-25.1-20.9-31.1c1.2,0.6,5,6.5,6,6.8
			C1287.3,857.4,1284.2,853.9,1285.5,854.5z"/>
		<path class="st0" d="M1278.5,869.7c0.5,0.7,0.4,0.3,0.1-0.1c0.4,0,1.9,2.8,2.1,3.2C1279.9,872.3,1274.5,863.8,1278.5,869.7z"/>
		<path class="st0" d="M1305.3,920l-0.6,0.1c1.6,4.6,3.7,12.3,4,15.6c-1.7-5.5-4.2-17.7-6.7-21.3c-0.3-1.3-0.6-2.4-0.9-3.7
			c-5.8-12.2-11.6-25.8-19.8-37.3c5.1,4.3,10,18,14.6,23.7c0.4,1.1-0.1,0.1-0.5-0.6C1298,902.2,1301.9,912.7,1305.3,920z"/>
		<path class="st0" d="M1322.1,908.6c0.7,1.2,1.6,3.4,2.3,4.7C1324.6,914.1,1322.3,910.4,1322.1,908.6z"/>
		<path class="st0" d="M1363.5,1217.1c1.8-3.4,2.7-7.6,4.2-11.3c3.5-8.6,7.2-16.3,9.5-25.4c1.1-4,2.1-7.9,3-11.9
			c0.7-4,1.4-8.1,2.4-12.3c1.3-6.3,1.8-8.3,2.3-12.6c1.5-12.5,3.6-22.6,2.2-28.2c0-4.8-0.1-9.5-0.1-14.1c0-4.8-0.6-9.5-0.9-13.3
			c-0.1-1.2,0-3.8-0.1-4.2c-2.5-19.4-7.6-30.8-12.8-52.4c-1.3-1.7-2.9-2.7-4.8-6.2c-0.9-1.5-2-5.1-2.8-6.2c-2.9-3.9-4.4,0.5-7.6-7.1
			c-0.6-0.3-0.4,1.2-0.6,1.6c-3.8,0.8-6.2,4.7-9.5,3.5c-0.5,5.7-2.7,5-3.5,9.3c-0.5,2.7-0.2,7.7-0.6,11c-0.6,3.8-0.9,7.8-1.6,10.9
			c-1.2,0.1-0.7,4.7-1.5,5.7c0.2,5.6-1,9.9-1.2,15.5c-0.4,0.6-0.5,1.9-1,2c-0.4,5.9-1.9,11.8-2.9,18.1c-0.8,6.4-2.5,13.1-3.5,21
			c-0.2,1.4-0.5,4.4-0.8,6.2c-1,5.8-2.1,13.2-3.8,19.7c-1.9,6.5-3.8,12.3-5.2,15.1c-0.6,2-0.3,2.1-1.1,4c-1.1,1.1-4.3,6.5-5.9,11.7
			c-0.5,1.8-0.6,5.1-2,8.9c-2.1,5.7-5.1,10.6-7.4,15.5c-1,2.3-1.3,5-2.3,7.5c-2.1,6.6-9.8,18.1-12.7,22.9c-2.7,3.6-4.3,4.6-6,7.5
			c-1.6,2.6-2.2,5-1.1,5.4c-1.2,4.6-6.3,10.7-11.5,17.4c-5.5,6.5-11.9,12.9-16.3,18.2c-4,3-7.5,6.5-10.8,9.9
			c-3.4,3.5-7.1,6.4-10.8,9.4c-1.5,1.2-3.5,2.3-5,3.5c-2.4,1.8-6.2,4.7-9.4,7.2c-5.7,4.4-11.4,7.4-16.4,10.6
			c-8.6,3.4-14.2,7.3-21.3,10.6c-2.6,1.3-5.5,1.8-8.6,2.9c-2.6,0.9-4.9,2.3-7.8,3.3c-2.8,1-5.9,1.7-8.7,2.4
			c-2.1,0.6-3.6,1.4-5.4,1.8c-2.3,0.6-3.8,0.6-6.1,1.4c-2.5,0.8-4.8,2.1-7.4,2.6c-4.7,1-9.6,2-14.4,3.1c-4.8,0.8-9.6,1.5-14.1,2.7
			c-16.3,1.1-30.6,3.2-50,1.3c-4.8-0.1-8.4-0.1-13.4-0.8c-1.1,0-1.2,0.5-2.9,0.1c-9.9-1.9-20.7-2-30.7-5.1c-0.4,0.1-0.9,0.2-1.5,0.1
			c-7-1.6-14.6-4.7-22-6.7c-7.3-2.5-14.1-5.1-19.6-6.6c-7.5-4.5-17.3-7.5-26.5-13.1c-4.4-2.5-8.6-5.1-12.5-7.8
			c-3.9-2.5-8.3-5.4-12.7-8.5c-4.1-3.4-8.2-6.7-11.7-9.4c-2.2-1.5-4.4-2.9-6.3-4.7c-3.5-3.1-6.9-6.9-10.8-10.2
			c-14.4-13.2-27.9-31.3-37.2-45.6c-2.8-4.2-5.5-8.3-8.7-13.2c-2.8-4.1-4.7-8.7-6.9-13.3c-2.1-4.6-4.4-9-6.3-13.6
			c-1-2.1-2.2-4.5-3.2-6.5c-2.6-5.3-4.2-10.8-6.2-16.7c-5.3-14.4-9.5-29.2-11.5-43.5c-4.3-17.9-5.8-44.9-4.3-66.1
			c-0.4-4.8,0.8-9.3,1.2-14.2c1.8-15.1,4.8-34.6,10.9-49.5c19.4-65,67.7-123.1,124.3-159.4c4.7-2.5,11.8-6.4,15.7-9.1
			c1.1-0.1,3.8-1.6,5.9-2.6c7.3-4.3,17.1-8.5,27.1-12c2.2-1.8,8.4-3.5,12.1-5.3c1.8,0-2.1,1.1,0.8,0.6c6-4.1,29-8.9,39.4-10.7
			c-0.7,0.1-0.9-0.1,0-0.3c2.6,0,3.6-1.1,6.5-1.4c18.9-2.5,32.6-4.7,49.1-4.5c2,0.4,7.5,1.4,9.4,1c-2.9-0.4-6.7-0.5-6.4-1.3
			c4.9,0.4,11.4,1,14.8,0.7c6.1,0.7,9.1,1.7,14.6,2c1.3,0.3-1.1-1,1.7-0.4c8.4,2,12.7,2.5,20,4.9c2.4-0.1,11.1,2.5,13.6,3.7
			c2.5,0.6-2.4-1.5-0.3-1c6.6,2.2,12.9,4.2,18.5,7.4c1.6,0.4,2.8,0.3,5.2,1.4c1.6,0.8-0.8,0.4,1.7,1.4c2.4,0.8-1.4-1.5-0.6-1.7
			c3.2,1.4,2.8,0.7,4.6,1.1c4.2,2.5,7.5,3.5,11.6,5.6c4.2,2,8.3,5.2,12.2,7.5c3.4,1.9,4.9,2.6,8.4,5.2c2.9,2.1,4.9,4.3,7.9,6.9
			c1.7,1.2-0.7-1.3,1.6,0.5c10.7,8.8,20.5,18.5,27.7,25.9c-11.1-11.2-18.4-20.2-29.8-28.1c-1.1-1.9-5.1-3.5-6.2-5.5
			c-1-0.2,1.4,1.9-1,0c-0.8-0.7-1-1-2.3-1.9c2.1,0.5-0.3-1.2-0.9-2.4c-9.7-6.7-17.7-11.3-26.8-15.9c-1.8-0.7,0.9,1-1,0.2
			c-3.5-1.6-6-3.2-10.3-4.7c-1-1.1-3.7-2.6-1.9-2.7c12.6,5.4,29.7,13.5,43,23.3c4.1,2.9,7.8,6.6,10.5,7.7
			c-5.8-4.6-10.1-8.9-15.3-12.7c-6.8-4.9-15-8.7-22.1-12.7c-2-1.1-2.7-1.8-4.6-2.7c-1.5-0.7-4.1-1.7-5.8-2.3
			c-1.8-0.8-1.8-1.2-3.3-1.8c-3.2-1.3-5.8-2.1-9.5-3.4c-6-2.4-11.8-5-18.7-6.9c-1.2-0.7-0.4-1.1,1.2-0.8c8.1,2.5,9.4,3,17.5,6
			c-0.9-0.4-1.4-0.7-1.2-1c2.5,1,3.3,1.5,5.1,1.8c-6-2.3-5.1-3.2-2.8-2.9c14.9,5.9,32.7,14.9,43.4,22.8c1.4,0.5,2.4,0.7,4.5,1.9
			c12.5,8.3,25,19.6,36.2,31.1c-11.8-14.1-26.9-26.3-45-37.5c-0.6-0.6,0.2-0.6-1.7-1.6c-8-4.4-17.3-9.4-23.8-12.2
			c-2.5-1.8-5-3.7-7.6-5.6c-20.9-8-36.3-14.8-57.7-18.4c0.2-0.4-1.5-0.8-2.1-1.3c1.8-0.1,3-0.4,5.1-0.4c3.6,0.5,7.2,1,10.2,2
			c18.4,2.2,43.4,11.1,64.2,21.3c2.9,0.6,1.2-0.9-0.3-2.4c-9.8-5.7-19.7-8.4-30.5-13.4c-3.5-3.1,1.2-3,10,0.3
			c7.2,2.7,16.8,7,25.6,11.7c8.7,4.7,16.4,9.6,20.5,12.6c19.2,12.1,36.3,27.3,51.1,44.7c14.9,17.3,27.2,37.1,36.6,58.8
			c-9.7-24.5-24-44.3-38.7-62.3c-0.2,0.3-0.9-0.3-2-1.7c-15-17.3-34.8-33.5-52.1-43.6c-6.5-5.5-21.4-12.2-28.8-16.4
			c2.7-0.9,9.4,1.5,17.5,5.3c-4.1-2-8-4.1-11.7-6.2c-3.8-1.8-7.5-3.6-10.9-5.2c-5.8-2.5-16-5.8-19-6.9c-0.7-0.3,0.8-0.2-0.6-0.7
			c2.4,0.8-4.4-1.3-4.9-1.4c-3.3-0.8-2.7-0.6-6.6-1.6c-5-1.4-4.9-1.4-7.9-2.6c-17.3-4.5-34.5-6.3-52-7.6c-1.8-0.2-5.5-0.3-5.8-0.3
			c-1.7-0.1-0.2-0.4-2.4-0.5c-1.2-0.1-0.7,0.3-2.5,0.3c-6.9-0.4-14.7-0.2-21.6,0.1c-17.2,1-37.4,3.6-51,6.9
			c-3.1,0.6,0.8-0.9-3.3,0.1c-23.6,5.2-48,13.9-71.3,25.3c-1.7,0.9-0.7-0.5-3.2,1c-3.2,1.6-2.1,1.8-4.9,3.3
			c-1.8,0.8-3.6,1.4-4.7,1.6c-26.2,14.1-50.4,33.3-71.9,55c-20,20.2-37.6,42.8-51.5,66c-11.3,18.1-18.9,37.1-26.5,54.6
			c-8.3,24.2-13.7,45.9-17,69.7c-2,17.2-3.3,36.3-2.3,50.9c0.2,2.5,0.7,5.4,0.9,8.4c0.2,4.4-0.1,8.9,0.5,13.2
			c0.7,5.9,1.6,11.8,2.5,17.8c1.3,5.9,2.5,11.8,3.7,17.5c1.1,6.5,3.1,12.7,4.7,19c1.5,6.3,3.5,12.4,5.6,18.5c2.3,7,5.1,13.4,8.1,20
			c1.9,4.4,3.4,9.2,5.5,13.8c3.2,6.1,6.5,12.4,9.8,18.6c3.6,6,7.2,11.8,10.6,17.5c4.6,7.5,9.7,14.9,14.8,22.4
			c5.7,7,11,14.4,17.4,20.7c12.7,15.3,31,31.5,46.3,42.9c6,5,12.6,9.4,19.5,13.9c7.2,4,14.6,8,22.3,12.3c1.7,0.8,2.7,1.6,4.3,2.4
			c23.5,12.8,52.3,20.3,73.2,25c8,1.1,14.7,2.7,22,4.1c8,1.6,15.5,1.4,23.2,2c2.5,0.2,4.8,0.7,7.4,0.9c7.8,0.3,15.5-0.3,24.2-0.3
			c6.4-0.5,13.1-0.6,20-0.9c6.9-0.3,14-1.4,21.3-2.8c11.4-1.2,28.3-4,40.6-8.7c21.7-5.2,42.3-14.9,62.5-25.8
			c3.3-1.7,6.8-3.5,10.1-5.1c3.2-1.9,6.3-4,9.4-6.5c3.6-2,7.5-4.2,11.2-7c3.7-2.9,7.5-6,11.5-9.1c8-5.8,15.3-12.9,23.1-19.6
			c5-5.4,10.6-11.3,15.8-17c4.9-6,9.6-11.5,13.6-15.3c6-1.8,7-13,14.1-22.2c3.7-4.9,4.1-3.7,6.6-5.4c3.2-4.5,5.6-9.2,7.9-14
			C1356.5,1228.1,1359.9,1224.7,1363.5,1217.1z M1167.2,791c-0.2,0.1,0,0.3,0.6,0.5C1166.1,791.6,1163.1,789.5,1167.2,791z
			 M1168.8,791.2c5.9,2,14.3,4.8,18.2,7.2c1.1,0.5-0.6-1.2,1.3-0.6c2.3,1.4,4.9,3.2,9,5.3c-0.3,1.3-8.1-3.5-8.9-2.7
			c-3.2-1.5-4.7-2.2-6.4-2.3c-6.4-3.4-8.2-3-13.1-5.3C1170.4,792.5,1168.1,791.9,1168.8,791.2z"/>
	</g>
	<g>
		<path class="st1" d="M1072.8,660.7c0.4-1.4-0.2-3.1-0.7-4.8C1071.8,657.6,1072,659,1072.8,660.7z"/>
		<polygon class="st1" points="1072.1,655.9 1072.1,655.9 1072.1,655.9 		"/>
		<path class="st1" d="M1072.2,287.7c-0.4,0.5-0.8,1-1.2,1.6C1071.5,288.9,1072,288.4,1072.2,287.7z"/>
		<path class="st1" d="M1061.9,576l-2.3,0.1c0-3.8,2.7-1.5,2.2-5c-3.5-0.9,0.7-5.9-1.1-6.9c0.3,0,0.5-1.7,1.6-1.7
			c-1.9-0.3-0.3-1.7-0.8-2.7c-0.5-0.3-0.6,0.3-1.2,0.7l-0.5-2.4c0.7-1,1.9-1.3,2-0.3c0.7-3.3,2.3-12.6,4.8-21.6
			c2.2-9,5.3-17.7,5.7-20.9c-2,0.6-1.4,2.7-4.4,3.2c-1.1-1.9,1.3-2.5-0.2-3.4c4.4-0.1,2.1-3.6,6.9-4.2l-2.2-0.8l1.8-0.6
			c0.1-7.6-0.8-1.9,2.3-8.1c1.2-3.7-1.8-6.2,0.5-7.9c-0.2,0.3-2.1,0.7-2.3-0.4c2.3,0.4-0.5-2.9,2-2.8c0.1-1,1.7-3.9-1.8-3.7
			c1.7-0.1,3.6-2.6,4.2-0.6c0.5-0.9,1.4-1.6,1-2.4l-1.4,0.9c1-3.1,4.2-3.9,2.3-6.8l-1.8,0.7c0.6-1.9,1.2-3.4,4.7-3l0,2.1
			c1.5-2.9,2.3-4.6,1.9-7.6l-0.5,0.8c-1.6-4.2,5.3-21,3.3-25.7l-3.4,0l-0.6-3.5c-0.2,0.3,7.5,5.3,6.5,5.1
			c1.6-2.5,6.3-10.5,11.9-17.6c5.5-7.3,11.8-13.8,14.6-15c2.9-0.5,4.3,2.9,4.7,3.2c0.9-2.5-1.9-2.9,0-4.2c0.9,0,1.9,1.7,2,2.2
			c0.4-0.9,2-0.8,0.8-1.8c-1.8,0.1-4.6-2.8-7-4.1l2.4-1.8l1.9,1.7c0.5-0.4-4.2-5.6-1-6.7c4.5-2.5,7.8-6.6,12-9.1
			c1.1,1.2,1,2.5,0.9,3.8c0.6-0.3,1-1.2,2.3-0.8c-2.9-1.3,0.2-2.6-1.3-2.9c-1.9-6.9,6.1-5.2,5.5-10.4c-1.9-2.3-18-22.9-33.8-44.4
			c-15.8-21.9-31.6-43.8-33.8-46.8c1.1-1,2.3-2,3-1.9c-1.4-1.1-4,0.5-4.4,2.4l2.4,3.2c-1.6,3.7-2.1-1.2-4.3,1.6
			c-2.2-2.3-0.4-5.2,1.3-7.6c-2,1.6-5.3,1.8-3.8,5.2c-2.5,0.8-2.4-3.2-5.3-2c-0.9,2.3-0.5,6.7-3.4,7.2l-0.3-0.4
			c-6,2.2-2.6,10.2-8,12.2l-0.4-1.2c-2.4,0.3-3,4.9-6.4,6.3c1-0.4,3.1,0.5,2.2,2.4c-3.7,1.8-3.8,5.3-7.2,6.1l0.6,4.2
			c-4.1,5.3-12.4,19.8-19.1,34.7c-6.8,14.9-12,30.2-14,36.3l-0.2-0.7c-3.1,9.4-7.4,23.8-10.5,38.4c-3.2,14.6-4.6,29.5-4.3,39.5
			c-2.3,2.6-2.2,6.9-3.1,9.9c1-1.6,2.3-0.7,2.1,0.6c-0.8,9.6,1.3,0.9,1.6,10.7c0.6,5.7,0.2,18.9,0.7,31.8c0.3,13,1.6,25.6,1.8,30.4
			c3.1,4.9,2.8,11.3,5.3,16l-0.6-0.4c1.1,2.6,2.7,11.3,5.2,19.9c2.3,8.7,5.3,17.2,6.8,20l-0.1-0.8c3.1,4.7,0.9,4.5,1.9,8.6
			c1.7-1.1,4.6,2.8,5.4,4.3l-0.4,0.1c1.4,2.3,5.3,7.2,7.5,10.9l-1,0.2c2.5,2.8,5.1,8.9,6.5,11.1c2.3,5.3,5.7,13.7,11,19.7l0.8,5.2
			l0.6,0.5c0,0,7.1-1.6,13.7-4.7c6.8-3,13.3-7.5,14.3-13.1l0.8-0.2l-0.7-1.6c-0.4-2.2-1.6-2.7-0.8-2.9l1,2.8c-0.6-2.1,0.4-0.9,1-0.4
			c-0.2-0.9-0.5-1.7-0.5-2.5c-0.4-0.2-0.2,0.4-0.2,0.8c-0.6-1-2-2.1-2-3.6c-0.6-2.1,1.2-0.8,0.5-3.2c-3.5-13.1-5.1-26.1-7-39.1
			c0.4-0.4,0.4-0.1,0.7,0.3c-0.8-3.8-1.2-7.3-1.9-10.8c0.4-1.1,1.1-1.6,1.6-2c-0.4,0.4-1.2-4.4-1.3-9.5
			C1061.6,581.3,1061.7,576.2,1061.9,576z"/>
	</g>
	<g>
		<path class="st1" d="M1232.5,709c1.2-0.1,2-0.9,2.8-1.6C1234,707.7,1233.1,708.1,1232.5,709z"/>
		<polygon class="st1" points="1235.3,707.4 1235.3,707.4 1235.3,707.4 		"/>
		<path class="st1" d="M1286.5,485.3c-0.1,0.3-0.2,0.6-0.4,1C1286.3,486.1,1286.5,485.8,1286.5,485.3z"/>
		<path class="st1" d="M1272.8,673.2l-1.9-1.4c1.7-1.7,2.8,1,4-0.9c-2.3-2.4,3-2.3,2-3.8c0.2,0.2,1.1-0.5,2,0.1
			c-1.4-1.3,0.4-1,0.5-1.7c-0.3-0.5-0.6-0.2-1.3-0.4l0.6-1.4c1-0.1,2.1,0.5,1.8,1c3.6-2.5,20.4-14,23-17.3c-1.9-0.7-2,0.9-4.7-0.4
			c-0.4-1.7,1.8-0.8,0.8-2.1c3.8,2.2,2.8-1.1,7,0.9l-1.7-1.6l1.7,0.5c1.9-4.7-0.1-1.5,3.9-3.9c1.8-1.8-0.1-4.7,2.1-4.8
			c-0.2,0.1-1.9-0.5-1.9-1.3c1.9,1.3,0.1-2.1,2.2-0.9c0.3-0.6,2.2-1.8-0.9-3.2c1.5,0.7,3.6-0.1,3.8,1.5c0.6-0.3,1.5-0.4,1.3-1.1
			l-1.4,0c1.3-1.6,4.3-0.8,3-3.5l-1.7-0.3c0.9-0.9,1.5-1.8,4.5-0.1l-0.3,1.4c1.6-1.4,2.5-2.3,2.5-4.5l-0.6,0.3
			c-0.8-3.4,6.3-12.7,4.4-16.9l-2.9-1.2l-0.4-2.7c-0.2,0.1,6.4,6.5,5.6,6c2.9-2.6,16.9-16.4,21.4-16.9c2.5,0.4,4,3.3,4.3,3.6
			c0.5-1.8-1.9-2.7-0.5-3.4c0.8,0.2,1.8,1.8,2,2.2c0.2-0.6,1.6-0.2,0.5-1.3c-1.5-0.3-4.2-3.3-6.4-4.8l1.8-0.9l1.8,1.8
			c0.4-0.2-4.3-5.4-1.8-5.6c3.4-1.1,5.5-3.7,8.5-5.2c1.1,1.1,1.3,2.2,1.4,3.2c0.4-0.2,0.6-0.8,1.8-0.3c-2.7-1.5-0.3-2.1-1.6-2.6
			c-2.9-6,3.9-3.4,2.3-7.8c-4.2-4.5-72-77.9-77-83.3c0.5-0.6,1-1.1,1.6-0.9c-1.3-1.1-2.7-0.4-2.4,1l2.7,2.9c0,2.5-1.9-1.3-2.7,0.4
			c-2.3-2.2-1.9-4.1-1.4-5.5c-1,0.8-3.3,0.3-1.1,3.2c-1.6,0.1-2.7-2.9-4.5-2.6c0.1,1.6,1.6,4.9-0.4,4.7l-0.4-0.4
			c-3.8,0.3,1,7.1-2.6,7.3l-0.6-1c-1.8-0.4-1,2.9-3.2,3.1c0.7,0,2.5,1.1,2.2,2.3c-2.4,0.4-1.7,2.9-4.1,2.5l1.4,3.2
			c-3.9,5.6-13.9,31.6-16.5,37.8l-0.2-0.5c-3.9,9.9-13.1,28.6-15,39.8c-2.3,0.2-2.8,2.6-4,3.7c1.1-0.4,2.1,0.8,1.7,1.4
			c-2.3,4.5,1,1.1-0.5,6.3c-1.2,6.3-11.6,25.8-14.5,30c0.9,3.8-1.8,6.2-1.5,9.5l-0.3-0.5c-0.5,3.1-7.7,17.6-8.1,21.2l0.4-0.3
			c0.1,3.4-1.6,2-2.8,3.9c1.9,0.7,2,3.7,1.8,4.6l-0.4-0.2c-0.2,1.5,0.2,5.4-0.4,7.8l-0.8-0.6c0.3,2.4-1.3,5.7-1.7,7.1
			c-1.5,2.8-4.2,6.9-4.5,11.6l-2.8,1.6l0.1,0.5c0,0,5.7,4.2,12.1,7.8c6.4,3.7,13.6,7,17.9,6.2l0.7,0.4l0.6-0.9
			c1.2-0.8,0.7-1.7,1.4-1.3l-1.2,1.3c1.1-0.9,0.8,0,0.9,0.6c0.4-0.4,0.9-0.7,1.4-0.9c-0.1-0.3-0.4,0-0.7,0.1c0.2-0.7,0.1-1.8,1-2.2
			c0.9-1,1.3,0.6,2.4-0.6c6-5.8,12.5-11,18.2-16.9c0.5,0.1,0.4,0.2,0.4,0.5c1.4-2,3-3.5,4.2-5.3c0.9-0.2,1.7,0.1,2.2,0.2
			C1263.3,682,1272.4,673.1,1272.8,673.2z"/>
	</g>
	<g>
		<path class="st1" d="M1414,852.1c1.4-0.2,2.7-1.3,3.9-2.3C1416.4,850.2,1415.2,850.9,1414,852.1z"/>
		<polygon class="st1" points="1418,849.9 1418,849.8 1417.9,849.9 		"/>
		<path class="st1" d="M1669.5,620c-0.5,0.2-1,0.4-1.6,0.5C1668.4,620.5,1669,620.4,1669.5,620z"/>
		<path class="st1" d="M1479.5,807.1l-1.3-1.9c3.1-1.8,2.7,1.6,5.2-0.5c-1.1-3.3,5-2.4,4.8-4.4c0.2,0.2,1.6-0.5,2.2,0.4
			c-0.8-1.8,1.2-1.2,1.7-2c0-0.6-0.6-0.4-1.2-0.7l1.7-1.6c1.2,0.1,2.1,0.9,1.4,1.5c3-1,11.1-4.6,19.5-7.6c8.4-3,16.6-6,19.4-7.4
			c-1.7-1.3-2.9,0.4-5.1-1.7c0.8-1.9,2.6-0.4,2.5-2.1c2.8,3.4,4-0.4,7.4,2.9l-0.8-2.3l1.5,1c5.7-4.6,0.9-1.8,7.5-3.2
			c3.5-1.4,3.5-5.1,6.2-4.6c-0.3,0.1-1.8-1.1-1.2-2c1.2,2,1.8-2.3,3.3-0.3c0.8-0.5,3.9-1.2,1.5-3.8c1.2,1.2,4.2,1.1,3.2,2.8
			c1-0.1,2,0.1,2.4-0.7l-1.6-0.5c2.9-1.2,5.6,0.7,6.4-2.6l-1.7-0.9c1.8-0.7,3.2-1.3,5.2,1.5l-1.5,1.4c3-0.8,4.7-1.5,6.5-3.8
			l-0.9,0.1c1.9-3.8,17.9-10.4,19.6-15.1l-2.3-2.4l1.9-2.8c-0.3,0,1.7,9,1.1,8.1c5.5-1.4,34-8,39.6-5.5c2.4,1.6,1.4,5,1.5,5.5
			c2.2-1.3,0.4-3.4,2.6-3.2c0.7,0.5,0.4,2.5,0.1,3c0.9-0.4,1.9,0.7,1.7-0.8c-1.4-1.1-1.7-5.1-2.6-7.6l2.8,0.1l0.3,2.5
			c0.6,0.1,0.3-7.1,3.3-5.8c4.8,1,9.7,0,14.3,0.6c0.1,1.6-0.7,2.6-1.5,3.5c0.6,0.1,1.5-0.3,2.2,0.8c-1.5-2.8,1.7-1.9,0.7-3.1
			c2.6-6.6,7.6-0.3,10.2-4.8c-0.1-3-0.8-29.1-0.9-55.9c-0.2-26.7,0.2-54-0.1-57.7c1.3-0.1,2.5-0.3,2.9,0.3c-0.4-1.7-2.9-2-4.2-0.7
			l0,4c-2.9,2-0.9-2.2-3.8-1.3c-0.4-3.2,2.3-4.4,4.6-5.3c-2.2,0.1-4.5-1.8-5.1,1.9c-2.1-0.9-0.1-4-2.6-4.8c-1.7,1.3-3.7,4.9-5.8,3.5
			l0-0.6c-5.2-2.1-6.9,6.3-11.6,4.5l0.3-1.2c-1.8-1.3-4.5,1.9-7.5,0.9c0.9,0.4,1.9,2.4,0.3,3.2c-3.4-1-5.3,1.5-8-0.1l-1.7,3.5
			c-5.5,1.5-18.7,6.7-31.2,12.8c-12.7,6-24.7,12.8-29.5,15.4l0.3-0.6c-7.5,4-18.5,10.5-29.4,17.2c-5.3,3.6-10.6,7.2-15.3,10.6
			c-4.7,3.5-8.7,7.1-11.9,10.1c-3.1-0.3-5.8,2.1-8.3,3.2c1.6-0.1,1.9,1.4,0.9,2c-6.7,4.8,0.2,1.6-6,7.3
			c-7.2,6.7-35.4,28.6-41.9,33.8c-1.9,4.8-6.7,7.7-8.8,11.9l0-0.7c-3,3.7-21.5,22.3-24.2,27.2l0.6-0.4c-2,4.6-3.1,2.6-5.7,5.2
			c1.7,1,0.1,5-0.7,6.3l-0.3-0.3c-1.1,2.1-3.2,7.2-5,10.5l-0.7-0.8c-1,3.3-4.7,7.8-5.9,9.8c-3.4,3.8-8.5,9.8-11.2,16.4l-4.1,2.5
			l-0.1,0.7c0,0,4.6,5.5,10.1,10.3c5.6,4.8,12.3,9,17.6,7.9l0.5,0.6l1.1-1.2c1.7-1.1,1.6-2.3,2.2-1.7l-2,1.8c1.6-1.2,1,0,0.8,0.8
			c0.7-0.5,1.3-1,2-1.3c0-0.5-0.5,0-0.8,0.1c0.5-0.9,1-2.4,2.2-3.1c1.5-1.3,1.2,0.7,2.9-0.8c9.6-8,19.7-14.7,29.5-21.9
			c0.6,0.2,0.3,0.3,0.1,0.7c2.7-2.4,5.3-4.4,7.8-6.5c1.2-0.1,1.9,0.3,2.4,0.5c-0.6-0.2,3.2-2.9,7-5.5
			C1475.1,809.4,1479.3,807.1,1479.5,807.1z"/>
	</g>
	<g>
		<path class="st1" d="M1444.3,1035.3c0.6,0.9,1.4,1.1,2.2,1.4C1445.7,1035.8,1445.1,1035.3,1444.3,1035.3z"/>
		<polygon class="st1" points="1446.4,1036.7 1446.5,1036.7 1446.4,1036.7 		"/>
		<path class="st1" d="M1586.4,936.5c-0.2,0.1-0.4,0.3-0.7,0.4C1585.9,936.9,1586.1,936.8,1586.4,936.5z"/>
		<path class="st1" d="M1482.2,1047.4l-0.2-2.3c1.7,0.4,0.8,2.8,2.3,2.7c0.2-3.3,2.6,1,3-0.7c0,0.3,0.8,0.6,0.9,1.7
			c0-1.9,0.7-0.2,1.2-0.6c0.1-0.5-0.2-0.6-0.4-1.2l1-0.4c0.5,0.7,0.7,1.9,0.3,2c3,1.4,16.9,7.6,19.8,7.6c-0.5-1.9-1.4-1-2-3.9
			c0.7-1.3,1.2,0.9,1.5-0.7c0.6,4.3,1.9,1.5,2.8,6l0.1-2.4l0.5,1.6c3.3-1.4,0.7-1,3.9,0.6c1.8,0.2,2.4-3.1,3.5-1.5
			c-0.2-0.1-0.6-1.8-0.2-2.3c0.2,2.3,1.1-1.3,1.5,1.1c0.4-0.2,1.9,0.6,1.3-2.8c0.3,1.7,1.7,2.7,1,3.9c0.4,0.2,0.9,0.9,1.2,0.2
			l-0.6-1.1c1.5,0,2.4,2.8,3.2,0.1l-0.6-1.5c0.9,0.1,1.6,0,2.1,3.4l-0.9,0.7c1.5,0.4,2.4,0.5,3.5-0.9l-0.4-0.2
			c1.4-2.8,9.5-3.4,10.9-7.6l-0.7-3l1.2-2.1c0,0-0.2,2.2-0.3,4.4c-0.1,2.2-0.2,4.2-0.3,3.7c2.7,0.5,16.4,1.9,18.8,4.9
			c1,2.1,0.1,5.2,0.1,5.6c1.2-0.8,0.5-3.2,1.5-2.6c0.3,0.7-0.1,2.5-0.2,2.9c0.4-0.2,0.8,1,0.9-0.5c-0.5-1.4-0.3-5.3-0.5-8l1.3,0.7
			l-0.1,2.5c0.3,0.2,0.8-6.8,2.1-5.1c2.1,1.7,4.5,1.5,6.6,2.7c-0.1,1.6-0.5,2.4-1,3.2c0.3,0.2,0.7-0.1,1,1.1c-0.5-3,0.9-1.6,0.6-3
			c1.8-6.2,3.6,0.5,5.2-3.6c0.4-6.2,6.8-105.8,7.3-113.1c0.5,0,1,0,1.2,0.5c-0.1-1.7-1.1-2.2-1.7-1.1l-0.2,4
			c-1.3,1.7-0.2-2.3-1.4-1.7c0-3.2,1.2-4.2,2.2-4.8c-0.9-0.1-1.7-2.2-2.2,1.4c-0.8-1.1,0.2-3.9-0.7-5c-0.8,1.2-1.8,4.6-2.6,2.9
			l0-0.6c-1.9-2.6-3.2,5.7-5,3.1l0.2-1.1c-0.6-1.6-1.9,1.2-3.1-0.3c0.3,0.5,0.6,2.6-0.1,3.2c-1.3-1.5-2.3,0.7-3.2-1.3l-1,3.2
			c-4.7,1-22.9,10.8-27.3,12.8l0.2-0.5c-6.9,3.6-20.9,8.6-27.7,14.1c-1.2-1.7-2.7-0.6-3.8-0.7c0.7,0.6,0.6,2.1,0.1,2.2
			c-3.4,1.1-0.1,1.5-3.5,3.6c-3.8,3.1-18.9,6.8-22.4,7c-1.6,3.1-4.1,2.3-5.7,4.4l0.1-0.6c-1.8,1.5-12.9,4.3-14.9,6l0.3,0.1
			c-1.8,2-1.8-0.1-3.4,0c0.5,1.9-1,3.8-1.6,4.2l0-0.4c-0.9,0.8-2.8,3.3-4.3,4.2l-0.1-1c-1.1,1.6-3.6,2.2-4.5,2.7
			c-2.2,0.4-5.7,0.5-8.2,2.9l-2.2-1.4l-0.2,0.3c0,0,0.5,7,1.5,14.3c1,7.3,2.6,15,5.1,18.2l0.1,0.8l0.7,0c1,0.5,1.3-0.4,1.3,0.4
			l-1.3-0.3c1,0.4,0.4,0.7,0.1,1.1c0.4,0.1,0.8,0.3,1.1,0.6c0.1-0.3-0.2-0.4-0.4-0.6c0.4-0.2,1-0.9,1.7-0.4c1,0.2,0.3,1.4,1.4,1.6
			c5.9,1.6,11.7,4,17.5,5.1c0.2,0.5,0,0.4-0.1,0.6c1.7-0.1,3.3,0.5,4.8,0.3c0.5,0.6,0.7,1.4,0.9,1.9
			C1473,1044.9,1482,1047,1482.2,1047.4z"/>
	</g>
	<g>
		<path class="st1" d="M899.4,718.5c0.4-1,0.1-1.9-0.1-2.7C898.9,717,898.9,717.8,899.4,718.5z"/>
		<polygon class="st1" points="899.3,715.8 899.3,715.8 899.3,715.8 		"/>
		<path class="st1" d="M736,619.9c0.2,0.2,0.4,0.4,0.7,0.6C736.6,620.2,736.5,620,736,619.9z"/>
		<path class="st1" d="M888,677.3l-1.9,1.3c-0.6-1.8,2-2.2,1.1-3.5c-3,1.4-0.5-3-2.2-2.5c0.2-0.2,0.1-1,1-1.6
			c-1.6,0.9-0.6-0.6-1.2-0.8c-0.5,0.1-0.4,0.5-0.9,1l-0.9-0.8c0.4-0.8,1.3-1.6,1.6-1.2c-0.5-3.5-2.2-19.5-3.6-22.2
			c-1.4,1.4-0.2,1.8-2.5,3.7c-1.5,0,0.2-1.6-1.3-1.1c3.5-2.6,0.4-2.5,3.9-5.4l-2.1,1l1.2-1.2c-2.9-2.5-1.3-0.2-1.4-3.9
			c-0.7-1.8-3.9-0.9-3-2.6c0,0.2-1.3,1.4-1.9,1.3c2-1.3-1.7-0.5,0.2-1.9c-0.4-0.3-0.4-2.1-3.1,0.1c1.3-1.1,1.6-2.8,3-2.7
			c0-0.5,0.3-1.2-0.4-1.2l-0.7,1.1c-0.7-1.4,1.3-3.6-1.5-3.1l-1,1.3c-0.4-0.9-0.8-1.6,2-3.6l1.1,0.5c-0.4-1.6-0.7-2.4-2.5-2.9l0,0.5
			c-3.2-0.1-7.6-7.6-12-7.1l-2.4,2l-2.5-0.3c0,0.2,8.4-3.5,7.6-3c-0.8-2.8-5.8-16.7-4.1-20.3c1.5-1.8,4.6-2.3,5.1-2.5
			c-1.2-0.8-3.2,0.8-3.1-0.4c0.5-0.5,2.3-1,2.8-1c-0.4-0.3,0.6-1.2-0.8-0.7c-1,1.1-4.7,2.4-7.1,3.7l0.1-1.6l2.4-1c0-0.3-6.6,2-5.5,0
			c0.7-2.8-0.6-5-0.3-7.6c1.5-0.6,2.5-0.4,3.4-0.3c0-0.3-0.4-0.7,0.6-1.4c-2.6,1.6-1.9-0.3-3,0.6c-6.4,0.7-1-3.8-5.5-3.6
			c-5.8,2-100.2,34.5-107.2,36.9c-0.2-0.6-0.5-1.1,0-1.5c-1.5,0.7-1.6,2-0.3,2.2l3.8-1.3c2.2,0.7-2,1.1-0.9,2.2
			c-2.9,1.2-4.4,0.3-5.4-0.5c0.3,1-1.2,2.7,2.3,1.8c-0.6,1.3-3.7,1.3-4.2,2.8c1.4,0.4,5,0.2,3.9,1.7l-0.5,0.2
			c-1.5,3.2,6.7,1.3,5.1,4.2l-1.1,0.2c-1.1,1.3,2,1.6,1.2,3.5c0.3-0.6,2.1-1.7,3-1.1c-0.7,2,1.7,2.2,0.3,4l3.4-0.2
			c3.1,4.8,21,20,25,23.8l-0.5,0c6.7,5.8,18.5,18.2,27.1,22.5c-0.8,2,0.9,3,1.4,4.2c0.2-1,1.6-1.5,1.9-1.1c2.8,3,1.4-0.5,5.1,1.9
			c4.8,2.5,16.5,15.9,18.7,19.2c3.6,0.1,4.4,2.9,7.2,3.5l-0.6,0.2c2.4,1.1,11.3,10.5,14.1,11.7l-0.1-0.4c2.8,0.7,1,1.8,2,3.3
			c1.4-1.4,3.9-0.9,4.6-0.5l-0.4,0.3c1.2,0.5,4.5,1,6.2,2l-0.8,0.6c2.1,0.3,4.1,2.3,5.1,3c1.7,1.9,3.9,5.1,7.6,6.4l0.2,2.8l0.4,0
			c0,0,5.7-4.1,11.3-8.8c5.6-4.8,11.3-10.3,12.5-14.2l0.6-0.5l-0.4-0.7c-0.1-1.2-1.1-1-0.4-1.5l0.5,1.3c-0.3-1.1,0.4-0.7,0.9-0.7
			c-0.1-0.4-0.2-0.9-0.2-1.4c-0.3,0-0.2,0.4-0.3,0.6c-0.4-0.3-1.4-0.5-1.3-1.3c-0.4-1,1-1,0.6-2.1c-2.1-6.3-3.4-12.9-5.7-18.8
			c0.3-0.4,0.4-0.3,0.6-0.2c-1-1.5-1.5-3.2-2.4-4.6c0.3-0.8,0.8-1.4,1.1-1.8C890.9,687.1,887.8,677.7,888,677.3z"/>
	</g>
	<g>
		<path class="st1" d="M729.9,872.3c-1.1-1-2.9-1.4-4.7-1.9C726.5,871.5,728,872,729.9,872.3z"/>
		<polygon class="st1" points="725.1,870.4 725.1,870.4 725.2,870.4 		"/>
		<path class="st1" d="M378.3,706.2c0.3,0.5,0.7,1.1,1,1.7C379.1,707.3,378.9,706.7,378.3,706.2z"/>
		<path class="st1" d="M645.9,839.7l-1,2.1c-3.6-1.9-0.1-3.1-3.6-4.4c-2.5,2.6-5.2-3.5-7-2.4c0.1-0.2-1.4-1.3-0.9-2.2
			c-1.2,1.5-1.8-0.5-2.9-0.7c-0.6,0.3,0,0.7,0.1,1.4l-2.5-0.8c-0.6-1.1-0.4-2.4,0.7-1.9c-2.8-2.2-10.8-8.1-18.3-14.7
			c-7.6-6.4-14.6-13.2-17.5-15.1c-0.3,2.1,2,2.6,1.1,5.5c-2.3,0.1-1.8-2.3-3.3-1.5c1.8-4-2.6-3.6-1.1-8.2l-1.8,1.6l0.2-1.9
			c-7.3-3.7-2.2-0.2-6.8-6c-3.1-2.8-6.7-1.3-7.4-4.2c0.2,0.3-0.2,2.2-1.3,1.9c1.3-1.9-3-0.9-1.9-3.1c-0.9-0.6-3-3.4-4.3-0.1
			c0.6-1.6-1-4.5,1.1-4.2c-0.6-0.9-0.9-2-1.9-2.1l0.3,1.7c-2.6-2.4-2.1-5.8-5.6-5.3l-0.1,2c-1.5-1.4-2.8-2.7-1-5.8l2,1
			c-2.2-2.7-3.5-4.2-6.6-5.3l0.6,0.9c-4.7-0.5-18-14.5-23.3-14.7l-1.3,3.2l-3.5-1c0.2,0.3,7.9-4.6,7.4-3.8
			c-1.8-2.6-7.6-10.6-12.4-19.1c-4.9-8.4-8.8-17.3-9-20.5c0.6-3,4.3-2.9,4.7-3.1c-2.1-2-3.4,0.6-4-1.8c0.3-0.9,2.3-1.1,2.8-1
			c-0.7-0.8,0-2.2-1.4-1.6c-0.6,1.8-4.3,3.2-6.4,5l-0.9-3.1l2.3-1.1c-0.2-0.7-6.9,1.7-6.8-1.9c-0.8-5.4-3.5-10.3-4.5-15.5
			c1.5-0.6,2.7,0.1,3.9,0.7c-0.1-0.7-0.8-1.5,0.1-2.6c-2.2,2.3-2.4-1.3-3.2,0.1c-7.2-1.1-2.9-8.1-8-9.7c-2.9,0.9-27.9,8.4-53.7,15.3
			c-25.8,7-52.3,13.5-55.8,14.7c-0.5-1.4-1.1-2.8-0.7-3.4c-1.5,0.9-1,3.9,0.7,5l3.8-1.1c2.9,2.8-1.8,1.5-0.1,4.6
			c-2.9,1.3-5-1.5-6.6-4c0.8,2.5-0.3,5.6,3.5,5.4c-0.2,2.7-3.8,1.1-3.8,4.2c1.8,1.6,6.1,2.9,5.5,5.7l-0.5,0.2
			c-0.1,6.4,8.6,6.1,8.4,12l-1.2-0.1c-0.7,2.4,3.4,4.6,3.5,8.3c0.1-1.1,1.6-2.7,3-1.1c0.3,4.1,3.5,5.5,3,9l4.1,1
			c3.4,5.8,13.7,19.1,25,31.1c11.2,12.2,23.2,23.1,28.1,27.5l-0.7-0.1c7.5,6.7,19,16.6,31.1,25.6c12.1,9.1,25.2,16.8,34.5,20.9
			c1.4,3.2,5.4,5,7.8,7.1c-1-1.6,0.3-2.4,1.5-1.6c8.4,4.9,1.4-0.8,10.4,3.3c5.4,2,17.4,8.2,29.3,13.8c11.9,5.7,24,10.4,28.4,12.5
			c5.9-0.5,11.6,2.8,17,2.9l-0.7,0.3c2.8,0.2,11.5,2.9,20.5,4.9c8.9,2.1,18.1,3.6,21.3,3.7l-0.8-0.4c5.7-0.5,4.5,1.4,8.7,2.5
			c-0.1-2,4.7-2.7,6.5-2.7l-0.1,0.4c2.8-0.1,9-1.1,13.5-1.2l-0.3,1c3.8-0.8,10.6-0.1,13.2-0.2c5.9,0.6,15.1,1.9,23.1,0.3l5.1,1.9
			l0.8-0.3c0,0,2.2-6.9,3-14.2c0.8-7.4,0.3-15.2-4.3-18.9l0.2-0.8l-1.9-0.2c-2.2-0.8-3.3,0-3.1-0.8l3,0.6c-2.2-0.6-0.6-0.8,0.2-1.1
			c-0.9-0.2-1.8-0.5-2.5-0.9c-0.4,0.2,0.3,0.4,0.6,0.6c-1.2,0.1-2.9,0.6-4.3-0.1c-2.3-0.5-0.1-1.4-2.7-2
			c-13.8-3.5-26.6-8.6-39.6-13.3c-0.2-0.6,0.2-0.4,0.6-0.5c-4-1.1-7.4-2.6-11-3.6c-0.8-0.9-0.9-1.8-1.1-2.4c0.2,0.5-4.7-1.1-9.5-3.5
			C650.8,842.6,646,840,645.9,839.7z"/>
	</g>
	<g>
		<path class="st1" d="M649.8,1055.6c-0.8-0.7-1.5-0.7-2.2-0.8C648.5,1055.5,649.2,1055.8,649.8,1055.6z"/>
		<polygon class="st1" points="647.6,1054.8 647.6,1054.9 647.6,1054.9 		"/>
		<path class="st1" d="M518,1155.7c0.3-0.1,0.6-0.1,0.9-0.2C518.6,1155.4,518.3,1155.4,518,1155.7z"/>
		<path class="st1" d="M618,1050.9l0.7,2.2c-1.3-0.2-1.2-2.7-2.3-2.3c0.6,3.2-2.1-0.7-2,1c-0.1-0.3-0.7-0.5-1-1.5
			c0.4,1.8-0.5,0.3-0.7,0.7c0,0.5,0.3,0.6,0.5,1.2l-0.7,0.5c-0.5-0.7-0.9-1.8-0.6-2c-2.6-1-13-6.3-14.8-6.3c0.6,1.9,1,1,1.8,3.8
			c-0.3,1.3-1-0.9-0.9,0.7c-0.9-4.2-1.4-1.4-2.5-5.9l0.2,2.3l-0.5-1.6c-2.1,1.5-0.4,1.1-2.6-0.5c-1.2-0.2-1.4,3.1-2.2,1.5
			c0.1,0.1,0.5,1.8,0.3,2.3c-0.3-2.3-0.7,1.3-1.1-1.1c-0.3,0.2-1.3-0.6-0.7,2.8c-0.3-1.6-1.3-2.7-0.8-3.8c-0.3-0.2-0.6-0.9-0.8-0.3
			l0.5,1.1c-1,0-1.7-2.8-2.2-0.1l0.5,1.5c-0.6-0.1-1.1,0-1.5-3.5l0.6-0.7c-1-0.4-1.5-0.5-2.3,0.9l0.3,0.2c-0.9,2.8-6.4,3.1-7.5,7.3
			l0.4,3l-0.9,2c0,0,0.2-2.2,0.4-4.4c0.2-2.1,0.3-4.2,0.4-3.7c-1.8-0.6-10.9-2.8-11.9-6.1c-0.3-2.1,0.6-5.1,0.7-5.6
			c-0.8,0.7-0.8,3.2-1.3,2.5c-0.1-0.7,0.4-2.5,0.6-2.9c-0.3,0.2-0.4-1.1-0.6,0.4c0.1,1.4-0.6,5.3-0.9,7.9l-0.7-0.8l0.4-2.5
			c-0.1-0.2-1.6,6.7-2.2,4.8c-1.1-2-2.7-2-3.8-3.4c0.4-1.6,0.8-2.3,1.3-3.1c-0.1-0.2-0.5,0-0.4-1.2c-0.3,3-0.9,1.5-1,2.8
			c-2.4,5.8-2.2-1-4.1,2.9c-0.8,2.9-7.8,28-15.4,53.6c-7.8,25.7-15.7,51.5-16.8,55.1c-0.6-0.1-1.2-0.2-1.2-0.8
			c-0.3,1.7,0.7,2.5,1.6,1.5l1.2-3.8c1.8-1.3-0.3,2.3,1.3,2c-0.7,3.1-2.3,3.8-3.6,4.1c1,0.3,1.5,2.6,2.8-0.8
			c0.7,1.3-1.1,3.8-0.2,5.1c1.1-0.9,3-4,3.6-2.2l-0.2,0.5c1.7,3,4.8-4.7,6.3-1.8l-0.5,1c0.4,1.7,2.4-0.8,3.5,0.9
			c-0.3-0.6-0.2-2.7,0.7-3.1c1.2,1.7,2.7-0.2,3.4,2l1.6-3c5.7,0.1,26.9-7.4,31.6-9.3l-0.2,0.4c7.8-3,22.8-7.9,29.5-13.9
			c1.3,1.6,2.8,0.5,4,0.5c-0.7-0.6-0.7-2.1-0.2-2.2c3.4-1.3,0.1-1.5,3.3-3.8c3.8-3.2,18.3-8.7,21.7-9.6c1.1-3.2,3.6-3,4.8-5.4l0,0.6
			c1.6-1.7,11.6-6.8,13.1-9l-0.3,0c1.2-2.4,1.7-0.3,3.2-0.8c-1-1.7-0.1-3.9,0.4-4.4l0.2,0.4c0.6-1,1.7-3.8,2.8-5.1l0.4,1
			c0.6-1.9,2.6-3.1,3.3-3.8c1.9-1,5-2.1,6.5-5.1l2.5,0.6l0.1-0.4c0,0-2.9-6.4-6.5-12.8c-3.6-6.5-7.8-13.1-10.9-15.4l-0.3-0.7
			l-0.6,0.2c-1-0.3-0.8,0.6-1.2-0.1l1.1,0c-0.9-0.1-0.6-0.6-0.5-1c-0.4,0-0.7-0.1-1.1-0.3c0,0.3,0.3,0.3,0.5,0.4
			c-0.3,0.3-0.4,1-1.1,0.8c-0.8,0-0.7-1.2-1.7-1.2c-5.1-0.2-10.1-1.3-14.7-1.5c-0.3-0.4-0.2-0.4-0.1-0.6c-1.2,0.3-2.5,0.1-3.6,0.4
			c-0.5-0.5-0.9-1.2-1.2-1.7C625.1,1052.1,618.2,1051.3,618,1050.9z"/>
	</g>
	<g>
		<path class="st1" d="M729.2,1263.2c-1.4,0.5-2.7,1.9-4,3.3C726.8,1265.8,728,1264.8,729.2,1263.2z"/>
		<polygon class="st1" points="725.2,1266.5 725.2,1266.6 725.2,1266.5 		"/>
		<path class="st1" d="M502,1578.1c0.6-0.2,1.2-0.5,1.9-0.8C503.2,1577.5,502.5,1577.7,502,1578.1z"/>
		<path class="st1" d="M666,1331.4l1.8,1.5c-2.8,3.1-3.1-0.6-5.2,2.5c1.8,3.1-4.7,4.4-4.1,6.4c-0.2-0.2-1.6,1.1-2.4,0.4
			c1.2,1.5-1,1.7-1.4,2.8c0.1,0.6,0.7,0.1,1.4,0.2l-1.3,2.3c-1.3,0.4-2.4-0.1-1.8-1.1c-2.8,2.3-10.5,8.9-18.3,15.5
			c-7.8,6.5-15.7,12.6-18,15.3c2.1,0.6,2.9-1.6,5.7-0.4c-0.3,2.3-2.6,1.5-2,3.1c-3.7-2.3-4,2.1-8.4,0l1.4,2l-1.9-0.4
			c-4.7,6.8-0.6,2.1-6.9,6.1c-3.1,2.7-2.1,6.5-5,6.9c0.3-0.2,2.2,0.4,1.8,1.5c-1.8-1.5-1.2,2.9-3.3,1.5c-0.7,0.8-3.7,2.6-0.5,4.2
			c-1.6-0.8-4.6,0.5-4-1.6c-0.9,0.5-2.1,0.7-2.2,1.6l1.7-0.1c-2.6,2.3-5.9,1.4-5.8,4.9l1.9,0.3c-1.6,1.3-2.9,2.5-5.8,0.4l1.1-1.9
			c-2.9,1.8-4.5,3-5.7,5.9l0.9-0.5c-0.9,4.6-15.6,16.2-16,21.3l3,1.6l-1.2,3.4c0.3-0.2-4-8.3-3.2-7.6c-2.6,1.5-10.7,6.3-19.1,10
			c-8.3,3.9-16.8,6.6-19.8,6.3c-2.8-1-2.4-4.5-2.6-5c-2,1.8,0.3,3.4-1.9,3.7c-0.8-0.4-0.9-2.4-0.7-2.9c-0.8,0.6-2-0.3-1.5,1.1
			c1.6,0.8,2.7,4.6,4.2,6.9l-2.9,0.4l-0.8-2.4c-0.6,0.1,1.1,7-2.2,6.4c-5,0-9.7,2-14.5,2.1c-0.4-1.6,0.3-2.6,1-3.7
			c-0.6,0-1.4,0.6-2.3-0.5c1.9,2.6-1.4,2.1-0.2,3.2c-1.6,7-7.5,1.5-9.4,6.3c0.5,3,4.5,28.7,7.6,55.3c3.2,26.5,5.4,53.8,6,57.4
			c-1.5,0.3-3.1,0.6-3.6,0.2c0.7,1.6,3.8,1.5,5.2,0.1l-0.4-4c3.3-2.4,1.3,2,4.7,0.7c0.8,3.1-2.3,4.8-5.1,5.9
			c2.7-0.4,5.7,1.1,6.1-2.7c2.7,0.5,0.5,3.9,3.7,4.3c2-1.6,3.9-5.6,6.7-4.7l0.1,0.6c6.6,1,7.5-7.8,13.4-6.9l-0.3,1.2
			c2.3,0.9,5.1-2.9,8.9-2.5c-1.1-0.2-2.6-1.9-0.8-3.1c4.2,0.1,6-2.9,9.4-2l1.5-4c6.2-2.8,20.6-11.7,33.4-21.7
			c12.9-10,24.4-20.7,29-25.1l-0.1,0.7c7-6.7,17.3-16.9,26.8-27.6c9.5-10.7,17.9-22.2,22.7-30.5c3.2-0.8,5.3-4.4,7.5-6.4
			c-1.6,0.8-2.3-0.7-1.5-1.6c5.5-7.1-0.6-1.4,4.1-9.3c2.4-4.8,9.6-15,16.5-25c6.9-10,13.4-19.9,16.2-23.4c0.5-5.5,4.7-9.8,5.8-14.7
			l0.2,0.7c1.9-4.8,16.2-28.9,17.9-34.5l-0.6,0.6c1.2-5.1,2.6-3.4,4.8-6.7c-1.9-0.6-1.1-5.1-0.5-6.6l0.3,0.3c0.8-2.4,1.8-8.2,3.3-12
			l0.8,0.7c0.5-3.6,3.6-9,4.6-11.2c2.7-4.7,7.5-11.7,9.6-18.9l3.9-3.1l0.1-0.7c0,0-5-5.2-11-9.5c-6-4.4-13-8-18.5-5.7l-0.6-0.5
			l-1.1,1.6c-1.8,1.6-1.6,2.9-2.2,2.4l2-2.4c-1.6,1.7-1,0.2-0.8-0.7c-0.7,0.7-1.3,1.4-2,1.9c0,0.5,0.5-0.1,0.9-0.3
			c-0.5,1.1-0.9,2.9-2.2,3.9c-1.5,1.8-1.3-0.6-3.1,1.5c-9.6,11-19.5,21.1-28.7,32.1c-0.6,0-0.3-0.3-0.2-0.7
			c-2.4,3.5-5.1,6.4-7.2,9.6c-1.2,0.5-2,0.4-2.6,0.3C681.3,1314.9,666.6,1331.4,666,1331.4z"/>
	</g>
	<g>
		<path class="st1" d="M885.3,1421.5c-1,0.3-1.3,0.9-1.7,1.4C884.7,1422.5,885.2,1422.1,885.3,1421.5z"/>
		<polygon class="st1" points="883.6,1422.9 883.6,1422.9 883.7,1422.9 		"/>
		<path class="st1" d="M931.3,1565.2c0-0.2,0-0.5,0-0.8C931.2,1564.6,931.1,1564.8,931.3,1565.2z"/>
		<path class="st1" d="M866.9,1444.6l2.3,0.4c-0.7,1-2.9-0.1-3.1,0.9c3.1,0.8-1.5,1.4,0,2c-0.3,0-0.7,0.4-1.8,0.2
			c1.8,0.4,0.1,0.5,0.4,0.8c0.5,0.2,0.6,0,1.3,0l0.2,0.7c-0.8,0.1-2,0-2-0.3c-2,1.6-11,7.9-11.6,9.4c1.9,0.3,1.3-0.5,4.2,0.1
			c1.1,0.8-1.1,0.4,0.3,1c-4.2-0.9-1.9,0.6-6.4-0.3l2.2,0.8l-1.7-0.2c0.6,2.3,0.8,0.7-1.5,1.9c-0.6,0.9,2.3,2.3,0.5,2.4
			c0.1-0.1,1.8,0.2,2.2,0.7c-2.2-0.7,0.9,1.1-1.4,0.5c0,0.3-1,0.9,2.3,1.6c-1.6-0.4-2.9,0-3.9-0.8c-0.3,0.2-1,0.2-0.5,0.6l1.2,0
			c-0.4,0.8-3.2,0.3-0.9,1.7l1.5,0.2c-0.3,0.5-0.4,0.9-3.7-0.1l-0.5-0.7c-0.7,0.6-1,1.1,0,2.2l0.3-0.2c2.2,1.8,0.7,6.4,4.2,8.9
			l2.9,0.8l1.6,1.6c0,0-2-1-3.9-2c-1.9-1-3.8-1.9-3.3-1.7c-1.2,1.2-6.2,7.9-9.5,7.6c-2.1-0.5-4.5-2.4-5-2.7c0.4,1,2.7,1.8,1.9,2
			c-0.7-0.2-2.2-1.3-2.5-1.6c0.1,0.3-1.1-0.1,0.2,0.7c1.3,0.4,4.7,2.5,7.1,3.7l-1,0.3l-2.2-1.3c-0.2,0,5.7,3.8,3.8,3.6
			c-2.1,0.2-2.6,1.5-4.3,2c-1.3-0.9-1.9-1.6-2.4-2.2c-0.2,0.1-0.1,0.4-1.2-0.1c2.7,1.4,1.1,1.3,2.3,1.8c4.7,4.2-1.5,1.5,1.5,4.5
			c2.5,1.8,23.8,17.1,45.3,32.5c21.6,15.9,43.4,32,46.3,34.2c-0.3,0.4-0.5,0.9-1.1,0.7c1.5,0.9,2.4,0.3,1.8-0.8l-3.2-2.4
			c-0.8-2,2,1.1,2.1-0.3c2.7,1.8,2.9,3.3,2.9,4.5c0.6-0.7,2.7-0.3,0-2.6c1.3-0.1,3.2,2.3,4.6,2.1c-0.6-1.3-2.9-4-1.1-3.8l0.5,0.3
			c3.2-0.3-3.1-5.7,0-5.8l0.8,0.8c1.7,0.3-0.1-2.3,1.8-2.5c-0.6,0-2.5-0.9-2.7-1.8c1.9-0.4,0.5-2.3,2.7-2l-2.3-2.4
			c1.6-4.6,1-24.5,0.8-29l0.3,0.3c-0.4-7.4,0.2-21.1-2.9-28.7c1.9-0.4,1.4-2,1.9-2.9c-0.8,0.4-2.2-0.2-2.1-0.7
			c0.1-3.2-1.3-0.6-2.3-4.1c-1.6-4.2-1-17.6-0.4-20.6c-2.5-2.1-1.2-3.9-2.9-5.8l0.5,0.2c-1-1.9-1.3-11.6-2.6-13.6l-0.2,0.2
			c-1.6-1.8,0.5-1.4,0.7-2.8c-2,0.1-3.5-1.5-3.8-2l0.4,0c-0.6-0.9-2.7-2.8-3.3-4.1l1,0.1c-1.4-1.2-1.5-3.2-1.9-4
			c0-1.8,0.4-4.7-1.5-7l1.7-1.6l-0.3-0.2c0,0-7-0.3-14.3-0.2c-7.4,0.1-15.2,0.7-18.7,2.2l-0.8,0l-0.1,0.5c-0.7,0.6,0.2,0.9-0.6,0.9
			l0.5-0.9c-0.5,0.6-0.8,0.2-1.1,0c-0.2,0.3-0.4,0.5-0.8,0.7c0.3,0.1,0.4-0.1,0.6-0.2c0.1,0.3,0.7,0.8,0.1,1.2
			c-0.4,0.6-1.4,0.1-1.8,0.8c-2.5,3.9-5.8,7.4-8,10.9c-0.5,0.1-0.4,0-0.6-0.2c-0.3,1.1-1,2-1.2,3c-0.7,0.2-1.5,0.2-2,0.3
			C871.1,1439.4,867.3,1444.6,866.9,1444.6z"/>
	</g>
	<g>
		<path class="st1" d="M1141.9,1477.2c-0.6,1.3-0.3,3-0.1,4.7C1142.3,1480.3,1142.3,1478.9,1141.9,1477.2z"/>
		<polygon class="st1" points="1141.7,1481.9 1141.8,1481.9 1141.8,1481.8 		"/>
		<path class="st1" d="M1222.6,1821.3c0.1-0.5,0.1-1.1,0.2-1.7C1222.6,1820.1,1222.5,1820.6,1222.6,1821.3z"/>
		<path class="st1" d="M1147.1,1559.5l2.3-0.2c0,3.7-2.7,1.6-2.2,4.9c3.4,0.8-0.4,5.8,1.4,6.7c-0.3,0-0.4,1.7-1.5,1.8
			c1.9,0.2,0.4,1.7,0.9,2.6c0.5,0.3,0.6-0.4,1.2-0.7l0.6,2.3c-0.7,1-1.9,1.4-2,0.4c-0.6,3.2-1.5,12.5-3.1,21.6
			c-1.5,9.2-2.9,18.2-3,21.5c1.9-0.9,1.1-2.9,4-3.8c1.3,1.7-0.9,2.6,0.6,3.3c-4.3,0.8-1.6,3.9-6.1,5.3l2.4,0.5l-1.6,0.9
			c1.3,7.6,1.1,1.8-0.9,8.5c-0.5,3.9,2.8,5.8,1,8c0.1-0.3,1.9-1.1,2.3-0.1c-2.3,0.1,1.1,2.8-1.3,3.2c0.1,1-0.8,4.2,2.6,3.3
			c-1.6,0.5-3,3.3-4,1.5c-0.3,1-1,1.8-0.5,2.6l1.2-1.2c-0.3,3.3-3.3,4.8-0.8,7.2l1.6-1.1c-0.2,2-0.4,3.6-3.9,4.1l-0.5-2
			c-0.7,3.2-1,5.1,0.2,7.9l0.3-0.9c2.4,3.7,0.6,21.7,4,25.5l3.2-1l1.6,3.1c0.1-0.3-8.7-2.8-7.7-2.9c-1.4,5.8-9,35.4-13.7,39.6
			c-2.6,1.5-5.1-1-5.5-1.1c0.1,2.7,2.8,1.9,1.7,3.9c-0.8,0.4-2.4-0.8-2.7-1.2c0,1-1.5,1.5,0,2c1.6-0.8,5.3,0.8,8,1l-1.5,2.6
			l-2.4-0.8c-0.4,0.6,6.1,3.5,3.6,5.8c-3.1,4.1-4.5,9.1-7.1,13.3c-1.5-0.6-2-1.8-2.4-3c-0.4,0.6-0.4,1.6-1.7,1.7
			c3.2-0.1,0.9,2.4,2.5,2c4.7,5.4-3.3,7.4-0.4,11.8c2.8,1.2,26.4,12.2,50.5,23.9c24,11.6,48.5,23.9,51.9,25.3
			c-0.4,1.2-0.9,2.4-1.5,2.5c1.7,0.4,3.1-1.8,2.5-3.5l-3.6-1.7c-0.5-3.5,2.3,0.2,2.8-2.8c3,1,3,4,2.7,6.5c0.9-2,3.6-3.3,0.5-5.4
			c1.7-1.5,3.6,1.7,5.4-0.3c-0.5-2.1-2.8-5.5-0.6-6.8l0.5,0.2c4.1-3.7-2.7-9,1.1-12.3l0.9,0.8c2-1,0.3-4.9,2.6-7.1
			c-0.7,0.6-2.9,0.6-3-1.2c2.4-2.6,1-5.4,3.7-7.1l-2.4-3.1c1.2-5.5,2.5-19.7,2.8-33.8c0.5-14.1,0.1-28,0-33.5l0.4,0.5
			c-0.3-17.2-1.2-51.6-6.4-68.5c1.8-2.6,0.9-6.2,1.2-8.9c-0.7,1.5-2.2,1-2.2-0.2c-0.9-8.3-1.5-0.6-3.4-8.9
			c-2.4-9.6-7.5-45.6-8.7-53.9c-3.3-4.1-3.3-9.8-5.9-13.8l0.6,0.3c-1.8-4.5-8.4-30.4-11.2-35.3l0,0.8c-2.9-4.2-0.7-4.1-1.5-7.7
			c-1.8,1-4.4-2.5-5.1-3.9l0.4-0.1c-1.2-2.1-4.6-6.6-6.4-10l1-0.2c-2.3-2.6-4.3-8.3-5.3-10.3c-1.5-5-4-12.7-8.2-18.5l0.1-4.9
			l-0.5-0.5c0,0-7.1,0.9-14.1,3c-7.1,2.2-14.2,5.6-16,10.9l-0.8,0.2l0.5,1.6c0.1,2.1,1.2,2.7,0.4,2.9l-0.5-2.8
			c0.2,2.1-0.5,0.8-1.1,0.2c0.1,0.9,0.2,1.7,0.1,2.5c0.4,0.3,0.3-0.4,0.4-0.8c0.5,1,1.6,2.2,1.5,3.6c0.4,2.1-1.3,0.6-0.8,3
			c1.9,12.8,2.4,25.3,3.6,37.9c-0.4,0.4-0.4,0.1-0.7-0.3c0.7,3.7,1,7.1,1.6,10.5c-0.5,1.1-1.2,1.5-1.6,1.9c0.5-0.4,0.9,4.4,1.2,9.2
			C1147.4,1554.3,1147.3,1559.3,1147.1,1559.5z"/>
	</g>
	<g>
		<path class="st1" d="M1324.4,1396c-0.4,1-0.2,1.5-0.1,2.1C1324.7,1397.1,1324.7,1396.4,1324.4,1396z"/>
		<polygon class="st1" points="1324.3,1398.1 1324.3,1398.1 1324.3,1398.1 		"/>
		<path class="st1" d="M1458,1438.6c-0.2-0.1-0.4-0.3-0.6-0.5C1457.5,1438.3,1457.6,1438.5,1458,1438.6z"/>
		<path class="st1" d="M1328.6,1422.4l1.7-1.6c0.2,1-1.9,2.2-1.3,2.8c2.5-2,0,1.9,1.3,0.9c-0.2,0.2-0.2,0.7-1,1.5
			c1.4-1.2,0.4,0.2,0.8,0.1c0.4-0.3,0.4-0.5,0.8-1l0.6,0.2c-0.4,0.7-1.3,1.6-1.5,1.4c-0.1,2.3-1.7,12.2-1.1,13.4
			c1.4-1.3,0.5-1.2,2.7-3.1c1.3-0.5-0.4,1.1,0.9,0.3c-3.4,2.7-0.8,1.7-4.3,4.6l2-1.3l-1.2,1.1c1.9,0.6,1-0.3,0.4,2
			c0.2,0.9,3.1-0.6,2,0.7c0-0.1,1.4-1.2,1.9-1.3c-1.9,1.3,1.3-0.2-0.6,1.3c0.2,0.1-0.1,1.1,2.6-0.9c-1.3,1-1.9,2.2-3.1,2.5
			c-0.1,0.3-0.5,0.8,0,0.6l0.8-0.8c0.3,0.6-1.9,2.5,0.6,1.5l1.1-1c0.1,0.4,0.3,0.7-2.5,2.7l-0.8,0c0,0.8,0.1,1.2,1.6,1l0.1-0.3
			c2.7-0.8,5,2.5,9,1.2l2.5-1.7l2.1-0.4c0,0-8.2,3.9-7.3,3.4c0.1,1.5,1.6,8.2-0.8,10.3c-1.8,1.2-4.7,2-5.2,2.2
			c0.9,0.2,3.1-1,2.7-0.4c-0.6,0.4-2.4,0.9-2.8,1c0.3,0.1-0.8,0.7,0.6,0.2c1.2-0.7,4.9-2.1,7.3-3.2l-0.4,0.8l-2.4,0.9
			c-0.1,0.2,6.5-2.1,5.1-0.9c-1.2,1.6-0.6,2.5-1.4,3.9c-1.5,0.5-2.4,0.6-3.2,0.6c-0.1,0.2,0.2,0.3-0.9,0.8c2.8-1.2,1.7-0.1,2.9-0.7
			c6.1-1.2,0.1,1.8,4.3,1.1c2.9-0.8,28.2-8,53.6-15.2c25.9-6.9,52-13.9,55.6-14.9c0.2,0.4,0.3,0.9-0.2,1.2c1.6-0.6,1.8-1.6,0.6-1.8
			l-3.8,1c-2-0.6,2.1-0.9,1.1-1.8c3-1,4.3-0.3,5.2,0.4c-0.2-0.8,1.6-2.2-2-1.5c0.8-1,3.8-1,4.5-2.2c-1.3-0.3-4.9-0.1-3.6-1.3
			l0.5-0.2c1.8-2.6-6.3-0.9-4.4-3.3l1.1-0.2c1.3-1.1-1.8-1.2-0.7-2.7c-0.4,0.5-2.3,1.4-3,1c1-1.6-1.4-1.7,0.2-3.2l-3.3,0.3
			c-2.4-3.8-17.8-14.4-21.3-16.7l0.5-0.1c-5.7-3.8-15.6-11.8-23.1-13.5c0.9-1.7-0.6-2.2-0.9-3.1c-0.2,0.8-1.5,1.5-1.8,1.2
			c-2.3-1.8-1.3,0.7-4.4-0.5c-4.1-1-13.5-8.8-15.2-10.9c-3.1,0.8-3.6-1.2-6-0.9l0.5-0.3c-2-0.3-9.1-5.3-11.4-5.3l0.1,0.3
			c-2.3,0.3-0.7-1.1-1.6-2c-1.2,1.6-3.2,1.9-3.8,1.9l0.3-0.3c-1,0-3.6,0.6-5,0.3l0.7-0.8c-1.7,0.5-3.2-0.6-4-0.7
			c-1.3-0.9-3-2.9-5.9-2.6l-0.1-2.3l-0.3,0.1c0,0-4.5,5.4-8.8,11.3c-4.4,5.9-8.7,12.5-9.9,16.1l-0.5,0.6l0.3,0.4
			c0,0.9,0.7,0.3,0.2,1l-0.3-0.8c0.1,0.7-0.3,0.7-0.7,0.9c0.1,0.3,0.1,0.6,0,1c0.2-0.1,0.2-0.4,0.2-0.6c0.3,0.1,1-0.2,0.9,0.5
			c0.2,0.6-0.8,1.1-0.6,1.9c1.1,4,1.4,8.5,2.4,12c-0.3,0.4-0.3,0.3-0.5,0.4c0.6,0.8,0.7,1.8,1.3,2.5c-0.3,0.7-0.8,1.3-1.1,1.7
			C1327.7,1416.6,1328.8,1422.1,1328.6,1422.4z"/>
	</g>
	<g>
		<path class="st1" d="M1403.9,1244c0.7,1.4,2.6,2.7,4.3,3.9C1407.2,1246.3,1405.9,1245.1,1403.9,1244z"/>
		<polygon class="st1" points="1408.2,1247.9 1408.2,1247.9 1408.2,1247.9 		"/>
		<path class="st1" d="M1747,1502.7c-0.2-0.6-0.4-1.4-0.6-2.1C1746.4,1501.3,1746.5,1502.1,1747,1502.7z"/>
		<path class="st1" d="M1488.3,1306l1.4-1.9c3.8,2.8-0.3,3.2,3.5,5.3c3.1-2,5.4,4.8,7.5,4.1c-0.2,0.2,1.4,1.6,0.7,2.5
			c1.5-1.2,1.9,1,3.2,1.4c0.7-0.2,0-0.7,0.1-1.5l2.7,1.3c0.6,1.3,0.2,2.5-0.9,1.8c2.8,2.9,11.2,10.7,18.9,19
			c7.9,8.1,15.1,16.4,18.1,18.9c0.5-2.2-1.9-3.1-0.8-6c2.4,0.4,1.8,2.8,3.4,2.2c-2.1,3.9,2.5,4.2,0.7,8.7l2-1.4l-0.3,1.9
			c7.6,5.1,2.2,0.7,6.9,7.4c3.2,3.3,7,2.5,7.6,5.5c-0.2-0.3,0.3-2.3,1.5-1.8c-1.5,1.8,3.1,1.4,1.8,3.5c0.9,0.7,3,4,4.5,0.8
			c-0.8,1.6,0.8,4.8-1.4,4.1c0.6,1,0.8,2.2,1.8,2.4l-0.1-1.8c2.5,2.9,1.7,6.3,5.3,6.4l0.2-2c1.4,1.8,2.7,3.2,0.6,6.1l-2-1.3
			c2.2,3,3.3,4.9,6.3,6.5l-0.5-1c4.9,1.2,16.9,17.7,22.1,18.9l1.7-3l3.4,1.7c-0.2-0.4-8.6,3.4-7.9,2.6c1.6,2.9,6.2,12.3,9.8,22
			c3.6,9.7,6.1,19.6,5.7,22.9c-1.1,3-4.7,2.1-5.2,2.2c1.7,2.5,3.5,0.2,3.7,2.7c-0.4,0.9-2.4,0.6-2.9,0.4c0.5,1-0.4,2.3,1.1,1.9
			c0.9-1.7,4.8-2.3,7.2-3.7l0.3,3.4l-2.5,0.6c0.1,0.7,7.1-0.2,6.3,3.5c-0.1,5.7,1.5,11.4,1.4,17.1c-1.6,0.2-2.6-0.7-3.7-1.7
			c0,0.7,0.5,1.8-0.6,2.6c2.7-1.9,2.1,1.9,3.2,0.7c6.8,2.9,1.2,9.1,5.7,12c3-0.2,29.2-1.7,55.9-2.2c26.7-0.6,54.1-0.4,57.7-0.7
			c0.2,1.7,0.4,3.4-0.1,3.9c1.7-0.6,1.8-3.9,0.5-5.6l-4,0.1c-2.1-3.8,2.1-1.2,1.1-5c3.1-0.6,4.6,3,5.5,6.1c-0.2-2.9,1.5-6-2.2-6.8
			c0.7-2.8,4-0.1,4.6-3.6c-1.5-2.2-5.3-4.8-4.1-7.7l0.6,0c1.4-6.9-7.2-9-5.9-15.2l1.2,0.4c1.1-2.4-2.5-5.9-1.9-9.9
			c-0.2,1.2-2.1,2.5-3.2,0.5c0.4-4.6-2.4-6.9-1.3-10.5l-3.9-2.1c-2.3-7.1-10.4-24.1-20.1-39.7c-9.6-15.7-20.8-30-25.3-35.8l0.7,0.3
			c-7-8.7-17.9-21.8-30.1-33.2c-5.8-6-12.4-11.1-18.1-16c-6-4.6-11.6-8.5-16.3-11.4c-1.2-3.5-5.3-5.9-7.6-8.4c1,1.8-0.5,2.4-1.6,1.5
			c-8.3-6.4-1.4,0.4-10.6-4.9c-5.5-2.8-17.4-10.9-29.2-18.3c-11.8-7.5-23.6-14.2-27.8-17.2c-6.2-0.4-11.4-4.9-17-5.9l0.8-0.2
			c-5.6-1.8-34.2-16.2-40.6-17.7l0.7,0.6c-5.8-1.1-4.2-2.6-8.1-4.7c-0.4,2-5.4,1.3-7.2,0.8l0.3-0.4c-2.8-0.7-9.3-1.5-13.7-2.9
			l0.6-0.8c-4-0.4-10.5-3.3-13.1-4.2c-5.7-2.5-14.1-7.2-22.4-8.9l-4.1-3.9l-0.8-0.1c0,0-4.9,5.4-8.7,11.7
			c-3.8,6.4-6.6,13.7-3.2,19.2l-0.5,0.6l1.9,1c2,1.7,3.5,1.5,3,2.1l-3-1.9c2.1,1.6,0.4,1-0.7,0.9c0.9,0.6,1.7,1.3,2.4,2
			c0.6,0-0.2-0.5-0.4-0.9c1.3,0.5,3.3,0.8,4.6,2c2.2,1.5-0.4,1.3,2.2,3.1c13.6,9.3,26.2,19,39.7,27.9c0.1,0.6-0.3,0.4-0.7,0.3
			c4.2,2.4,7.7,5,11.5,7.1c0.8,1.2,0.7,2,0.8,2.7C1468.2,1290.7,1488.3,1305.5,1488.3,1306z"/>
	</g>
</g>
</svg>
