<?xml version="1.0" encoding="utf-8"?>
<!-- Generator: Adobe Illustrator 25.2.1, SVG Export Plug-In . SVG Version: 6.00 Build 0)  -->
<svg version="1.1" id="Layer_1" xmlns="http://www.w3.org/2000/svg" xmlns:xlink="http://www.w3.org/1999/xlink" x="0px" y="0px"
	 viewBox="0 0 2127 2109" style="enable-background:new 0 0 2127 2109;" xml:space="preserve">
<style type="text/css">
	.st0{fill-rule:evenodd;clip-rule:evenodd;fill:#F9F9F9;}
	.st1{fill:#F9F9F9;}
</style>
<g>
	<g>
		<path class="st0" d="M1028.5,707.9c1.2-0.4,3.2-0.8,5.6-1.2C1033.6,707.2,1030.5,708,1028.5,707.9z"/>
		<path class="st0" d="M1111.3,752.8c1.5,0,6.2,0.1,5.7,0.8C1114.3,753.4,1113.2,753.1,1111.3,752.8z"/>
		<path class="st0" d="M1119.2,754.7c0.4-0.3,4,0.3,5.7,0.5C1124.8,755.7,1120.2,755.1,1119.2,754.7z"/>
		<path class="st0" d="M1143.2,751.1c1.2,0,4.4,0.4,5.8,1.1C1148.5,752.4,1145,751.3,1143.2,751.1z"/>
		<path class="st0" d="M1151.9,760.9c2,0.1,5.2,0.8,9.6,2C1159.8,763,1155.3,761.7,1151.9,760.9z"/>
		<path class="st0" d="M1191.9,733.1c5.4,1.8,16.5,5.6,19.8,8.2C1205.5,737.9,1197.8,735.7,1191.9,733.1z"/>
		<path class="st0" d="M1199.5,754.1c6.6,1.6,17,7.9,24.7,11.5c0.7,1.2-11.2-5.8-13.7-6.2c-1.6-0.9-3-1.7-4.6-2.5
			C1203.8,755.9,1201.6,755.6,1199.5,754.1z"/>
		<path class="st0" d="M1266.9,799.7c0.2-0.5,0.8-0.3,2.4,1.3c0.4,0.6,0.4,0.9,0.1,1L1266.9,799.7z"/>
		<path class="st0" d="M1295,819.9c4.3,3.5,12,13.5,15.5,19.5c0.6,0.7,0.9,0.6,1.8,2.1c2.4,3.4,7.2,11.3,2.3,3.8
			c-3.2-4.5-6.1-8.6-9.2-12.6C1302.5,828.5,1299.1,824.4,1295,819.9z"/>
		<path class="st0" d="M1291,828.7c1,0.8,2.5,2.3,4.1,4.5C1294.4,832.9,1291.4,829.6,1291,828.7z"/>
		<path class="st0" d="M1314.2,821c0.9,0.6,3.6,4.7,5.2,6.7C1318.1,826.3,1315.2,822.9,1314.2,821z"/>
		<path class="st0" d="M1297.3,831.8c1.6,1.4,4.4,5.4,6.3,7.3C1304.5,841.4,1299.4,834.4,1297.3,831.8z"/>
		<path class="st0" d="M1297.8,836.5c1.4,1.1,4.4,5.1,6.5,8.1C1302.8,843,1299.9,839.1,1297.8,836.5z"/>
		<path class="st0" d="M1323,825.8c0.7-0.1,2.9,3,4.4,5.2C1326.7,830.8,1324.6,827.5,1323,825.8z"/>
		<path class="st0" d="M1322,831.6c2,2.3,8,11,10.4,15.7C1328.4,841.3,1325.9,837.5,1322,831.6z"/>
		<path class="st0" d="M1305.2,846c3.1,3.3,6.3,8.9,8,12.3C1310.9,854.9,1308.2,849.7,1305.2,846z"/>
		<path class="st0" d="M1318.5,851.3c1.1,1.3,2.7,3.9,4,6C1322.1,858.1,1320,853.8,1318.5,851.3z"/>
		<path class="st0" d="M1320.8,858.9c1.4,1.6,2.2,3.3,3.6,6.1C1323.8,864.5,1321.9,860.7,1320.8,858.9z"/>
		<path class="st0" d="M1322.7,866.6c0.8,0.7,3.9,6.5,2.4,5.6c-0.9-1.6-0.5-1.6-0.3-1.7C1323.9,868.5,1323.6,868.8,1322.7,866.6z"/>
		<path class="st0" d="M1342.9,877.9C1340.4,874,1338.3,866.3,1342.9,877.9L1342.9,877.9z"/>
		<path class="st0" d="M1352.8,885.1c1.6,3.6,2.8,7.3,4.2,11.7C1355.8,894.1,1353.3,887,1352.8,885.1z"/>
		<path class="st0" d="M1354.8,887.6c0.1-1.5,2.6,5.8,1.6,4.5L1354.8,887.6z"/>
		<path class="st0" d="M1366.6,893.3c0.9,1.2,1.8,4.2,2.3,6.7C1368.3,899.3,1366.8,894.4,1366.6,893.3z"/>
		<path class="st0" d="M1372.7,920.4C1375.1,928.5,1374.9,931.5,1372.7,920.4L1372.7,920.4z"/>
		<path class="st0" d="M1247.2,745.6c1.5,0.6,3.5,1.7,4.6,2.1c2.1,2.3,7.1,4.8,10.3,7.4C1257.5,752.9,1253.7,748.9,1247.2,745.6z"/>
		<path class="st0" d="M1315.3,827.8c1.4,1.8,0.9,1.8,2.6,3.8c-0.1,0.3-0.8-0.6-1-0.5c2.7,3.9,4.1,5.9,6.4,9.1
			c-0.4-0.4-0.8-0.7-1-0.6c3.8,3.8,5.6,9.8,11.4,19c-5.7-8.8-17.7-28.4-23.7-35.3c1.4,0.7,5.6,7.4,6.8,7.7
			C1317.3,831,1313.7,827,1315.3,827.8z"/>
		<path class="st0" d="M1307.3,845c0.6,0.8,0.4,0.3,0.2-0.1c0.5,0,2.2,3.2,2.4,3.6C1308.8,847.9,1302.7,838.2,1307.3,845z"/>
		<path class="st0" d="M1337.7,902l-0.7,0.1c1.8,5.3,4.2,13.9,4.5,17.7c-1.9-6.3-4.8-20.1-7.6-24.1c-0.4-1.4-0.7-2.8-1.1-4.2
			c-6.6-13.9-13.2-29.2-22.5-42.3c5.8,4.9,11.3,20.4,16.5,26.9c0.5,1.2-0.2,0.1-0.6-0.7C1329.4,881.8,1333.8,893.7,1337.7,902z"/>
		<path class="st0" d="M1356.8,889.1c0.8,1.3,1.8,3.9,2.6,5.4C1359.6,895.3,1357,891.1,1356.8,889.1z"/>
		<path class="st0" d="M1403.7,1238.9c2-3.8,3-8.6,4.7-12.8c4-9.8,8.1-18.4,10.8-28.8c1.3-4.6,2.4-9,3.4-13.5
			c0.8-4.6,1.6-9.2,2.7-14c1.5-7.1,2-9.4,2.6-14.3c1.7-14.1,4-25.6,2.5-31.9c0-5.5-0.1-10.8-0.1-16c0-5.4-0.6-10.7-1.1-15.1
			c-0.2-1.4,0-4.3-0.1-4.8c-2.8-22-8.7-34.9-14.5-59.4c-1.5-2-3.3-3.1-5.5-7c-1-1.7-2.3-5.8-3.2-7c-3.3-4.4-5,0.5-8.6-8
			c-0.6-0.4-0.4,1.3-0.7,1.9c-4.3,0.9-7,5.3-10.8,4c-0.6,6.4-3.1,5.7-3.9,10.6c-0.5,3.1-0.3,8.7-0.7,12.4c-0.7,4.3-1,8.8-1.8,12.4
			c-1.3,0.2-0.8,5.3-1.8,6.5c0.2,6.3-1.1,11.2-1.3,17.6c-0.4,0.6-0.6,2.2-1.1,2.3c-0.4,6.7-2.2,13.4-3.2,20.6
			c-0.9,7.2-2.8,14.9-4,23.8c-0.3,1.6-0.5,5-0.9,7c-1.2,6.6-2.4,14.9-4.3,22.4c-2.1,7.4-4.3,13.9-5.9,17.1c-0.7,2.3-0.4,2.3-1.2,4.6
			c-1.3,1.2-4.9,7.4-6.7,13.2c-0.5,2-0.7,5.8-2.3,10.1c-2.4,6.4-5.7,12-8.4,17.6c-1.1,2.6-1.5,5.7-2.6,8.5
			c-2.4,7.4-11.1,20.5-14.4,26c-3,4.1-4.8,5.2-6.8,8.5c-1.8,3-2.5,5.7-1.2,6.2c-1.4,5.2-7.1,12.2-13,19.8
			c-6.2,7.4-13.5,14.7-18.4,20.7c-4.5,3.5-8.5,7.3-12.3,11.3c-3.8,4-8.1,7.3-12.3,10.7c-1.7,1.3-4,2.6-5.7,4
			c-2.7,2.1-7,5.3-10.7,8.1c-6.5,5-12.9,8.4-18.6,12c-9.8,3.8-16.1,8.3-24.1,12c-3,1.4-6.2,2-9.7,3.3c-2.9,1.1-5.6,2.6-8.8,3.7
			c-3.2,1.2-6.7,1.9-9.9,2.7c-2.4,0.7-4.1,1.5-6.1,2c-2.6,0.7-4.3,0.7-6.9,1.6c-2.8,1-5.5,2.3-8.4,2.9c-5.4,1.1-10.9,2.3-16.3,3.5
			c-5.5,0.9-10.9,1.7-15.9,3.1c-18.5,1.2-34.7,3.6-56.7,1.4c-5.5-0.1-9.5-0.1-15.2-0.9c-1.3,0-1.3,0.5-3.3,0.2
			c-11.3-2.1-23.5-2.3-34.8-5.8c-0.5,0.1-1,0.2-1.8,0.1c-8-1.9-16.5-5.4-25-7.7c-8.3-2.8-16-5.8-22.2-7.5c-8.5-5.1-19.7-8.5-30-14.8
			c-4.9-2.9-9.7-5.8-14.1-8.8c-4.4-2.8-9.5-6.2-14.4-9.6c-4.7-3.8-9.3-7.6-13.3-10.6c-2.5-1.8-5-3.3-7.2-5.3
			c-4-3.6-7.9-7.8-12.3-11.5c-16.3-15-31.6-35.5-42.2-51.8c-3.2-4.8-6.2-9.5-9.9-14.9c-3.2-4.6-5.4-9.9-7.9-15
			c-2.4-5.2-5-10.3-7.1-15.4c-1.2-2.4-2.5-5.1-3.6-7.3c-3-6.1-4.7-12.3-7-19c-6-16.3-10.8-33.1-13-49.3c-4.8-20.3-6.6-50.9-4.8-74.9
			c-0.4-5.5,0.9-10.5,1.3-16.1c2-17.1,5.4-39.2,12.3-56.1c22-73.7,76.7-139.6,140.9-180.8c5.3-2.9,13.4-7.3,17.8-10.3
			c1.2-0.1,4.3-1.8,6.7-3c8.3-4.8,19.4-9.6,30.7-13.6c2.5-2,9.5-4,13.7-6.1c2.1,0-2.4,1.3,0.9,0.6c6.8-4.7,32.9-10.1,44.7-12.1
			c-0.8,0.1-1-0.1,0-0.4c2.9,0,4.1-1.2,7.4-1.5c21.5-2.9,37-5.3,55.7-5.1c2.3,0.5,8.5,1.6,10.7,1.2c-3.3-0.5-7.6-0.6-7.3-1.5
			c5.6,0.5,12.9,1.1,16.8,0.8c6.9,0.8,10.3,1.9,16.6,2.3c1.5,0.3-1.3-1.2,1.9-0.5c9.5,2.3,14.4,2.8,22.7,5.5
			c2.7-0.1,12.6,2.8,15.4,4.2c2.8,0.7-2.7-1.7-0.4-1.1c7.5,2.5,14.6,4.8,21,8.4c1.8,0.4,3.2,0.3,5.9,1.6c1.8,0.9-0.9,0.5,1.9,1.6
			c2.7,0.9-1.6-1.7-0.7-1.9c3.7,1.6,3.2,0.8,5.2,1.3c4.8,2.9,8.6,4,13.1,6.3c4.8,2.3,9.4,5.9,13.8,8.5c3.8,2.2,5.6,2.9,9.5,5.9
			c3.2,2.4,5.5,4.9,8.9,7.8c1.9,1.4-0.8-1.5,1.8,0.6c12.1,9.9,23.3,21,31.4,29.4c-12.6-12.7-20.8-22.9-33.8-31.8
			c-1.3-2.2-5.7-4-7-6.2c-1.1-0.3,1.6,2.1-1.2,0c-0.9-0.7-1.1-1.2-2.6-2.2c2.3,0.6-0.3-1.4-1-2.7c-11-7.6-20.1-12.8-30.4-18
			c-2-0.8,1.1,1.1-1.2,0.2c-4-1.8-6.8-3.6-11.7-5.3c-1.1-1.3-4.2-3-2.1-3.1c14.3,6.1,33.7,15.3,48.8,26.4c4.6,3.3,8.8,7.4,12,8.8
			c-6.6-5.2-11.4-10.1-17.3-14.4c-7.8-5.5-17-9.8-25-14.4c-2.3-1.2-3.1-2-5.2-3.1c-1.7-0.8-4.6-1.9-6.5-2.7c-2-0.9-2-1.3-3.8-2.1
			c-3.7-1.5-6.6-2.4-10.7-3.8c-6.8-2.7-13.4-5.7-21.2-7.8c-1.3-0.7-0.5-1.3,1.3-0.9c9.1,2.9,10.7,3.4,19.9,6.8
			c-1-0.5-1.6-0.8-1.4-1.1c2.8,1.1,3.7,1.7,5.8,2.1c-6.8-2.6-5.7-3.6-3.1-3.3c17,6.7,37.1,16.9,49.2,25.9c1.6,0.6,2.8,0.8,5.1,2.2
			c14.2,9.4,28.4,22.2,41,35.3c-13.4-15.9-30.5-29.9-51.1-42.5c-0.7-0.6,0.2-0.7-1.9-1.8c-9.1-5-19.6-10.7-26.9-13.9
			c-2.8-2.1-5.7-4.2-8.6-6.3c-23.8-9.1-41.1-16.8-65.5-20.8c0.2-0.5-1.7-1-2.4-1.5c2-0.1,3.4-0.5,5.8-0.5c4,0.5,8.2,1.1,11.6,2.2
			c20.9,2.5,49.2,12.6,72.8,24.1c3.3,0.7,1.3-1.1-0.3-2.7c-11.1-6.4-22.4-9.6-34.6-15.2c-3.9-3.5,1.4-3.3,11.3,0.4
			c8.2,3,19.1,7.9,29,13.2c9.8,5.3,18.6,10.9,23.2,14.3c21.8,13.7,41.2,30.9,57.9,50.7c16.9,19.7,30.8,42.1,41.5,66.7
			c-11-27.8-27.2-50.3-43.8-70.7c-0.2,0.3-1-0.3-2.3-1.9c-17-19.6-39.5-38-59.1-49.5c-7.4-6.2-24.3-13.8-32.6-18.6
			c3.1-1,10.6,1.7,19.9,6c-4.6-2.3-9-4.7-13.2-7c-4.3-2.1-8.5-4.1-12.3-5.9c-6.5-2.8-18.2-6.5-21.5-7.9c-0.8-0.4,0.9-0.2-0.7-0.8
			c2.8,0.9-5-1.5-5.5-1.6c-3.7-0.9-3.1-0.6-7.4-1.8c-5.6-1.6-5.5-1.6-9-2.9c-19.6-5.1-39.1-7.2-59-8.6c-2.1-0.2-6.3-0.4-6.6-0.3
			c-1.9-0.2-0.3-0.5-2.8-0.6c-1.4-0.1-0.8,0.4-2.9,0.3c-7.8-0.4-16.7-0.2-24.5,0.1c-19.5,1.1-42.4,4-57.8,7.8
			c-3.5,0.6,0.9-1-3.7,0.1c-26.8,5.9-54.4,15.7-80.8,28.7c-2,1-0.8-0.5-3.6,1.1c-3.6,1.8-2.4,2.1-5.6,3.8c-2.1,0.9-4,1.6-5.3,1.9
			c-29.7,16-57.2,37.8-81.5,62.4c-22.7,22.9-42.6,48.6-58.4,74.8c-12.8,20.5-21.4,42.1-30,61.9c-9.5,27.5-15.5,52-19.3,79
			c-2.3,19.5-3.8,41.2-2.6,57.7c0.2,2.8,0.8,6.2,1,9.5c0.3,5-0.2,10.1,0.6,15c0.8,6.7,1.8,13.4,2.9,20.1c1.4,6.7,2.8,13.3,4.2,19.8
			c1.2,7.4,3.5,14.4,5.3,21.5c1.7,7.1,3.9,14.1,6.4,21c2.6,7.9,5.8,15.2,9.2,22.7c2.2,5,3.9,10.5,6.3,15.6c3.7,7,7.4,14.1,11.1,21.1
			c4.1,6.8,8.1,13.4,12,19.8c5.2,8.5,11,16.9,16.8,25.4c6.4,8,12.5,16.3,19.7,23.5c14.4,17.4,35.1,35.7,52.5,48.6
			c6.7,5.7,14.3,10.6,22.1,15.7c8.2,4.5,16.5,9.1,25.3,13.9c1.9,0.9,3,1.8,4.9,2.7c26.7,14.5,59.4,23,83,28.4
			c9.1,1.3,16.6,3.1,25,4.6c9,1.8,17.6,1.6,26.3,2.3c2.9,0.2,5.5,0.7,8.4,1c8.9,0.3,17.6-0.3,27.4-0.4c7.3-0.5,14.8-0.7,22.7-1
			c7.8-0.4,15.9-1.6,24.1-3.1c12.9-1.4,32-4.6,46.1-9.9c24.6-5.8,48-16.9,70.9-29.2c3.8-1.9,7.7-3.9,11.5-5.8
			c3.6-2.2,7.2-4.5,10.7-7.3c4.1-2.2,8.5-4.8,12.7-8c4.2-3.3,8.5-6.8,13-10.3c9-6.6,17.4-14.6,26.2-22.2c5.7-6.1,12-12.8,18-19.3
			c5.5-6.8,10.8-13,15.5-17.3c6.8-2.1,8-14.8,16-25.1c4.2-5.6,4.7-4.2,7.4-6.1c3.6-5.1,6.3-10.4,9-15.9
			C1395.7,1251.4,1399.6,1247.5,1403.7,1238.9z M1181.1,755.6c-0.2,0.1,0,0.3,0.6,0.6C1179.8,756.4,1176.4,754,1181.1,755.6z
			 M1182.9,756c6.7,2.3,16.2,5.4,20.6,8.2c1.3,0.6-0.7-1.4,1.4-0.7c2.6,1.6,5.6,3.6,10.2,6c-0.4,1.4-9.2-4-10.1-3.1
			c-3.6-1.7-5.3-2.5-7.2-2.6c-7.2-3.8-9.3-3.3-14.9-6C1184.7,757.5,1182.1,756.7,1182.9,756z"/>
	</g>
	<g>
		<path class="st1" d="M1074,608c0.4-1.6-0.2-3.6-0.7-5.5C1073,604.4,1073.2,606.1,1074,608z"/>
		<polygon class="st1" points="1073.3,602.5 1073.3,602.5 1073.3,602.5 		"/>
		<path class="st1" d="M1073.4,185c-0.4,0.5-0.9,1.2-1.4,1.8C1072.6,186.4,1073.1,185.8,1073.4,185z"/>
		<path class="st1" d="M1061.7,511.9l-2.6,0.1c0-4.4,3.1-1.7,2.5-5.6c-3.9-1.1,0.8-6.7-1.2-7.8c0.3,0,0.6-2,1.8-2
			c-2.1-0.4-0.4-1.9-0.9-3.1c-0.6-0.4-0.7,0.4-1.4,0.8l-0.5-2.8c0.8-1.2,2.2-1.5,2.3-0.3c0.8-3.7,2.6-14.3,5.4-24.5
			c2.5-10.3,6-20,6.4-23.7c-2.3,0.7-1.6,3.1-5,3.6c-1.2-2.2,1.5-2.8-0.2-3.9c4.9-0.1,2.4-4.1,7.8-4.8l-2.5-1l2-0.7
			c0.1-8.6-0.9-2.2,2.6-9.2c1.3-4.2-2-7.1,0.5-9c-0.2,0.3-2.3,0.8-2.6-0.4c2.6,0.4-0.6-3.3,2.2-3.2c0.1-1.1,1.9-4.4-2.1-4.2
			c1.9-0.1,4.1-2.9,4.8-0.7c0.6-1,1.6-1.8,1.2-2.7l-1.6,1c1.1-3.5,4.8-4.5,2.6-7.7l-2,0.8c0.7-2.1,1.4-3.9,5.4-3.4l0,2.4
			c1.7-3.3,2.6-5.2,2.1-8.6l-0.6,0.9c-1.8-4.8,6-23.8,3.7-29.1l-3.8,0l-0.6-3.9c-0.2,0.3,8.5,6,7.4,5.8c1.8-2.9,7.1-11.9,13.5-20
			c6.2-8.3,13.4-15.6,16.5-17c3.3-0.5,4.9,3.2,5.3,3.6c1.1-2.8-2.1-3.3,0-4.8c1,0,2.1,1.9,2.3,2.5c0.5-1,2.2-0.9,0.9-2
			c-2.1,0.1-5.2-3.2-7.9-4.6l2.7-2l2.1,1.9c0.6-0.4-4.8-6.4-1.2-7.6c5.1-2.8,8.8-7.5,13.6-10.3c1.2,1.3,1.1,2.8,1,4.3
			c0.6-0.4,1.2-1.4,2.6-0.9c-3.3-1.5,0.3-2.9-1.5-3.3c-2.1-7.9,6.9-5.9,6.2-11.8c-2.2-2.7-20.4-25.9-38.3-50.4
			c-17.9-24.8-35.8-49.7-38.3-53.1c1.3-1.1,2.6-2.3,3.4-2.1c-1.6-1.2-4.5,0.5-5,2.7l2.7,3.6c-1.8,4.2-2.4-1.3-4.9,1.8
			c-2.5-2.6-0.5-5.9,1.5-8.6c-2.3,1.8-6.1,2-4.3,5.9c-2.9,0.9-2.7-3.6-6-2.2c-1,2.6-0.6,7.6-3.8,8.1l-0.4-0.5
			c-6.8,2.5-2.9,11.6-9.1,13.8l-0.4-1.3c-2.8,0.3-3.4,5.5-7.3,7.1c1.2-0.4,3.6,0.6,2.5,2.7c-4.2,2.1-4.3,6-8.1,6.9l0.7,4.7
			c-4.6,6-14.1,22.4-21.6,39.4c-7.7,16.9-13.6,34.2-15.9,41.2l-0.2-0.7c-3.5,10.7-8.4,27-11.9,43.5c-3.6,16.5-5.2,33.5-4.9,44.8
			c-2.6,2.9-2.5,7.8-3.5,11.3c1.1-1.8,2.6-0.8,2.4,0.7c-0.9,10.8,1.5,1,1.8,12.1c0.6,6.4,0.3,21.4,0.7,36.1c0.3,14.7,1.8,29,2,34.4
			c3.5,5.6,3.2,12.8,6,18.2l-0.7-0.5c1.2,2.9,3.1,12.8,5.9,22.6c2.6,9.8,6,19.5,7.7,22.6l-0.1-1c3.5,5.3,1,5.1,2.2,9.8
			c1.9-1.2,5.2,3.2,6.2,4.9l-0.5,0.1c1.6,2.6,6,8.1,8.5,12.3l-1.2,0.2c2.9,3.2,5.8,10.1,7.4,12.6c2.6,6,6.4,15.5,12.4,22.3l1,5.9
			l0.7,0.6c0,0,8-1.9,15.6-5.3c7.7-3.5,15.1-8.5,16.2-14.9l0.9-0.3l-0.8-1.8c-0.5-2.5-1.8-3-0.9-3.3l1.1,3.2c-0.6-2.4,0.4-1,1.2-0.4
			c-0.3-1-0.5-2-0.5-2.9c-0.5-0.3-0.2,0.5-0.3,1c-0.7-1.1-2.2-2.3-2.3-4.1c-0.7-2.4,1.3-0.9,0.6-3.7c-4-14.8-5.8-29.6-7.9-44.3
			c0.5-0.5,0.5-0.1,0.8,0.3c-1-4.4-1.4-8.3-2.2-12.3c0.5-1.3,1.3-1.8,1.8-2.2c-0.4,0.4-1.3-5-1.5-10.7
			C1061.3,517.9,1061.5,512.1,1061.7,511.9z"/>
	</g>
	<g>
		<path class="st1" d="M1255.1,662.8c1.3-0.1,2.2-1,3.1-1.8C1256.8,661.2,1255.8,661.7,1255.1,662.8z"/>
		<polygon class="st1" points="1258.3,660.9 1258.3,660.9 1258.3,660.9 		"/>
		<path class="st1" d="M1316.3,409.1c-0.1,0.3-0.3,0.7-0.4,1.1C1316.2,409.9,1316.4,409.6,1316.3,409.1z"/>
		<path class="st1" d="M1300.9,622.1l-2.2-1.5c2-1.9,3.2,1.1,4.5-1c-2.6-2.8,3.4-2.6,2.3-4.4c0.3,0.2,1.3-0.6,2.3,0.1
			c-1.6-1.4,0.5-1.1,0.6-2c-0.3-0.5-0.7-0.2-1.4-0.4l0.7-1.6c1.1-0.1,2.4,0.5,2,1.2c4.1-2.9,23.1-15.9,26.1-19.6
			c-2.2-0.8-2.2,1-5.3-0.5c-0.4-1.9,2-0.9,0.9-2.3c4.3,2.4,3.2-1.2,7.9,1l-1.9-1.8l1.9,0.6c2.2-5.3-0.2-1.7,4.4-4.4
			c2-2.1-0.2-5.4,2.3-5.5c-0.2,0.1-2.2-0.5-2.2-1.5c2.2,1.5,0.1-2.4,2.5-1.1c0.3-0.7,2.5-2-1.1-3.7c1.7,0.8,4-0.1,4.3,1.7
			c0.7-0.4,1.7-0.5,1.4-1.3l-1.6,0c1.5-1.9,4.9-0.9,3.4-4l-1.9-0.3c1-1.1,1.7-2,5.1-0.1l-0.3,1.6c1.9-1.5,2.8-2.6,2.8-5.1l-0.7,0.4
			c-0.9-3.9,7.1-14.4,5-19.2l-3.3-1.4l-0.5-3.1c-0.2,0.1,7.3,7.3,6.3,6.8c3.2-2.9,19.1-18.6,24.3-19.2c2.8,0.4,4.5,3.7,4.9,4.1
			c0.6-2-2.2-3.1-0.6-3.8c0.9,0.2,2,2,2.2,2.5c0.3-0.7,1.8-0.2,0.6-1.4c-1.7-0.4-4.8-3.7-7.3-5.5l2-1l2.1,2c0.5-0.2-4.9-6.1-2-6.3
			c3.8-1.2,6.2-4.2,9.6-5.8c1.3,1.3,1.4,2.5,1.6,3.7c0.5-0.2,0.7-1,2-0.3c-3-1.7-0.3-2.4-1.9-2.9c-3.3-6.8,4.5-3.9,2.7-8.9
			c-4.8-5.1-81.6-88.3-87.3-94.4c0.6-0.6,1.1-1.2,1.8-1c-1.5-1.2-3.1-0.4-2.8,1.1l3.1,3.3c0,2.8-2.1-1.5-3,0.5
			c-2.6-2.5-2.2-4.6-1.6-6.3c-1.1,1-3.7,0.4-1.2,3.7c-1.8,0.1-3.1-3.3-5-2.9c0.1,1.8,1.8,5.6-0.4,5.3l-0.4-0.5
			c-4.4,0.3,1.2,8.1-3,8.2l-0.7-1.1c-2-0.5-1.1,3.3-3.6,3.5c0.8,0,2.8,1.3,2.5,2.6c-2.7,0.4-1.9,3.2-4.6,2.8l1.6,3.6
			c-4.4,6.4-15.7,35.9-18.8,42.9l-0.2-0.6c-4.4,11.2-14.8,32.4-17,45.1c-2.6,0.3-3.2,2.9-4.5,4.2c1.2-0.4,2.4,0.9,1.9,1.6
			c-2.6,5.1,1.1,1.3-0.5,7.1c-1.3,7.2-13.2,29.2-16.4,34c1,4.4-2,7-1.7,10.7l-0.4-0.6c-0.5,3.5-8.7,20-9.2,24.1l0.4-0.3
			c0.1,3.8-1.8,2.2-3.2,4.4c2.1,0.8,2.3,4.2,2.1,5.2l-0.4-0.3c-0.2,1.7,0.2,6.1-0.4,8.8l-1-0.7c0.4,2.7-1.5,6.4-1.9,8
			c-1.7,3.2-4.8,7.9-5.1,13.1l-3.2,1.9l0.1,0.6c0,0,6.5,4.7,13.7,8.9c7.3,4.2,15.4,7.9,20.3,7.1l0.7,0.5l0.7-1
			c1.4-0.9,0.8-1.9,1.6-1.4l-1.4,1.5c1.2-1,1,0,1.1,0.7c0.5-0.4,1-0.8,1.6-1.1c-0.1-0.4-0.5,0-0.8,0.1c0.2-0.7,0.2-2,1.2-2.5
			c1.1-1.1,1.4,0.6,2.7-0.6c6.8-6.6,14.2-12.5,20.6-19.2c0.6,0.1,0.4,0.3,0.4,0.6c1.5-2.3,3.4-3.9,4.8-6c1-0.2,1.9,0.1,2.5,0.2
			C1290,632.1,1300.4,622,1300.9,622.1z"/>
	</g>
	<g>
		<path class="st1" d="M1461,825c1.6-0.2,3-1.4,4.4-2.6C1463.6,822.8,1462.3,823.6,1461,825z"/>
		<polygon class="st1" points="1465.4,822.4 1465.5,822.4 1465.4,822.5 		"/>
		<path class="st1" d="M1750.7,561.8c-0.6,0.2-1.2,0.4-1.8,0.6C1749.5,562.4,1750.1,562.2,1750.7,561.8z"/>
		<path class="st1" d="M1535.2,774l-1.5-2.2c3.5-2.1,3,1.8,5.9-0.6c-1.2-3.7,5.7-2.7,5.5-5c0.2,0.3,1.8-0.5,2.5,0.5
			c-0.9-2,1.3-1.3,2-2.3c0-0.7-0.7-0.4-1.4-0.8l1.9-1.8c1.4,0.1,2.4,1.1,1.5,1.7c3.4-1.1,12.6-5.2,22.1-8.6c9.5-3.5,18.8-6.8,22-8.4
			c-1.9-1.4-3.3,0.5-5.8-1.9c0.9-2.2,3-0.4,2.8-2.4c3.1,3.9,4.6-0.5,8.4,3.3l-0.9-2.6l1.7,1.2c6.5-5.3,1-2.1,8.5-3.6
			c3.9-1.6,4-5.8,7-5.2c-0.4,0.1-2.1-1.2-1.4-2.3c1.4,2.3,2-2.6,3.7-0.4c0.9-0.6,4.4-1.4,1.7-4.3c1.3,1.4,4.7,1.2,3.6,3.2
			c1.1-0.2,2.3,0.1,2.7-0.8l-1.8-0.6c3.3-1.4,6.4,0.8,7.2-2.9l-1.9-1c2-0.8,3.6-1.5,5.9,1.7l-1.7,1.6c3.4-0.9,5.4-1.7,7.4-4.3
			l-1.1,0.2c2.2-4.3,20.3-11.8,22.2-17.2l-2.6-2.7l2.1-3.2c-0.4,0,1.9,10.2,1.3,9.2c6.2-1.6,38.5-9.1,44.9-6.3
			c2.8,1.8,1.6,5.6,1.7,6.2c2.5-1.4,0.5-3.8,2.9-3.7c0.8,0.6,0.4,2.8,0.1,3.4c1-0.5,2.2,0.7,1.9-1c-1.6-1.2-1.9-5.8-3-8.6l3.2,0.2
			l0.4,2.9c0.7,0.1,0.3-8,3.7-6.6c5.5,1.2,11,0,16.3,0.6c0.1,1.8-0.8,2.9-1.8,4c0.7,0.1,1.7-0.4,2.5,0.9c-1.6-3.2,1.9-2.2,0.8-3.5
			c3-7.5,8.7-0.3,11.6-5.4c-0.2-3.4-0.9-33-1-63.3c-0.2-30.3,0.2-61.3-0.1-65.5c1.4-0.2,2.9-0.3,3.3,0.3c-0.5-1.9-3.3-2.2-4.8-0.8
			l0,4.5c-3.3,2.3-1-2.5-4.3-1.5c-0.5-3.6,2.6-5,5.3-6c-2.5,0.1-5.1-2-5.8,2.2c-2.4-1-0.1-4.5-3-5.4c-1.9,1.5-4.2,5.6-6.6,4l0-0.6
			c-5.9-2.3-7.8,7.2-13.1,5.1l0.4-1.3c-2-1.5-5.1,2.2-8.5,1c1,0.4,2.1,2.7,0.3,3.6c-3.9-1.1-6,1.7-9-0.1l-2,4
			c-6.2,1.7-21.2,7.6-35.4,14.5c-14.4,6.8-28,14.5-33.5,17.5l0.3-0.6c-8.4,4.6-21,12-33.3,19.5c-6,4-12,8.1-17.4,12
			c-5.3,4-9.9,8-13.5,11.4c-3.5-0.4-6.6,2.4-9.4,3.6c1.9-0.1,2.1,1.6,1,2.3c-7.6,5.4,0.2,1.8-6.8,8.2c-8.1,7.6-40.2,32.5-47.5,38.3
			c-2.1,5.5-7.6,8.7-10,13.5l0-0.8c-3.4,4.2-24.4,25.3-27.4,30.9l0.7-0.4c-2.3,5.2-3.5,3-6.5,5.9c2,1.2,0.1,5.7-0.8,7.2l-0.3-0.4
			c-1.3,2.4-3.6,8.2-5.7,12l-0.8-0.9c-1.1,3.8-5.3,8.9-6.7,11.1c-3.8,4.3-9.7,11.2-12.7,18.6l-4.6,2.8l-0.2,0.8
			c0,0,5.2,6.3,11.5,11.7c6.4,5.5,13.9,10.2,20,8.9l0.6,0.6l1.2-1.4c2-1.3,1.8-2.6,2.5-2l-2.3,2.1c1.8-1.4,1.1,0,0.9,0.9
			c0.7-0.6,1.5-1.2,2.3-1.5c0-0.5-0.5,0-1,0.1c0.6-1,1.1-2.7,2.5-3.5c1.7-1.5,1.3,0.8,3.3-0.9c10.9-9,22.3-16.6,33.5-24.8
			c0.6,0.2,0.3,0.4,0.2,0.8c3.1-2.8,6-4.9,8.9-7.4c1.3-0.1,2.1,0.3,2.8,0.5c-0.6-0.2,3.6-3.3,8-6.2
			C1530.2,776.6,1535,773.9,1535.2,774z"/>
	</g>
	<g>
		<path class="st1" d="M1495.3,1032.7c0.7,1,1.6,1.3,2.4,1.6C1496.9,1033.2,1496.2,1032.8,1495.3,1032.7z"/>
		<polygon class="st1" points="1497.7,1034.3 1497.8,1034.3 1497.7,1034.3 		"/>
		<path class="st1" d="M1656.4,920.7c-0.2,0.1-0.5,0.3-0.8,0.4C1655.9,921.1,1656.1,921.1,1656.4,920.7z"/>
		<path class="st1" d="M1538.3,1046.4l-0.2-2.6c1.9,0.4,0.9,3.2,2.6,3c0.2-3.7,3,1.2,3.4-0.8c0,0.3,0.9,0.7,1,1.9
			c0-2.1,0.8-0.3,1.3-0.7c0.1-0.6-0.2-0.7-0.4-1.4l1.2-0.5c0.6,0.8,0.8,2.2,0.3,2.3c3.4,1.5,19.1,8.7,22.4,8.6
			c-0.6-2.2-1.6-1.1-2.2-4.4c0.8-1.5,1.4,1,1.7-0.7c0.7,4.9,2.1,1.7,3.2,6.8l0.1-2.7l0.6,1.8c3.8-1.6,0.8-1.2,4.4,0.7
			c2,0.3,2.7-3.5,4-1.7c-0.2-0.1-0.7-2-0.2-2.6c0.2,2.6,1.3-1.5,1.7,1.3c0.5-0.2,2.2,0.7,1.4-3.1c0.4,1.9,1.9,3.1,1.1,4.4
			c0.5,0.3,1,1,1.3,0.3l-0.7-1.2c1.7,0,2.7,3.2,3.7,0.1l-0.7-1.7c1,0.1,1.8,0,2.4,3.9l-1,0.8c1.7,0.4,2.7,0.5,4-1.1l-0.5-0.3
			c1.6-3.2,10.8-3.8,12.3-8.7l-0.8-3.4l1.4-2.4c0,0-0.2,2.5-0.3,5c-0.1,2.4-0.2,4.8-0.3,4.2c3,0.6,18.6,2.2,21.3,5.5
			c1.1,2.4,0.2,5.8,0.2,6.4c1.3-0.9,0.6-3.7,1.7-3c0.3,0.8-0.1,2.9-0.3,3.3c0.5-0.3,0.9,1.2,1-0.5c-0.6-1.5-0.3-6-0.6-9.1l1.5,0.8
			l-0.1,2.9c0.3,0.2,0.9-7.7,2.4-5.7c2.4,2,5.1,1.7,7.5,3.1c-0.1,1.8-0.6,2.7-1.2,3.7c0.3,0.2,0.8-0.1,1.1,1.3
			c-0.5-3.4,1.1-1.8,0.6-3.3c2-7,4.1,0.6,5.9-4.1c0.4-7,7.7-119.9,8.3-128.2c0.6,0,1.2,0,1.3,0.6c-0.1-1.9-1.2-2.5-1.9-1.2l-0.3,4.5
			c-1.5,1.9-0.2-2.6-1.6-1.9c0.1-3.6,1.4-4.8,2.5-5.4c-1-0.1-1.9-2.5-2.5,1.6c-0.9-1.2,0.3-4.5-0.8-5.7c-0.9,1.3-2.1,5.2-2.9,3.3
			l0-0.6c-2.2-2.9-3.7,6.4-5.6,3.5l0.3-1.2c-0.7-1.8-2.2,1.4-3.5-0.3c0.4,0.6,0.6,3-0.2,3.6c-1.5-1.7-2.6,0.8-3.6-1.5l-1.1,3.6
			c-5.4,1.1-25.9,12.3-31,14.5l0.2-0.5c-7.8,4-23.8,9.7-31.4,15.9c-1.4-1.9-3-0.7-4.3-0.8c0.8,0.7,0.6,2.4,0.1,2.5
			c-3.9,1.2-0.2,1.7-4,4c-4.3,3.5-21.4,7.7-25.4,7.9c-1.8,3.5-4.6,2.6-6.4,5l0.1-0.7c-2.1,1.7-14.6,4.9-16.9,6.8l0.4,0.1
			c-2,2.3-2-0.1-3.8,0c0.5,2.2-1.1,4.3-1.8,4.7l0-0.5c-1,0.9-3.1,3.7-4.8,4.7l-0.1-1.2c-1.3,1.8-4.1,2.5-5.1,3
			c-2.5,0.5-6.4,0.6-9.4,3.2l-2.5-1.6l-0.3,0.4c0,0,0.5,7.9,1.7,16.2c1.2,8.3,3,17,5.8,20.6l0.1,0.9l0.8,0c1.1,0.6,1.4-0.4,1.5,0.5
			l-1.4-0.3c1.1,0.4,0.4,0.8,0.1,1.2c0.5,0.2,0.9,0.3,1.3,0.7c0.1-0.3-0.2-0.4-0.4-0.6c0.5-0.2,1.1-1,1.9-0.5
			c1.1,0.3,0.3,1.5,1.6,1.9c6.7,1.9,13.3,4.5,19.8,5.8c0.2,0.5,0,0.5-0.1,0.7c1.9-0.1,3.7,0.5,5.4,0.4c0.6,0.7,0.8,1.6,1.1,2.2
			C1527.9,1043.6,1538.1,1046,1538.3,1046.4z"/>
	</g>
	<g>
		<path class="st1" d="M877.4,673.5c0.5-1.2,0.1-2.1-0.1-3.1C876.8,671.8,876.9,672.7,877.4,673.5z"/>
		<polygon class="st1" points="877.3,670.4 877.3,670.4 877.3,670.5 		"/>
		<path class="st1" d="M692.2,561.7c0.2,0.2,0.5,0.4,0.8,0.7C692.8,562,692.7,561.8,692.2,561.7z"/>
		<path class="st1" d="M864.5,626.8l-2.2,1.5c-0.7-2,2.3-2.4,1.2-3.9c-3.4,1.6-0.6-3.4-2.5-2.8c0.3-0.2,0.1-1.2,1.1-1.8
			c-1.9,1-0.7-0.6-1.3-0.9c-0.6,0.1-0.5,0.5-1,1.1l-1-0.9c0.4-0.9,1.5-1.8,1.8-1.4c-0.5-4-2.5-22.1-4.1-25.2c-1.6,1.6-0.2,2-2.8,4.2
			c-1.7,0,0.2-1.8-1.5-1.2c4-2.9,0.5-2.8,4.5-6.2l-2.4,1.2l1.3-1.4c-3.3-2.8-1.5-0.2-1.6-4.5c-0.8-2-4.5-1-3.4-3
			c0,0.2-1.4,1.6-2.2,1.4c2.2-1.4-1.9-0.6,0.3-2.2c-0.4-0.4-0.5-2.4-3.5,0.1c1.5-1.2,1.8-3.2,3.4-3c0-0.6,0.4-1.4-0.4-1.4l-0.8,1.2
			c-0.8-1.6,1.5-4-1.7-3.6l-1.2,1.4c-0.4-1-0.9-1.8,2.3-4l1.2,0.6c-0.4-1.8-0.8-2.8-2.9-3.3l0,0.6c-3.6-0.1-8.6-8.7-13.6-8.1
			l-2.7,2.3l-2.8-0.3c0,0.2,9.5-4,8.6-3.4c-0.9-3.2-6.6-19-4.6-23c1.7-2,5.3-2.6,5.8-2.8c-1.4-0.9-3.6,0.9-3.5-0.5
			c0.6-0.6,2.6-1.1,3.1-1.1c-0.5-0.4,0.7-1.4-0.9-0.7c-1.1,1.2-5.4,2.8-8,4.2l0.1-1.8l2.7-1.1c0-0.4-7.4,2.3-6.3,0
			c0.8-3.2-0.6-5.7-0.4-8.6c1.7-0.6,2.8-0.5,3.8-0.3c0-0.4-0.5-0.8,0.7-1.6c-2.9,1.9-2.1-0.3-3.3,0.7c-7.3,0.8-1.2-4.3-6.2-4.1
			C811,521.5,704,558.3,696.1,561c-0.3-0.6-0.6-1.3,0-1.7c-1.7,0.8-1.8,2.3-0.3,2.5l4.3-1.5c2.5,0.8-2.2,1.3-1,2.5
			c-3.3,1.4-5,0.4-6.2-0.6c0.3,1.1-1.4,3.1,2.6,2.1c-0.7,1.5-4.2,1.5-4.8,3.2c1.6,0.4,5.7,0.2,4.4,1.9l-0.6,0.2
			c-1.7,3.6,7.6,1.4,5.8,4.8l-1.3,0.2c-1.3,1.5,2.3,1.8,1.4,3.9c0.3-0.6,2.4-1.9,3.4-1.3c-0.8,2.3,1.9,2.5,0.3,4.5l3.9-0.3
			c3.5,5.4,23.8,22.7,28.4,26.9l-0.6,0c7.6,6.5,21,20.6,30.8,25.6c-0.9,2.2,1,3.4,1.6,4.8c0.2-1.1,1.8-1.7,2.2-1.2
			c3.2,3.4,1.6-0.6,5.8,2.2c5.4,2.9,18.7,18,21.3,21.8c4.1,0.1,5,3.3,8.2,4l-0.7,0.2c2.7,1.3,12.8,11.9,16,13.2l-0.1-0.4
			c3.2,0.8,1.1,2,2.3,3.7c1.6-1.6,4.4-1,5.2-0.6l-0.4,0.3c1.4,0.5,5.1,1.2,7,2.3l-0.9,0.7c2.4,0.3,4.6,2.7,5.8,3.3
			c1.9,2.1,4.4,5.8,8.6,7.2l0.2,3.2l0.5,0c0,0,6.5-4.6,12.9-10c6.4-5.4,12.8-11.7,14.2-16.1l0.7-0.5l-0.5-0.8
			c-0.2-1.3-1.2-1.1-0.5-1.7l0.6,1.5c-0.3-1.2,0.4-0.8,1-0.8c-0.1-0.5-0.2-1-0.2-1.5c-0.4,0-0.2,0.4-0.3,0.7
			c-0.5-0.3-1.5-0.5-1.5-1.5c-0.4-1.1,1.1-1.1,0.6-2.4c-2.4-7.2-3.9-14.6-6.5-21.3c0.3-0.5,0.4-0.3,0.7-0.2
			c-1.1-1.7-1.7-3.7-2.7-5.2c0.3-0.9,0.9-1.5,1.3-2.1C867.8,637.8,864.2,627.2,864.5,626.8z"/>
	</g>
	<g>
		<path class="st1" d="M685.2,847.8c-1.2-1.2-3.3-1.6-5.3-2.1C681.4,846.9,683,847.6,685.2,847.8z"/>
		<polygon class="st1" points="679.8,845.7 679.8,845.7 679.8,845.7 		"/>
		<path class="st1" d="M286.5,659.6c0.4,0.6,0.8,1.2,1.2,1.9C287.5,660.8,287.1,660.1,286.5,659.6z"/>
		<path class="st1" d="M590,810.9l-1.1,2.4c-4.1-2.1-0.2-3.6-4.1-4.9c-2.9,2.9-5.9-4-7.9-2.7c0.1-0.3-1.6-1.4-1-2.6
			c-1.4,1.7-2-0.6-3.3-0.8c-0.6,0.3,0,0.8,0.1,1.6l-2.8-0.9c-0.7-1.3-0.4-2.7,0.7-2.2c-3.1-2.4-12.3-9.2-20.8-16.6
			c-8.6-7.2-16.5-15-19.8-17.1c-0.3,2.4,2.2,2.9,1.3,6.3c-2.6,0.1-2-2.6-3.8-1.7c2-4.5-2.9-4.1-1.3-9.3l-2,1.8l0.2-2.1
			c-8.3-4.2-2.5-0.2-7.7-6.8c-3.5-3.2-7.6-1.5-8.4-4.7c0.2,0.3-0.2,2.5-1.5,2.2c1.5-2.2-3.4-1-2.1-3.5c-1-0.7-3.4-3.9-4.9-0.1
			c0.7-1.8-1.1-5.1,1.3-4.7c-0.7-1-1.1-2.3-2.1-2.4l0.3,2c-2.9-2.7-2.4-6.5-6.3-6l-0.1,2.2c-1.7-1.6-3.1-3.1-1.1-6.5l2.3,1.1
			c-2.4-3.1-4-4.8-7.5-6l0.6,1c-5.3-0.5-20.5-16.5-26.4-16.7l-1.5,3.6l-4-1.2c0.2,0.4,9-5.3,8.4-4.3c-2.1-3-8.6-12-14-21.7
			c-5.6-9.5-10-19.6-10.2-23.2c0.7-3.4,4.8-3.3,5.3-3.6c-2.3-2.3-3.9,0.6-4.6-2.1c0.3-1,2.6-1.2,3.2-1.1c-0.8-0.9,0-2.5-1.6-1.8
			c-0.7,2-4.9,3.6-7.2,5.7l-1-3.5l2.6-1.2c-0.2-0.8-7.8,1.9-7.7-2.1c-0.9-6.1-4-11.7-5-17.6c1.7-0.6,3.1,0.1,4.4,0.8
			c-0.1-0.8-0.9-1.7,0.1-2.9c-2.5,2.6-2.7-1.5-3.6,0.1c-8.2-1.2-3.2-9.2-9.1-11c-3.3,1.1-31.6,9.5-60.9,17.4
			c-29.2,7.9-59.3,15.3-63.3,16.7c-0.6-1.6-1.2-3.2-0.8-3.9c-1.7,1-1.1,4.4,0.7,5.7l4.4-1.2c3.2,3.2-2.1,1.8-0.1,5.3
			c-3.3,1.4-5.7-1.7-7.5-4.5c0.9,2.8-0.3,6.4,4,6.1c-0.2,3-4.3,1.2-4.3,4.8c2,1.8,6.9,3.3,6.2,6.5l-0.6,0.2c-0.2,7.3,9.8,7,9.6,13.6
			l-1.4-0.1c-0.7,2.7,3.9,5.2,3.9,9.4c0.1-1.2,1.8-3.1,3.4-1.3c0.4,4.7,4,6.3,3.4,10.2l4.6,1.1c3.9,6.6,15.5,21.7,28.3,35.3
			c12.7,13.8,26.3,26.2,31.9,31.2l-0.8-0.1c8.5,7.6,21.5,18.9,35.3,29c13.7,10.3,28.6,19,39.1,23.7c1.6,3.7,6.1,5.7,8.8,8.1
			c-1.2-1.8,0.4-2.7,1.7-1.9c9.5,5.6,1.6-0.9,11.8,3.7c6.1,2.3,19.7,9.3,33.3,15.6c13.5,6.4,27.2,11.8,32.2,14.2
			c6.7-0.5,13.1,3.1,19.3,3.3l-0.8,0.4c3.2,0.3,13.1,3.3,23.2,5.5c10.1,2.4,20.5,4.1,24.1,4.2l-0.9-0.4c6.5-0.5,5.1,1.6,9.9,2.8
			c-0.2-2.3,5.4-3,7.4-3l-0.2,0.5c3.1-0.1,10.3-1.3,15.3-1.3l-0.4,1.1c4.3-0.9,12-0.1,15-0.2c6.7,0.7,17.1,2.2,26.2,0.3l5.8,2.2
			l0.9-0.3c0,0,2.5-7.8,3.4-16.1c0.9-8.4,0.3-17.3-4.9-21.5l0.2-0.9l-2.1-0.2c-2.5-0.9-3.7,0-3.5-0.9l3.4,0.7
			c-2.5-0.7-0.7-0.9,0.2-1.2c-1-0.3-2.1-0.5-2.9-1c-0.5,0.3,0.3,0.4,0.7,0.7c-1.4,0.1-3.3,0.7-4.9-0.1c-2.6-0.6-0.1-1.6-3-2.3
			c-15.6-4-30.1-9.7-44.9-15.1c-0.2-0.6,0.2-0.5,0.6-0.5c-4.5-1.3-8.4-2.9-12.5-4.1c-0.9-1.1-1-2-1.2-2.7c0.2,0.6-5.4-1.3-10.8-3.9
			C595.5,814.2,590.1,811.2,590,810.9z"/>
	</g>
	<g>
		<path class="st1" d="M594.3,1055.8c-0.9-0.8-1.7-0.8-2.5-0.9C592.9,1055.7,593.7,1056,594.3,1055.8z"/>
		<polygon class="st1" points="591.9,1054.9 591.9,1054.9 591.9,1054.9 		"/>
		<path class="st1" d="M444.9,1169.3c0.3-0.1,0.6-0.1,1-0.2C445.6,1168.9,445.3,1168.9,444.9,1169.3z"/>
		<path class="st1" d="M558.3,1050.4l0.7,2.5c-1.5-0.2-1.4-3-2.6-2.7c0.6,3.6-2.4-0.8-2.2,1.1c-0.1-0.3-0.8-0.5-1.1-1.8
			c0.4,2.1-0.5,0.4-0.8,0.8c0,0.6,0.3,0.7,0.6,1.3l-0.8,0.6c-0.6-0.8-1-2.1-0.7-2.2c-2.9-1.2-14.8-7.2-16.8-7.2
			c0.6,2.1,1.2,1.1,2,4.3c-0.4,1.5-1.1-1-1.1,0.8c-1-4.8-1.6-1.6-2.9-6.7l0.2,2.7l-0.6-1.8c-2.4,1.7-0.4,1.2-3-0.6
			c-1.3-0.3-1.6,3.5-2.5,1.7c0.1,0.1,0.6,2,0.3,2.6c-0.3-2.6-0.8,1.5-1.2-1.2c-0.3,0.2-1.5-0.6-0.8,3.1c-0.4-1.9-1.4-3.1-1-4.4
			c-0.4-0.3-0.7-1-0.9-0.3l0.5,1.2c-1.1,0-1.9-3.2-2.5-0.2l0.5,1.7c-0.7-0.1-1.3,0-1.7-3.9l0.6-0.8c-1.1-0.5-1.7-0.6-2.6,1l0.3,0.3
			c-1,3.1-7.2,3.6-8.5,8.2l0.4,3.4l-1.1,2.3c0,0,0.3-2.5,0.5-5c0.2-2.4,0.4-4.7,0.4-4.2c-2.1-0.7-12.4-3.2-13.5-6.9
			c-0.4-2.4,0.7-5.8,0.8-6.4c-0.9,0.8-0.9,3.6-1.5,2.8c-0.1-0.8,0.5-2.8,0.7-3.3c-0.3,0.2-0.4-1.2-0.7,0.5c0.1,1.6-0.7,6-1,9
			l-0.8-0.9l0.5-2.8c-0.2-0.2-1.8,7.5-2.4,5.5c-1.3-2.2-3-2.3-4.3-3.9c0.4-1.8,0.9-2.6,1.5-3.5c-0.2-0.2-0.5,0-0.4-1.4
			c-0.4,3.4-1,1.7-1.1,3.2c-2.7,6.6-2.5-1.1-4.6,3.3c-0.9,3.3-8.8,31.8-17.4,60.8c-8.9,29.1-17.8,58.4-19.1,62.5
			c-0.7-0.1-1.3-0.3-1.4-0.9c-0.4,1.9,0.8,2.8,1.8,1.7l1.3-4.3c2.1-1.5-0.3,2.6,1.4,2.3c-0.8,3.5-2.6,4.3-4.1,4.7
			c1.1,0.4,1.7,2.9,3.2-0.9c0.8,1.4-1.3,4.3-0.2,5.8c1.3-1.1,3.4-4.5,4.1-2.5l-0.2,0.6c2,3.4,5.4-5.4,7.1-2.1l-0.5,1.2
			c0.5,1.9,2.8-0.9,3.9,1.1c-0.3-0.6-0.2-3.1,0.8-3.5c1.4,2,3-0.3,3.9,2.2l1.9-3.4c6.4,0.2,30.5-8.4,35.9-10.6l-0.2,0.5
			c8.8-3.4,25.9-9,33.4-15.8c1.5,1.8,3.2,0.5,4.5,0.6c-0.8-0.6-0.8-2.3-0.2-2.5c3.9-1.5,0.1-1.7,3.8-4.3c4.3-3.6,20.7-9.9,24.6-10.9
			c1.2-3.7,4.1-3.4,5.4-6.1l0,0.7c1.8-2,13.1-7.7,14.8-10.2l-0.4-0.1c1.3-2.7,1.9-0.4,3.6-0.9c-1.1-2-0.1-4.4,0.4-5l0.2,0.5
			c0.7-1.1,1.9-4.3,3.2-5.8l0.4,1.1c0.6-2.1,3-3.5,3.8-4.3c2.1-1.1,5.6-2.4,7.3-5.8l2.8,0.7l0.1-0.4c0,0-3.3-7.2-7.3-14.5
			c-4-7.3-8.9-14.9-12.3-17.5l-0.4-0.8l-0.7,0.2c-1.1-0.3-0.9,0.7-1.3-0.1l1.2,0c-1-0.1-0.6-0.6-0.6-1.1c-0.4,0-0.8-0.1-1.2-0.3
			c0,0.3,0.3,0.3,0.5,0.5c-0.3,0.3-0.5,1.2-1.3,0.9c-0.9,0-0.8-1.3-1.9-1.4c-5.7-0.2-11.5-1.5-16.7-1.7c-0.3-0.5-0.2-0.5-0.1-0.7
			c-1.4,0.4-2.8,0.1-4.1,0.5c-0.6-0.6-1-1.4-1.3-1.9C566.4,1051.8,558.5,1050.9,558.3,1050.4z"/>
	</g>
	<g>
		<path class="st1" d="M684.4,1291.2c-1.6,0.5-3.1,2.2-4.5,3.7C681.7,1294.2,683.1,1293,684.4,1291.2z"/>
		<polygon class="st1" points="679.9,1294.9 679.9,1295 679.9,1294.9 		"/>
		<path class="st1" d="M426.7,1648.3c0.7-0.3,1.4-0.6,2.2-0.9C428.1,1647.5,427.4,1647.7,426.7,1648.3z"/>
		<path class="st1" d="M612.8,1368.5l2,1.7c-3.2,3.5-3.5-0.7-5.9,2.8c2.1,3.5-5.3,5-4.7,7.3c-0.2-0.2-1.8,1.3-2.7,0.4
			c1.3,1.7-1.1,1.9-1.6,3.2c0.2,0.7,0.8,0.1,1.6,0.3l-1.5,2.6c-1.4,0.4-2.7-0.1-2-1.2c-3.1,2.6-12,10.1-20.8,17.6
			c-8.8,7.4-17.8,14.3-20.4,17.3c2.3,0.7,3.3-1.8,6.4-0.4c-0.3,2.6-2.9,1.7-2.3,3.5c-4.2-2.6-4.5,2.3-9.5,0l1.6,2.2l-2.1-0.5
			c-5.3,7.7-0.6,2.4-7.8,6.9c-3.5,3.1-2.4,7.4-5.7,7.8c0.3-0.2,2.5,0.5,2,1.7c-2-1.7-1.4,3.2-3.7,1.7c-0.8,0.9-4.2,3-0.6,4.8
			c-1.8-0.9-5.2,0.5-4.5-1.8c-1.1,0.6-2.4,0.8-2.5,1.8l2-0.1c-2.9,2.6-6.7,1.6-6.5,5.6l2.2,0.3c-1.8,1.5-3.3,2.8-6.5,0.4l1.3-2.1
			c-3.3,2.1-5.1,3.5-6.5,6.7l1-0.5c-1,5.2-17.6,18.4-18.2,24.2l3.4,1.8l-1.4,3.8c0.4-0.2-4.5-9.4-3.6-8.6c-3,1.7-12.2,7.2-21.6,11.4
			c-9.4,4.4-19,7.5-22.4,7.2c-3.1-1.1-2.8-5.2-3-5.7c-2.2,2,0.4,3.9-2.2,4.2c-0.9-0.4-1-2.7-0.8-3.2c-0.9,0.6-2.3-0.3-1.7,1.3
			c1.8,0.9,3,5.3,4.8,7.8l-3.3,0.5l-1-2.7c-0.7,0.1,1.2,7.9-2.5,7.2c-5.7,0-11,2.3-16.4,2.4c-0.4-1.8,0.3-3,1.1-4.2
			c-0.7,0-1.6,0.6-2.6-0.5c2.1,2.9-1.5,2.4-0.2,3.6c-1.8,7.9-8.5,1.7-10.7,7.2c0.6,3.4,5.1,32.6,8.6,62.7c3.6,30,6.1,61,6.8,65.1
			c-1.7,0.4-3.5,0.7-4.1,0.2c0.8,1.8,4.3,1.7,5.9,0.1l-0.5-4.5c3.8-2.7,1.4,2.3,5.4,0.8c0.9,3.5-2.6,5.4-5.8,6.7
			c3-0.5,6.5,1.2,6.9-3.1c3.1,0.6,0.6,4.5,4.3,4.9c2.2-1.8,4.4-6.4,7.6-5.3l0.1,0.6c7.4,1.1,8.5-8.8,15.2-7.8l-0.3,1.4
			c2.6,1.1,5.8-3.2,10.1-2.8c-1.3-0.2-2.9-2.2-0.9-3.5c4.8,0.1,6.8-3.3,10.6-2.2l1.7-4.5c7-3.1,23.4-13.2,37.9-24.6
			c14.6-11.3,27.7-23.5,32.8-28.4l-0.2,0.7c7.9-7.6,19.7-19.1,30.4-31.3c10.8-12.1,20.3-25.1,25.7-34.6c3.7-1,6-5,8.5-7.2
			c-1.8,0.9-2.6-0.8-1.6-1.9c6.2-8.1-0.7-1.6,4.7-10.6c2.7-5.5,10.9-17,18.7-28.4c7.9-11.3,15.2-22.6,18.3-26.5
			c0.6-6.3,5.4-11.1,6.6-16.7l0.2,0.8c2.1-5.5,18.3-32.8,20.3-39.1l-0.6,0.6c1.3-5.8,3-3.9,5.4-7.6c-2.2-0.7-1.2-5.7-0.5-7.5
			l0.4,0.3c0.9-2.7,2-9.3,3.7-13.6l0.9,0.8c0.6-4.1,4.1-10.2,5.2-12.8c3.1-5.4,8.5-13.2,10.9-21.4l4.4-3.6l0.1-0.8
			c0,0-5.7-5.9-12.4-10.8c-6.8-5-14.8-9-21-6.4l-0.7-0.6l-1.2,1.8c-2,1.8-1.8,3.3-2.5,2.7l2.3-2.7c-1.8,1.9-1.1,0.2-1-0.8
			c-0.8,0.8-1.5,1.6-2.3,2.1c0,0.6,0.6-0.1,1-0.3c-0.6,1.3-1,3.3-2.5,4.4c-1.7,2-1.4-0.7-3.5,1.7c-10.9,12.4-22.1,23.9-32.5,36.4
			c-0.7,0-0.4-0.3-0.3-0.8c-2.8,4-5.8,7.2-8.2,10.8c-1.3,0.6-2.2,0.4-2.9,0.4C630.1,1349.8,613.4,1368.5,612.8,1368.5z"/>
	</g>
	<g>
		<path class="st1" d="M861.5,1470.7c-1.1,0.4-1.5,1-1.9,1.6C860.7,1471.8,861.3,1471.3,861.5,1470.7z"/>
		<polygon class="st1" points="859.5,1472.3 859.6,1472.3 859.6,1472.3 		"/>
		<path class="st1" d="M913.6,1633.6c0-0.3,0-0.6,0-0.9C913.5,1632.9,913.4,1633.2,913.6,1633.6z"/>
		<path class="st1" d="M840.5,1496.9l2.6,0.4c-0.8,1.1-3.3-0.1-3.5,1c3.6,0.9-1.8,1.6,0.1,2.2c-0.3-0.1-0.8,0.4-2,0.2
			c2.1,0.5,0.1,0.6,0.4,1c0.5,0.2,0.7,0,1.5,0.1l0.2,0.8c-0.9,0.1-2.3,0-2.3-0.3c-2.2,1.8-12.4,9-13.2,10.7c2.2,0.3,1.5-0.5,4.7,0.1
			c1.3,0.9-1.3,0.5,0.3,1.2c-4.8-1.1-2.1,0.7-7.2-0.3l2.5,0.9l-1.9-0.2c0.7,2.6,0.9,0.8-1.7,2.2c-0.7,1,2.6,2.6,0.6,2.7
			c0.1-0.1,2.1,0.3,2.5,0.7c-2.5-0.8,1.1,1.2-1.6,0.5c0,0.3-1.1,1,2.6,1.9c-1.8-0.4-3.3,0-4.4-0.9c-0.4,0.2-1.2,0.2-0.6,0.6l1.3,0.1
			c-0.4,0.9-3.6,0.3-1,1.9l1.7,0.2c-0.3,0.5-0.5,1-4.2-0.1l-0.5-0.8c-0.8,0.7-1.1,1.2,0,2.5l0.4-0.2c2.5,2.1,0.8,7.3,4.7,10.1l3.3,1
			l1.8,1.8c0,0-2.3-1.2-4.4-2.3c-2.2-1.1-4.3-2.1-3.7-1.9c-1.3,1.4-7,9-10.7,8.7c-2.4-0.6-5.2-2.8-5.6-3c0.4,1.1,3,2.1,2.1,2.3
			c-0.7-0.2-2.5-1.4-2.8-1.8c0.1,0.4-1.3-0.1,0.2,0.8c1.5,0.5,5.3,2.8,8,4.2l-1.1,0.4l-2.5-1.5c-0.3,0.1,6.4,4.3,4.3,4.1
			c-2.4,0.2-3,1.7-4.9,2.2c-1.5-1-2.2-1.8-2.8-2.5c-0.3,0.1-0.1,0.5-1.4-0.1c3,1.5,1.3,1.5,2.7,2.1c5.3,4.7-1.7,1.7,1.7,5.1
			c2.8,2,27,19.4,51.4,36.8c24.5,18.1,49.2,36.2,52.6,38.7c-0.3,0.5-0.6,1-1.2,0.8c1.7,1,2.8,0.4,2-0.9l-3.6-2.7
			c-0.9-2.3,2.3,1.2,2.4-0.3c3,2,3.3,3.7,3.2,5c0.6-0.8,3.1-0.3,0-3c1.5-0.1,3.6,2.6,5.2,2.3c-0.7-1.5-3.3-4.5-1.2-4.3l0.5,0.4
			c3.7-0.3-3.5-6.5,0-6.6l0.9,0.9c1.9,0.3-0.1-2.6,2-2.8c-0.7,0-2.9-1-3-2c2.2-0.4,0.6-2.6,3.1-2.3l-2.6-2.8
			c1.9-5.2,1.1-27.8,0.9-32.8l0.4,0.4c-0.4-8.4,0.2-24-3.3-32.5c2.2-0.5,1.6-2.3,2.2-3.3c-0.9,0.4-2.4-0.3-2.4-0.8
			c0.1-3.6-1.5-0.7-2.6-4.6c-1.9-4.8-1.2-20-0.5-23.4c-2.9-2.4-1.4-4.5-3.3-6.6l0.6,0.3c-1.1-2.1-1.5-13.1-3-15.4l-0.2,0.3
			c-1.8-2.1,0.5-1.6,0.8-3.1c-2.2,0.1-4-1.7-4.3-2.3l0.5,0c-0.6-1-3-3.2-3.7-4.7l1.2,0.1c-1.6-1.3-1.7-3.7-2.1-4.6
			c-0.1-2.1,0.5-5.3-1.8-8l1.9-1.9l-0.4-0.2c0,0-7.9-0.4-16.2-0.2c-8.4,0.2-17.3,0.8-21.2,2.5l-0.9,0l-0.1,0.6c-0.8,0.7,0.2,1-0.7,1
			l0.5-1c-0.6,0.7-0.9,0.2-1.2,0c-0.2,0.3-0.5,0.6-0.9,0.8c0.3,0.1,0.4-0.1,0.7-0.2c0.1,0.4,0.8,0.9,0.2,1.3
			c-0.4,0.7-1.6,0.1-2.1,0.9c-2.9,4.4-6.6,8.4-9.1,12.4c-0.6,0.1-0.5,0-0.6-0.2c-0.3,1.2-1.1,2.3-1.4,3.4c-0.8,0.2-1.7,0.3-2.3,0.3
			C845.3,1491,841,1496.9,840.5,1496.9z"/>
	</g>
	<g>
		<path class="st1" d="M1152.4,1533.8c-0.6,1.5-0.3,3.4-0.1,5.3C1152.8,1537.4,1152.9,1535.7,1152.4,1533.8z"/>
		<polygon class="st1" points="1152.2,1539.1 1152.2,1539.2 1152.2,1539.1 		"/>
		<path class="st1" d="M1243.9,1924c0.1-0.6,0.2-1.2,0.2-1.9C1243.9,1922.6,1243.8,1923.3,1243.9,1924z"/>
		<path class="st1" d="M1158.3,1627.1l2.6-0.2c0,4.2-3.1,1.8-2.4,5.6c3.8,0.9-0.5,6.5,1.6,7.6c-0.3,0-0.4,1.9-1.7,2
			c2.2,0.3,0.5,1.9,1,3c0.6,0.4,0.7-0.4,1.3-0.8l0.7,2.7c-0.8,1.2-2.1,1.6-2.3,0.5c-0.7,3.7-1.7,14.1-3.5,24.5
			c-1.7,10.4-3.3,20.6-3.4,24.3c2.2-1,1.2-3.3,4.5-4.3c1.5,1.9-1.1,3,0.7,3.8c-4.9,0.9-1.8,4.4-7,6l2.7,0.5l-1.9,1
			c1.4,8.6,1.3,2-1,9.6c-0.5,4.4,3.1,6.6,1.1,9c0.1-0.4,2.1-1.3,2.6-0.1c-2.6,0.1,1.3,3.1-1.5,3.6c0.1,1.1-0.9,4.8,2.9,3.7
			c-1.9,0.5-3.4,3.7-4.5,1.7c-0.4,1.1-1.2,2.1-0.6,2.9l1.4-1.3c-0.4,3.7-3.7,5.5-0.9,8.1l1.8-1.2c-0.3,2.2-0.4,4.1-4.4,4.6l-0.6-2.3
			c-0.8,3.6-1.1,5.8,0.2,9l0.4-1.1c2.7,4.2,0.7,24.6,4.5,28.9l3.7-1.1l1.8,3.5c0.1-0.4-9.9-3.1-8.8-3.3
			c-1.5,6.6-10.2,40.2-15.6,44.9c-2.9,1.7-5.7-1.1-6.3-1.3c0.1,3.1,3.2,2.2,1.9,4.4c-0.9,0.5-2.7-0.9-3.1-1.4c0,1.1-1.7,1.7-0.1,2.3
			c1.8-0.9,6,0.9,9.1,1.2l-1.6,2.9l-2.7-0.9c-0.4,0.6,7,4,4.1,6.5c-3.6,4.6-5.1,10.3-8.1,15c-1.7-0.7-2.2-2.1-2.7-3.5
			c-0.4,0.6-0.4,1.8-2,2c3.6-0.1,1,2.8,2.8,2.3c5.3,6.2-3.7,8.3-0.5,13.3c3.1,1.4,30,13.8,57.3,27.1c27.3,13.2,55,27.1,58.8,28.7
			c-0.5,1.4-1,2.7-1.7,2.9c1.9,0.4,3.5-2,2.8-3.9l-4.1-1.9c-0.6-3.9,2.7,0.2,3.2-3.2c3.4,1.2,3.4,4.5,3.1,7.3c1-2.3,4-3.7,0.6-6.2
			c2-1.7,4.1,1.9,6.2-0.3c-0.5-2.4-3.2-6.2-0.7-7.7l0.6,0.3c4.7-4.2-3-10.2,1.3-14l1,0.9c2.2-1.1,0.3-5.5,2.9-8
			c-0.8,0.7-3.3,0.7-3.4-1.4c2.7-3,1.1-6.2,4.1-8l-2.7-3.6c1.3-6.3,2.8-22.4,3.2-38.3c0.6-15.9,0.1-31.7,0.1-38l0.4,0.6
			c-0.4-19.5-1.4-58.5-7.2-77.7c2-2.9,1.1-7,1.4-10.1c-0.8,1.7-2.4,1.1-2.5-0.2c-1-9.4-1.7-0.7-3.9-10.1
			c-2.7-10.9-8.5-51.7-9.8-61.2c-3.7-4.7-3.7-11.1-6.7-15.7l0.7,0.4c-2-5.1-9.5-34.5-12.7-40l0,0.9c-3.3-4.7-0.8-4.6-1.7-8.7
			c-2,1.1-5-2.9-5.7-4.5l0.5-0.1c-1.4-2.4-5.2-7.5-7.3-11.3l1.2-0.2c-2.6-3-4.9-9.4-6-11.7c-1.8-5.6-4.5-14.4-9.2-21l0.1-5.5
			l-0.6-0.6c0,0-8.1,1-16,3.4c-8,2.4-16.1,6.3-18.1,12.3l-0.9,0.2l0.5,1.8c0.1,2.4,1.3,3.1,0.4,3.2l-0.6-3.1c0.3,2.4-0.6,1-1.2,0.3
			c0.1,1,0.2,1.9,0.1,2.8c0.4,0.3,0.3-0.5,0.4-0.9c0.6,1.1,1.8,2.5,1.7,4.1c0.4,2.3-1.4,0.7-1,3.4c2.1,14.5,2.8,28.7,4.1,43
			c-0.5,0.5-0.5,0.1-0.8-0.3c0.8,4.2,1.2,8,1.8,11.9c-0.5,1.2-1.3,1.7-1.9,2.2c0.5-0.4,1,4.9,1.3,10.4
			C1158.6,1621.3,1158.5,1626.9,1158.3,1627.1z"/>
	</g>
	<g>
		<path class="st1" d="M1359.4,1441.8c-0.4,1.1-0.2,1.7-0.1,2.3C1359.6,1443,1359.7,1442.2,1359.4,1441.8z"/>
		<polygon class="st1" points="1359.3,1444.2 1359.3,1444.2 1359.3,1444.1 		"/>
		<path class="st1" d="M1510.9,1490c-0.2-0.2-0.4-0.3-0.6-0.5C1510.3,1489.7,1510.4,1489.9,1510.9,1490z"/>
		<path class="st1" d="M1364.1,1471.7l1.9-1.8c0.2,1.2-2.1,2.5-1.5,3.2c2.9-2.3,0,2.1,1.5,1.1c-0.2,0.2-0.2,0.8-1.2,1.7
			c1.6-1.3,0.4,0.2,0.9,0.2c0.5-0.3,0.5-0.5,1-1.1l0.7,0.3c-0.5,0.8-1.5,1.8-1.7,1.6c-0.2,2.6-1.9,13.9-1.2,15.2
			c1.6-1.5,0.6-1.3,3.1-3.5c1.4-0.5-0.5,1.2,1,0.3c-3.8,3.1-0.9,1.9-4.9,5.3l2.2-1.5l-1.4,1.3c2.2,0.7,1.2-0.3,0.4,2.3
			c0.2,1,3.5-0.7,2.3,0.8c0-0.1,1.5-1.4,2.1-1.5c-2.2,1.5,1.5-0.2-0.7,1.4c0.3,0.1-0.1,1.3,3-1c-1.5,1.2-2.2,2.5-3.5,2.8
			c-0.1,0.4-0.6,0.9,0.1,0.7l0.9-0.9c0.4,0.7-2.1,2.8,0.7,1.7l1.3-1.2c0.2,0.5,0.4,0.8-2.8,3l-0.9,0c0,0.9,0.1,1.4,1.8,1.2l0.1-0.3
			c3.1-0.9,5.6,2.9,10.2,1.4l2.8-1.9l2.4-0.4c0,0-9.3,4.5-8.3,3.9c0.1,1.7,1.8,9.3-0.9,11.7c-2,1.4-5.4,2.3-5.9,2.5
			c1.1,0.2,3.5-1.1,3.1-0.4c-0.7,0.4-2.7,1-3.1,1.1c0.3,0.1-0.9,0.8,0.7,0.2c1.3-0.8,5.5-2.4,8.3-3.6l-0.5,1l-2.7,1
			c-0.1,0.2,7.3-2.4,5.8-1.1c-1.4,1.8-0.7,2.9-1.6,4.4c-1.7,0.6-2.7,0.6-3.6,0.7c-0.1,0.2,0.3,0.3-1,0.9c3.1-1.3,1.9-0.1,3.3-0.8
			c7-1.4,0.1,2,4.9,1.3c3.3-0.9,32-9,60.8-17.2c29.4-7.9,59-15.8,63.1-16.9c0.2,0.5,0.4,1-0.2,1.3c1.8-0.7,2.1-1.8,0.6-2l-4.4,1.2
			c-2.3-0.6,2.4-1,1.3-2c3.4-1.1,4.9-0.3,5.9,0.5c-0.2-0.9,1.8-2.5-2.3-1.7c0.9-1.2,4.3-1.2,5.1-2.5c-1.5-0.3-5.5-0.1-4-1.5l0.6-0.2
			c2.1-2.9-7.2-1-5-3.7l1.2-0.2c1.4-1.2-2-1.4-0.8-3.1c-0.4,0.5-2.6,1.6-3.4,1.1c1.1-1.9-1.6-1.9,0.2-3.6l-3.8,0.4
			c-2.8-4.3-20.2-16.3-24.1-19l0.5-0.1c-6.5-4.3-17.7-13.4-26.2-15.4c1-1.9-0.6-2.5-1-3.5c-0.3,0.9-1.8,1.7-2.1,1.4
			c-2.6-2-1.5,0.8-5-0.5c-4.7-1.2-15.3-9.9-17.3-12.3c-3.5,0.9-4.1-1.3-6.8-1l0.6-0.3c-2.2-0.3-10.3-6-12.9-6.1l0.1,0.3
			c-2.6,0.3-0.8-1.3-1.8-2.3c-1.3,1.8-3.6,2.2-4.3,2.1l0.3-0.4c-1.1,0-4.1,0.7-5.6,0.4l0.8-0.9c-1.9,0.5-3.7-0.6-4.5-0.8
			c-1.5-1.1-3.4-3.3-6.7-3l-0.1-2.6l-0.4,0.1c0,0-5.1,6.1-10,12.8c-5,6.7-9.9,14.2-11.2,18.2l-0.5,0.7l0.3,0.4c0,1,0.8,0.4,0.2,1.1
			l-0.3-0.9c0.1,0.8-0.4,0.8-0.8,1c0.1,0.3,0.1,0.7,0,1.1c0.3-0.2,0.2-0.4,0.3-0.7c0.3,0.1,1.1-0.2,1,0.6c0.2,0.7-0.9,1.3-0.6,2.1
			c1.2,4.6,1.6,9.6,2.8,13.6c-0.3,0.5-0.3,0.4-0.5,0.4c0.7,0.9,0.8,2.1,1.4,2.8c-0.3,0.8-0.9,1.5-1.2,2
			C1363.1,1465.1,1364.4,1471.4,1364.1,1471.7z"/>
	</g>
	<g>
		<path class="st1" d="M1449.5,1269.4c0.8,1.6,2.9,3,4.8,4.4C1453.2,1272,1451.7,1270.6,1449.5,1269.4z"/>
		<polygon class="st1" points="1454.4,1273.8 1454.4,1273.9 1454.4,1273.8 		"/>
		<path class="st1" d="M1838.5,1562.8c-0.2-0.7-0.5-1.6-0.7-2.4C1837.9,1561.2,1838,1562,1838.5,1562.8z"/>
		<path class="st1" d="M1545.2,1339.7l1.6-2.1c4.3,3.2-0.3,3.6,3.9,6c3.5-2.2,6.2,5.4,8.5,4.7c-0.2,0.2,1.6,1.9,0.8,2.8
			c1.7-1.4,2.2,1.1,3.6,1.6c0.7-0.2,0-0.8,0.1-1.6l3.1,1.5c0.7,1.5,0.2,2.8-1,2.1c3.2,3.2,12.8,12.2,21.5,21.5
			c8.9,9.2,17.2,18.6,20.5,21.5c0.5-2.4-2.2-3.5-0.9-6.8c2.7,0.4,2,3.1,3.9,2.5c-2.4,4.4,2.8,4.8,0.8,9.9l2.3-1.6l-0.3,2.2
			c8.6,5.8,2.5,0.8,7.8,8.4c3.6,3.8,8,2.8,8.6,6.3c-0.2-0.4,0.3-2.6,1.7-2c-1.7,2,3.5,1.6,2,4c1,0.8,3.4,4.5,5.1,0.9
			c-0.9,1.8,0.9,5.4-1.6,4.7c0.7,1.1,0.9,2.5,2.1,2.7l-0.1-2.1c2.8,3.3,1.9,7.2,6,7.3l0.2-2.3c1.6,2,3.1,3.6,0.7,6.9l-2.3-1.4
			c2.5,3.4,3.8,5.5,7.1,7.3l-0.5-1.2c5.5,1.4,19.2,20.1,25.1,21.5l1.9-3.4l3.9,1.9c-0.2-0.4-9.7,3.8-9,2.9
			c1.8,3.3,7.1,13.9,11.2,24.9c4.1,11,6.9,22.2,6.4,26c-1.3,3.4-5.4,2.3-5.9,2.5c1.9,2.8,3.9,0.2,4.2,3.1c-0.5,1-2.8,0.7-3.3,0.5
			c0.6,1.1-0.4,2.6,1.3,2.2c1-1.9,5.5-2.7,8.2-4.2l0.3,3.8l-2.8,0.7c0.1,0.8,8-0.2,7.1,3.9c-0.1,6.5,1.7,13,1.6,19.3
			c-1.8,0.3-3-0.8-4.1-1.9c0,0.8,0.5,2-0.7,3c3-2.1,2.4,2.2,3.6,0.7c7.7,3.2,1.3,10.3,6.5,13.6c3.4-0.3,33.1-1.9,63.4-2.5
			c30.3-0.7,61.3-0.4,65.5-0.8c0.2,1.9,0.4,3.8-0.1,4.4c1.9-0.6,2.1-4.5,0.6-6.3l-4.5,0.1c-2.4-4.3,2.4-1.3,1.3-5.7
			c3.6-0.7,5.2,3.4,6.2,7c-0.2-3.3,1.7-6.9-2.5-7.7c0.8-3.2,4.5-0.2,5.2-4c-1.7-2.5-6-5.5-4.6-8.7l0.6,0c1.6-7.9-8.2-10.2-6.7-17.2
			l1.4,0.5c1.2-2.7-2.8-6.7-2.1-11.2c-0.3,1.3-2.4,2.9-3.6,0.5c0.5-5.2-2.7-7.8-1.4-11.9l-4.5-2.4c-2.6-8.1-11.8-27.3-22.8-45
			c-10.9-17.8-23.6-34.1-28.7-40.5l0.8,0.3c-8-9.8-20.4-24.7-34.1-37.7c-6.6-6.8-14-12.6-20.6-18.1c-6.8-5.2-13.2-9.6-18.4-12.9
			c-1.4-3.9-6-6.7-8.7-9.5c1.1,2-0.6,2.7-1.9,1.7c-9.4-7.2-1.6,0.5-12-5.6c-6.2-3.2-19.7-12.4-33.1-20.8
			c-13.4-8.5-26.7-16.2-31.5-19.5c-7-0.4-13-5.5-19.3-6.7l0.9-0.3c-6.3-2.1-38.7-18.4-46.1-20l0.8,0.6c-6.6-1.2-4.7-3-9.2-5.4
			c-0.4,2.3-6.1,1.5-8.2,0.9l0.3-0.4c-3.1-0.8-10.6-1.7-15.6-3.3l0.7-1c-4.6-0.4-11.9-3.8-14.9-4.8c-6.4-2.9-16-8.1-25.4-10.1
			l-4.6-4.4l-1-0.1c0,0-5.6,6.1-9.9,13.3c-4.3,7.2-7.5,15.6-3.6,21.8l-0.6,0.7l2.1,1.2c2.3,1.9,3.9,1.7,3.4,2.4l-3.4-2.2
			c2.4,1.8,0.4,1.2-0.7,1c1,0.7,2,1.5,2.7,2.2c0.6,0-0.2-0.6-0.5-1c1.5,0.5,3.7,0.9,5.2,2.3c2.5,1.7-0.5,1.5,2.4,3.5
			c15.4,10.5,29.7,21.5,45.1,31.7c0.1,0.7-0.3,0.4-0.8,0.3c4.8,2.7,8.7,5.7,13.1,8c0.9,1.3,0.8,2.3,0.9,3
			C1522.4,1322.4,1545.2,1339.1,1545.2,1339.7z"/>
	</g>
</g>
</svg>
