<?xml version="1.0" encoding="utf-8"?>
<!-- Generator: Adobe Illustrator 25.2.1, SVG Export Plug-In . SVG Version: 6.00 Build 0)  -->
<svg version="1.1" id="Layer_1" xmlns="http://www.w3.org/2000/svg" xmlns:xlink="http://www.w3.org/1999/xlink" x="0px" y="0px"
	 viewBox="0 0 200 47" style="enable-background:new 0 0 200 47;" xml:space="preserve">
<style type="text/css">
	.st0{display:none;}
	.st1{display:inline;}
	.st2{fill:#134779;}
	.st3{filter:url(#Adobe_OpacityMaskFilter);}
	.st4{fill:url(#SVGID_2_);}
	.st5{mask:url(#SVGID_1_);fill:url(#SVGID_3_);}
	.st6{fill:url(#SVGID_4_);}
	.st7{fill:url(#SVGID_5_);}
	.st8{fill:url(#SVGID_6_);}
	.st9{fill:url(#SVGID_7_);}
	.st10{fill:url(#SVGID_8_);}
	.st11{fill:#FFFFFF;}
</style>
<g>
	<g class="st0">
		
			<image style="display:inline;overflow:visible;opacity:0.5;" width="17" height="76" xlink:href="85685CF.png"  transform="matrix(1 0 0 1 25.4599 -13.5401)">
		</image>
		<g class="st1">
			<g>
				<path class="st2" d="M35.4,57.7c0.4,0,0.7,0,1.1-0.2c0.3-0.1,0.6-0.3,0.8-0.5c0.2-0.2,0.4-0.5,0.6-0.8c0.1-0.3,0.2-0.7,0.2-1
					c0-0.3-0.1-0.7-0.2-1c-0.1-0.3-0.3-0.6-0.6-0.8c-0.2-0.2-0.5-0.4-0.8-0.5c-0.3-0.1-0.6-0.2-1-0.2h-7.3v-0.7h7.3
					c0.5,0,0.9,0.1,1.3,0.3c0.4,0.2,0.7,0.4,1,0.7c0.3,0.3,0.5,0.6,0.7,1c0.2,0.4,0.3,0.8,0.3,1.3c0,0.5-0.1,0.9-0.3,1.3
					c-0.2,0.4-0.4,0.8-0.7,1.1c-0.3,0.3-0.7,0.5-1.1,0.7c-0.4,0.2-0.9,0.2-1.4,0.2V57.7z"/>
				<path class="st2" d="M38.7,49.3c-3.3-1.3-6.6-2.6-9.8-3.8c0,1.9,0,3.8,0,5.8c-0.3,0-0.5,0-0.7,0c0-2.2,0-4.5,0-6.7
					c0.3,0.1,0.6,0.2,0.9,0.3c3.2,1.2,6.4,2.4,9.6,3.7c0.1,0,0.1,0.1,0.1,0.2C38.7,48.9,38.7,49.1,38.7,49.3z"/>
				<path class="st2" d="M38.8,34.6v6.5H28.1v-6.5h0.7v5.8h5.4v-5H35v5H38v-5.8H38.8z"/>
				<path class="st2" d="M28.1,26h10.6v0.6l-9.2,6.6h9.2v0.7H28.1v-0.6l9.2-6.5h-9.2V26z"/>
				<path class="st2" d="M38.8,18.7v6.5H28.1v-6.5h0.7v5.8h5.4v-5H35v5H38v-5.8H38.8z"/>
				<path class="st2" d="M38.8,17.5H28.1v-3.1c0-0.5,0.1-1.1,0.3-1.6c0.2-0.5,0.5-0.9,0.9-1.3c0.4-0.4,0.8-0.6,1.3-0.8
					c0.5-0.2,1-0.3,1.6-0.3c0.4,0,0.8,0.1,1.2,0.2c0.4,0.1,0.7,0.3,1,0.5c0.3,0.2,0.6,0.5,0.8,0.8c0.2,0.3,0.4,0.6,0.6,1l2.9-2.3
					v0.8L36,13.5c0.1,0.3,0.1,0.6,0.1,0.9v2.4h2.6V17.5z M35.4,16.8v-2.4c0-0.4-0.1-0.9-0.3-1.3s-0.4-0.7-0.7-1
					c-0.3-0.3-0.6-0.5-1-0.7c-0.4-0.2-0.8-0.3-1.3-0.3c-0.5,0-0.9,0.1-1.3,0.3c-0.4,0.2-0.7,0.4-1,0.7c-0.3,0.3-0.5,0.6-0.7,1
					c-0.2,0.4-0.3,0.8-0.3,1.3v2.4H35.4z"/>
				<path class="st2" d="M30.9,0.3c-0.6,0.5-1.1,1-1.5,1.7c-0.4,0.7-0.6,1.4-0.6,2.2c0,0.6,0.1,1.2,0.4,1.8c0.2,0.6,0.6,1,1,1.5
					c0.4,0.4,0.9,0.7,1.5,1c0.6,0.2,1.2,0.4,1.8,0.4c0.6,0,1.2-0.1,1.8-0.4c0.6-0.2,1-0.6,1.5-1c0.4-0.4,0.7-0.9,1-1.5
					C37.9,5.4,38,4.8,38,4.2c0-0.4,0-0.8-0.2-1.2c-0.1-0.4-0.2-0.7-0.4-1.1c-0.2-0.3-0.4-0.6-0.6-0.9s-0.5-0.5-0.7-0.7h-1.6V5h-0.7
					v-5.2h2.5c0.7,0.5,1.3,1.2,1.7,1.9c0.4,0.8,0.6,1.6,0.6,2.5c0,0.7-0.1,1.4-0.4,2.1c-0.3,0.6-0.7,1.2-1.1,1.7s-1,0.9-1.7,1.1
					c-0.6,0.3-1.3,0.4-2.1,0.4c-0.7,0-1.4-0.1-2.1-0.4c-0.7-0.3-1.2-0.7-1.7-1.1c-0.5-0.5-0.9-1-1.1-1.7c-0.3-0.6-0.4-1.3-0.4-2.1
					c0-0.9,0.2-1.7,0.6-2.5c0.4-0.8,1-1.4,1.7-1.9L30.9,0.3z"/>
				<path class="st2" d="M38.8-1.6H28.1v-0.7h10.6V-1.6z"/>
				<path class="st2" d="M38.8-3.2L28.1-6.9v-0.7l10.6-3.9v0.8l-2.6,1v4.9l2.6,0.9V-3.2z M35.5-5.1v-4.5l-6.4,2.3L35.5-5.1z"/>
			</g>
		</g>
	</g>
	<defs>
		<filter id="Adobe_OpacityMaskFilter" filterUnits="userSpaceOnUse" x="9.5" y="12.5" width="21.9" height="21.9">
			<feColorMatrix  type="matrix" values="1 0 0 0 0  0 1 0 0 0  0 0 1 0 0  0 0 0 1 0"/>
		</filter>
	</defs>
	<mask maskUnits="userSpaceOnUse" x="9.5" y="12.5" width="21.9" height="21.9" id="SVGID_1_">
		<g class="st3">
			
				<linearGradient id="SVGID_2_" gradientUnits="userSpaceOnUse" x1="62.1121" y1="20.2565" x2="62.1121" y2="46.7868" gradientTransform="matrix(6.123234e-17 -1 1 6.123234e-17 -18.6789 86.8401)">
				<stop  offset="0.8492" style="stop-color:#FFFFFF"/>
				<stop  offset="0.8726" style="stop-color:#000000"/>
			</linearGradient>
			<circle class="st4" cx="19.8" cy="24.7" r="13.3"/>
		</g>
	</mask>
	
		<linearGradient id="SVGID_3_" gradientUnits="userSpaceOnUse" x1="63.3821" y1="24.1531" x2="63.3821" y2="46.0265" gradientTransform="matrix(6.123234e-17 -1 1 6.123234e-17 -18.6789 86.8401)">
		<stop  offset="0" style="stop-color:#FFF33B"/>
		<stop  offset="4.010540e-02" style="stop-color:#FEE72E"/>
		<stop  offset="0.1171" style="stop-color:#FED51B"/>
		<stop  offset="0.1964" style="stop-color:#FDCA10"/>
		<stop  offset="0.2809" style="stop-color:#FDC70C"/>
		<stop  offset="0.6685" style="stop-color:#F3903F"/>
		<stop  offset="0.8876" style="stop-color:#ED683C"/>
		<stop  offset="1" style="stop-color:#E93E3A"/>
	</linearGradient>
	<circle class="st5" cx="20.5" cy="23.5" r="10.9"/>
	
		<linearGradient id="SVGID_4_" gradientUnits="userSpaceOnUse" x1="83.8443" y1="39.1411" x2="77.3529" y2="39.1411" gradientTransform="matrix(6.123234e-17 -1 1 6.123234e-17 -18.6789 86.8401)">
		<stop  offset="0" style="stop-color:#FFF33B"/>
		<stop  offset="4.010540e-02" style="stop-color:#FEE72E"/>
		<stop  offset="0.1171" style="stop-color:#FED51B"/>
		<stop  offset="0.1964" style="stop-color:#FDCA10"/>
		<stop  offset="0.2809" style="stop-color:#FDC70C"/>
		<stop  offset="0.6685" style="stop-color:#F3903F"/>
		<stop  offset="0.8876" style="stop-color:#ED683C"/>
		<stop  offset="1" style="stop-color:#E93E3A"/>
	</linearGradient>
	<path class="st6" d="M18.9,7.9V4.5c0-0.9,0.7-1.6,1.6-1.6h0C21.3,3,22,3.7,22,4.5v3.4c0,0.9-0.7,1.6-1.6,1.6h0
		C19.6,9.5,18.9,8.8,18.9,7.9z"/>
	
		<linearGradient id="SVGID_5_" gradientUnits="userSpaceOnUse" x1="77.8134" y1="24.7098" x2="73.2233" y2="29.3" gradientTransform="matrix(6.123234e-17 -1 1 6.123234e-17 -18.6789 86.8401)">
		<stop  offset="0" style="stop-color:#FFF33B"/>
		<stop  offset="4.010540e-02" style="stop-color:#FEE72E"/>
		<stop  offset="0.1171" style="stop-color:#FED51B"/>
		<stop  offset="0.1964" style="stop-color:#FDCA10"/>
		<stop  offset="0.2809" style="stop-color:#FDC70C"/>
		<stop  offset="0.6685" style="stop-color:#F3903F"/>
		<stop  offset="0.8876" style="stop-color:#ED683C"/>
		<stop  offset="1" style="stop-color:#E93E3A"/>
	</linearGradient>
	<path class="st7" d="M8.4,13.6L6,11.2C5.4,10.6,5.4,9.6,6,9l0,0c0.6-0.6,1.6-0.6,2.2,0l2.4,2.4c0.6,0.6,0.6,1.6,0,2.2l0,0
		C10,14.2,9,14.2,8.4,13.6z"/>
	
		<linearGradient id="SVGID_6_" gradientUnits="userSpaceOnUse" x1="63.3821" y1="18.6789" x2="63.3821" y2="25.1704" gradientTransform="matrix(6.123234e-17 -1 1 6.123234e-17 -18.6789 86.8401)">
		<stop  offset="0" style="stop-color:#FFF33B"/>
		<stop  offset="4.010540e-02" style="stop-color:#FEE72E"/>
		<stop  offset="0.1171" style="stop-color:#FED51B"/>
		<stop  offset="0.1964" style="stop-color:#FDCA10"/>
		<stop  offset="0.2809" style="stop-color:#FDC70C"/>
		<stop  offset="0.6685" style="stop-color:#F3903F"/>
		<stop  offset="0.8876" style="stop-color:#ED683C"/>
		<stop  offset="1" style="stop-color:#E93E3A"/>
	</linearGradient>
	<path class="st8" d="M4.9,25H1.6C0.7,25,0,24.3,0,23.5v0c0-0.9,0.7-1.6,1.6-1.6h3.4c0.9,0,1.6,0.7,1.6,1.6v0
		C6.5,24.3,5.8,25,4.9,25z"/>
	
		<linearGradient id="SVGID_7_" gradientUnits="userSpaceOnUse" x1="48.9508" y1="24.7098" x2="53.541" y2="29.3" gradientTransform="matrix(6.123234e-17 -1 1 6.123234e-17 -18.6789 86.8401)">
		<stop  offset="0" style="stop-color:#FFF33B"/>
		<stop  offset="4.010540e-02" style="stop-color:#FEE72E"/>
		<stop  offset="0.1171" style="stop-color:#FED51B"/>
		<stop  offset="0.1964" style="stop-color:#FDCA10"/>
		<stop  offset="0.2809" style="stop-color:#FDC70C"/>
		<stop  offset="0.6685" style="stop-color:#F3903F"/>
		<stop  offset="0.8876" style="stop-color:#ED683C"/>
		<stop  offset="1" style="stop-color:#E93E3A"/>
	</linearGradient>
	<path class="st9" d="M10.6,35.5l-2.4,2.4c-0.6,0.6-1.6,0.6-2.2,0l0,0c-0.6-0.6-0.6-1.6,0-2.2l2.4-2.4c0.6-0.6,1.6-0.6,2.2,0l0,0
		C11.2,33.9,11.2,34.9,10.6,35.5z"/>
	
		<linearGradient id="SVGID_8_" gradientUnits="userSpaceOnUse" x1="42.9199" y1="39.1411" x2="49.4114" y2="39.1411" gradientTransform="matrix(6.123234e-17 -1 1 6.123234e-17 -18.6789 86.8401)">
		<stop  offset="0" style="stop-color:#FFF33B"/>
		<stop  offset="4.010540e-02" style="stop-color:#FEE72E"/>
		<stop  offset="0.1171" style="stop-color:#FED51B"/>
		<stop  offset="0.1964" style="stop-color:#FDCA10"/>
		<stop  offset="0.2809" style="stop-color:#FDC70C"/>
		<stop  offset="0.6685" style="stop-color:#F3903F"/>
		<stop  offset="0.8876" style="stop-color:#ED683C"/>
		<stop  offset="1" style="stop-color:#E93E3A"/>
	</linearGradient>
	<path class="st10" d="M22,39v3.4c0,0.9-0.7,1.6-1.6,1.6h0c-0.9,0-1.6-0.7-1.6-1.6V39c0-0.9,0.7-1.6,1.6-1.6h0
		C21.3,37.4,22,38.1,22,39z"/>
</g>
<g>
	
		<image style="overflow:visible;opacity:0.5;" width="183" height="40" xlink:href="85685CA.png"  transform="matrix(1 0 0 1 23.8385 4.8385)">
	</image>
	<g>
		<g>
			<path class="st11" d="M30.5,28.1c0,0.9,0.1,1.8,0.4,2.6c0.3,0.8,0.8,1.5,1.3,2.1c0.6,0.6,1.2,1,2,1.4c0.8,0.3,1.6,0.5,2.5,0.5
				c0.8,0,1.6-0.2,2.4-0.5c0.8-0.3,1.4-0.8,2-1.3c0.6-0.6,1-1.2,1.3-2c0.3-0.8,0.5-1.6,0.5-2.4V10.6h1.8v17.8c0,1.1-0.2,2.2-0.6,3.1
				c-0.4,1-1,1.8-1.7,2.5c-0.7,0.7-1.6,1.3-2.5,1.7c-1,0.4-2,0.6-3.1,0.6c-1.2,0-2.3-0.2-3.3-0.6c-1-0.4-1.9-1-2.6-1.7
				c-0.7-0.7-1.3-1.6-1.7-2.6c-0.4-1-0.6-2.1-0.5-3.3H30.5z"/>
			<path class="st11" d="M50.8,36.3c3.1-8,6.2-15.9,9.3-23.9c-4.7,0-9.3,0-14,0c0-0.6,0-1.2,0-1.8c5.4,0,10.8,0,16.2,0
				c-0.3,0.7-0.6,1.5-0.8,2.2c-3,7.7-5.9,15.5-8.9,23.2c-0.1,0.2-0.2,0.3-0.4,0.3C51.8,36.3,51.3,36.3,50.8,36.3z"/>
			<path class="st11" d="M86.6,36.4H70.8V10.6h15.8v1.8h-14v13h12.1v1.8H72.6v7.4h14V36.4z"/>
			<path class="st11" d="M107.5,10.6v25.8h-1.4L90.1,14v22.4h-1.6V10.6h1.5L105.8,33V10.6H107.5z"/>
			<path class="st11" d="M125.2,36.4h-15.8V10.6h15.8v1.8h-14v13h12.1v1.8h-12.1v7.4h14V36.4z"/>
			<path class="st11" d="M127.9,36.4V10.6h7.6c1.3,0,2.6,0.2,3.8,0.7c1.2,0.5,2.2,1.2,3.1,2.1c0.9,0.9,1.6,1.9,2.1,3.1
				c0.5,1.2,0.8,2.4,0.8,3.8c0,1-0.1,2-0.4,2.9c-0.3,0.9-0.7,1.8-1.2,2.5c-0.5,0.8-1.1,1.5-1.8,2.1c-0.7,0.6-1.5,1.1-2.4,1.4
				l5.5,7.2h-2l-5.2-6.7c-0.7,0.2-1.4,0.2-2.1,0.2h-5.8v6.4H127.9z M129.7,28.2h5.8c1.1,0,2.1-0.2,3.1-0.6c1-0.4,1.8-1,2.5-1.7
				c0.7-0.7,1.3-1.6,1.7-2.5c0.4-1,0.6-2,0.6-3c0-1.1-0.2-2.1-0.6-3.1c-0.4-1-1-1.8-1.7-2.5c-0.7-0.7-1.6-1.3-2.5-1.7
				c-1-0.4-2-0.6-3.1-0.6h-5.8V28.2z"/>
			<path class="st11" d="M169.7,17.4c-1.1-1.5-2.5-2.7-4.1-3.6c-1.6-0.9-3.4-1.4-5.3-1.4c-1.5,0-3,0.3-4.3,0.9
				c-1.3,0.6-2.5,1.4-3.5,2.4c-1,1-1.8,2.2-2.4,3.5c-0.6,1.4-0.9,2.8-0.9,4.4c0,1.5,0.3,3,0.9,4.3c0.6,1.3,1.4,2.5,2.4,3.5
				c1,1,2.2,1.8,3.5,2.4c1.3,0.6,2.8,0.9,4.3,0.9c1,0,2-0.1,2.9-0.4c0.9-0.2,1.8-0.6,2.6-1c0.8-0.4,1.5-0.9,2.1-1.4s1.1-1.1,1.6-1.7
				v-3.8h-11.1v-1.6h12.7v6c-1.3,1.7-2.8,3.1-4.7,4.1c-1.9,1-3.9,1.5-6.2,1.5c-1.8,0-3.5-0.3-5-1c-1.6-0.7-2.9-1.6-4.1-2.7
				c-1.2-1.2-2.1-2.5-2.8-4.1c-0.7-1.6-1-3.2-1-5s0.3-3.5,1-5.1c0.7-1.6,1.6-2.9,2.8-4.1c1.2-1.2,2.5-2.1,4.1-2.8c1.6-0.7,3.2-1,5-1
				c2.2,0,4.2,0.5,6,1.4c1.9,1,3.4,2.3,4.7,4.1L169.7,17.4z"/>
			<path class="st11" d="M174.2,36.4V10.6h1.8v25.8H174.2z"/>
			<path class="st11" d="M178.1,36.4l9.1-25.8h1.8l9.4,25.8h-1.9l-2.3-6.3h-12l-2.2,6.3H178.1z M182.7,28.5h11L188.1,13L182.7,28.5z
				"/>
		</g>
	</g>
</g>
</svg>
