<?xml version="1.0" encoding="utf-8"?>
<!-- Generator: Adobe Illustrator 25.2.1, SVG Export Plug-In . SVG Version: 6.00 Build 0)  -->
<svg version="1.1" id="Layer_1" xmlns="http://www.w3.org/2000/svg" xmlns:xlink="http://www.w3.org/1999/xlink" x="0px" y="0px"
	 viewBox="0 0 500 101" style="enable-background:new 0 0 500 101;" xml:space="preserve">
<style type="text/css">
	.st0{display:none;}
	.st1{display:inline;}
	.st2{fill:#134779;}
	.st3{filter:url(#Adobe_OpacityMaskFilter);}
	.st4{fill:url(#SVGID_2_);}
	.st5{mask:url(#SVGID_1_);fill:url(#SVGID_3_);}
	.st6{fill:url(#SVGID_4_);}
	.st7{fill:url(#SVGID_5_);}
	.st8{fill:url(#SVGID_6_);}
	.st9{fill:url(#SVGID_7_);}
	.st10{fill:url(#SVGID_8_);}
</style>
<g>
	<g class="st0">
		
			<image style="display:inline;overflow:visible;opacity:0.5;" width="34" height="154" xlink:href="79292E10.png"  transform="matrix(1 0 0 1 55.8389 -25.1611)">
		</image>
		<g class="st1">
			<g>
				<path class="st2" d="M75.1,120.1c0.8,0,1.5-0.1,2.2-0.4c0.7-0.3,1.2-0.6,1.7-1.1c0.5-0.5,0.9-1,1.1-1.7s0.4-1.3,0.4-2.1
					c0-0.7-0.1-1.4-0.4-2c-0.3-0.6-0.7-1.2-1.1-1.6c-0.5-0.5-1-0.8-1.7-1.1c-0.6-0.3-1.3-0.4-2-0.4H60.5v-1.5h14.9
					c0.9,0,1.8,0.2,2.6,0.5c0.8,0.3,1.5,0.8,2.1,1.4c0.6,0.6,1.1,1.3,1.4,2.1c0.3,0.8,0.5,1.7,0.5,2.6c0,1-0.2,1.9-0.5,2.7
					c-0.3,0.8-0.8,1.6-1.5,2.2c-0.6,0.6-1.4,1.1-2.2,1.4c-0.8,0.3-1.8,0.5-2.8,0.4V120.1z"/>
				<path class="st2" d="M82,103c-6.7-2.6-13.3-5.2-20-7.8c0,3.9,0,7.8,0,11.7c-0.5,0-1,0-1.5,0c0-4.5,0-9.1,0-13.6
					c0.6,0.2,1.2,0.5,1.8,0.7c6.5,2.5,12.9,4.9,19.4,7.4c0.2,0.1,0.3,0.2,0.3,0.4C82,102.2,82,102.6,82,103z"/>
				<path class="st2" d="M82.1,73v13.2H60.5V73h1.5v11.7h10.9V74.7h1.5v10.1h6.2V73H82.1z"/>
				<path class="st2" d="M60.5,55.6h21.6v1.2L63.3,70.1h18.8v1.4H60.5v-1.3l18.8-13.2H60.5V55.6z"/>
				<path class="st2" d="M82.1,40.8V54H60.5V40.8h1.5v11.7h10.9V42.4h1.5v10.1h6.2V40.8H82.1z"/>
				<path class="st2" d="M82.1,38.4H60.5v-6.4c0-1.1,0.2-2.2,0.6-3.2c0.4-1,1-1.8,1.7-2.6c0.7-0.7,1.6-1.3,2.6-1.7
					c1-0.4,2.1-0.6,3.2-0.6c0.8,0,1.6,0.1,2.4,0.4c0.8,0.2,1.5,0.6,2.1,1c0.6,0.4,1.2,0.9,1.7,1.5c0.5,0.6,0.9,1.3,1.2,2l6-4.6V26
					l-5.6,4.3c0.1,0.6,0.2,1.2,0.2,1.8V37h5.4V38.4z M75.2,37v-4.9c0-0.9-0.2-1.8-0.5-2.6c-0.3-0.8-0.8-1.5-1.4-2.1
					c-0.6-0.6-1.3-1.1-2.1-1.4c-0.8-0.3-1.6-0.5-2.6-0.5c-0.9,0-1.8,0.2-2.6,0.5c-0.8,0.3-1.5,0.8-2.1,1.4c-0.6,0.6-1.1,1.3-1.4,2.1
					c-0.3,0.8-0.5,1.7-0.5,2.6V37H75.2z"/>
				<path class="st2" d="M66.1,3.5c-1.3,0.9-2.3,2.1-3,3.4c-0.8,1.3-1.1,2.8-1.1,4.5c0,1.3,0.2,2.5,0.7,3.6c0.5,1.1,1.1,2.1,2,3
					c0.8,0.8,1.8,1.5,3,2c1.1,0.5,2.4,0.7,3.6,0.7c1.3,0,2.5-0.2,3.6-0.7c1.1-0.5,2.1-1.2,3-2c0.8-0.8,1.5-1.8,2-3
					c0.5-1.1,0.7-2.3,0.7-3.6c0-0.9-0.1-1.7-0.3-2.5c-0.2-0.8-0.5-1.5-0.8-2.2c-0.3-0.7-0.7-1.2-1.2-1.8s-0.9-1-1.5-1.3h-3.2v9.3
					h-1.3V2.3h5.1c1.4,1.1,2.6,2.4,3.4,3.9c0.9,1.6,1.3,3.3,1.3,5.2c0,1.5-0.3,2.9-0.8,4.2c-0.6,1.3-1.3,2.4-2.3,3.4
					c-1,1-2.1,1.7-3.4,2.3c-1.3,0.6-2.7,0.9-4.2,0.9c-1.5,0-2.9-0.3-4.2-0.9c-1.3-0.6-2.5-1.3-3.4-2.3c-1-1-1.7-2.1-2.3-3.4
					c-0.6-1.3-0.8-2.7-0.8-4.2c0-1.8,0.4-3.5,1.2-5.1c0.8-1.6,1.9-2.9,3.4-3.9L66.1,3.5z"/>
				<path class="st2" d="M82.1-0.4H60.5v-1.5h21.6V-0.4z"/>
				<path class="st2" d="M82.1-3.6l-21.6-7.6v-1.5l21.6-7.9v1.6l-5.3,1.9V-7l5.3,1.8V-3.6z M75.5-7.5v-9.2l-13,4.7L75.5-7.5z"/>
			</g>
		</g>
	</g>
	<defs>
		<filter id="Adobe_OpacityMaskFilter" filterUnits="userSpaceOnUse" x="22.6" y="28.3" width="44.4" height="44.4">
			<feColorMatrix  type="matrix" values="1 0 0 0 0  0 1 0 0 0  0 0 1 0 0  0 0 0 1 0"/>
		</filter>
	</defs>
	<mask maskUnits="userSpaceOnUse" x="22.6" y="28.3" width="44.4" height="44.4" id="SVGID_1_">
		<g class="st3">
			
				<linearGradient id="SVGID_2_" gradientUnits="userSpaceOnUse" x1="124.7833" y1="-11.8302" x2="124.7833" y2="42.0752" gradientTransform="matrix(6.123234e-17 -1 1 6.123234e-17 18.3211 177.8401)">
				<stop  offset="0.8492" style="stop-color:#FFFFFF"/>
				<stop  offset="0.8726" style="stop-color:#000000"/>
			</linearGradient>
			<circle class="st4" cx="43.4" cy="53.1" r="27"/>
		</g>
	</mask>
	
		<linearGradient id="SVGID_3_" gradientUnits="userSpaceOnUse" x1="127.3639" y1="-3.9129" x2="127.3639" y2="40.5303" gradientTransform="matrix(6.123234e-17 -1 1 6.123234e-17 18.3211 177.8401)">
		<stop  offset="0" style="stop-color:#FFF33B"/>
		<stop  offset="4.010540e-02" style="stop-color:#FEE72E"/>
		<stop  offset="0.1171" style="stop-color:#FED51B"/>
		<stop  offset="0.1964" style="stop-color:#FDCA10"/>
		<stop  offset="0.2809" style="stop-color:#FDC70C"/>
		<stop  offset="0.6685" style="stop-color:#F3903F"/>
		<stop  offset="0.8876" style="stop-color:#ED683C"/>
		<stop  offset="1" style="stop-color:#E93E3A"/>
	</linearGradient>
	<circle class="st5" cx="44.9" cy="50.5" r="22.2"/>
	
		<linearGradient id="SVGID_4_" gradientUnits="userSpaceOnUse" x1="168.9398" y1="26.5404" x2="155.7502" y2="26.5404" gradientTransform="matrix(6.123234e-17 -1 1 6.123234e-17 18.3211 177.8401)">
		<stop  offset="0" style="stop-color:#FFF33B"/>
		<stop  offset="4.010540e-02" style="stop-color:#FEE72E"/>
		<stop  offset="0.1171" style="stop-color:#FED51B"/>
		<stop  offset="0.1964" style="stop-color:#FDCA10"/>
		<stop  offset="0.2809" style="stop-color:#FDC70C"/>
		<stop  offset="0.6685" style="stop-color:#F3903F"/>
		<stop  offset="0.8876" style="stop-color:#ED683C"/>
		<stop  offset="1" style="stop-color:#E93E3A"/>
	</linearGradient>
	<path class="st6" d="M41.7,18.9v-6.9c0-1.7,1.4-3.2,3.2-3.2h0c1.7,0,3.2,1.4,3.2,3.2v6.9c0,1.7-1.4,3.2-3.2,3.2h0
		C43.1,22.1,41.7,20.7,41.7,18.9z"/>
	
		<linearGradient id="SVGID_5_" gradientUnits="userSpaceOnUse" x1="156.6859" y1="-2.7816" x2="147.3595" y2="6.5448" gradientTransform="matrix(6.123234e-17 -1 1 6.123234e-17 18.3211 177.8401)">
		<stop  offset="0" style="stop-color:#FFF33B"/>
		<stop  offset="4.010540e-02" style="stop-color:#FEE72E"/>
		<stop  offset="0.1171" style="stop-color:#FED51B"/>
		<stop  offset="0.1964" style="stop-color:#FDCA10"/>
		<stop  offset="0.2809" style="stop-color:#FDC70C"/>
		<stop  offset="0.6685" style="stop-color:#F3903F"/>
		<stop  offset="0.8876" style="stop-color:#ED683C"/>
		<stop  offset="1" style="stop-color:#E93E3A"/>
	</linearGradient>
	<path class="st7" d="M20.4,30.5l-4.9-4.9c-1.2-1.2-1.2-3.2,0-4.5l0,0c1.2-1.2,3.2-1.2,4.5,0l4.9,4.9c1.2,1.2,1.2,3.2,0,4.5l0,0
		C23.6,31.7,21.6,31.7,20.4,30.5z"/>
	
		<linearGradient id="SVGID_6_" gradientUnits="userSpaceOnUse" x1="127.3639" y1="-15.0355" x2="127.3639" y2="-1.8459" gradientTransform="matrix(6.123234e-17 -1 1 6.123234e-17 18.3211 177.8401)">
		<stop  offset="0" style="stop-color:#FFF33B"/>
		<stop  offset="4.010540e-02" style="stop-color:#FEE72E"/>
		<stop  offset="0.1171" style="stop-color:#FED51B"/>
		<stop  offset="0.1964" style="stop-color:#FDCA10"/>
		<stop  offset="0.2809" style="stop-color:#FDC70C"/>
		<stop  offset="0.6685" style="stop-color:#F3903F"/>
		<stop  offset="0.8876" style="stop-color:#ED683C"/>
		<stop  offset="1" style="stop-color:#E93E3A"/>
	</linearGradient>
	<path class="st8" d="M13.3,53.6H6.4c-1.7,0-3.2-1.4-3.2-3.2v0c0-1.7,1.4-3.2,3.2-3.2h6.9c1.7,0,3.2,1.4,3.2,3.2v0
		C16.5,52.2,15.1,53.6,13.3,53.6z"/>
	
		<linearGradient id="SVGID_7_" gradientUnits="userSpaceOnUse" x1="98.0418" y1="-2.7816" x2="107.3683" y2="6.5448" gradientTransform="matrix(6.123234e-17 -1 1 6.123234e-17 18.3211 177.8401)">
		<stop  offset="0" style="stop-color:#FFF33B"/>
		<stop  offset="4.010540e-02" style="stop-color:#FEE72E"/>
		<stop  offset="0.1171" style="stop-color:#FED51B"/>
		<stop  offset="0.1964" style="stop-color:#FDCA10"/>
		<stop  offset="0.2809" style="stop-color:#FDC70C"/>
		<stop  offset="0.6685" style="stop-color:#F3903F"/>
		<stop  offset="0.8876" style="stop-color:#ED683C"/>
		<stop  offset="1" style="stop-color:#E93E3A"/>
	</linearGradient>
	<path class="st9" d="M24.9,74.9L20,79.8c-1.2,1.2-3.2,1.2-4.5,0l0,0c-1.2-1.2-1.2-3.2,0-4.5l4.9-4.9c1.2-1.2,3.2-1.2,4.5,0h0
		C26.1,71.7,26.1,73.7,24.9,74.9z"/>
	
		<linearGradient id="SVGID_8_" gradientUnits="userSpaceOnUse" x1="85.7879" y1="26.5404" x2="98.9775" y2="26.5404" gradientTransform="matrix(6.123234e-17 -1 1 6.123234e-17 18.3211 177.8401)">
		<stop  offset="0" style="stop-color:#FFF33B"/>
		<stop  offset="4.010540e-02" style="stop-color:#FEE72E"/>
		<stop  offset="0.1171" style="stop-color:#FED51B"/>
		<stop  offset="0.1964" style="stop-color:#FDCA10"/>
		<stop  offset="0.2809" style="stop-color:#FDC70C"/>
		<stop  offset="0.6685" style="stop-color:#F3903F"/>
		<stop  offset="0.8876" style="stop-color:#ED683C"/>
		<stop  offset="1" style="stop-color:#E93E3A"/>
	</linearGradient>
	<path class="st10" d="M48,82v6.9c0,1.7-1.4,3.2-3.2,3.2h0c-1.7,0-3.2-1.4-3.2-3.2V82c0-1.7,1.4-3.2,3.2-3.2h0
		C46.6,78.9,48,80.3,48,82z"/>
</g>
<g>
	
		<image style="overflow:visible;opacity:0.5;" width="445" height="94" xlink:href="79292E11.png"  transform="matrix(1 0 0 1 58.975 6.975)">
	</image>
	<g>
		<g>
			<path class="st2" d="M75.4,61.7c-0.1,2.3,0.3,4.3,1.1,6.3c0.8,1.9,1.9,3.6,3.2,5c1.4,1.4,3,2.5,4.9,3.3c1.9,0.8,3.9,1.2,6,1.2
				c2.1,0,4-0.4,5.9-1.2c1.8-0.8,3.4-1.9,4.8-3.3c1.3-1.4,2.4-3,3.2-4.8c0.8-1.8,1.2-3.8,1.2-5.9V19h4.3v43.3c0,2.8-0.5,5.3-1.5,7.6
				c-1,2.3-2.4,4.4-4.1,6.2c-1.8,1.8-3.8,3.2-6.2,4.2c-2.4,1-4.9,1.5-7.6,1.5c-2.9,0-5.5-0.5-8-1.5c-2.4-1-4.5-2.4-6.3-4.2
				c-1.8-1.8-3.1-3.9-4-6.4c-0.9-2.4-1.3-5.1-1.2-8.1H75.4z"/>
			<path class="st2" d="M125,81.7c7.6-19.4,15.1-38.8,22.7-58.2c-11.4,0-22.7,0-34.1,0c0-1.5,0-2.9,0-4.3c13.2,0,26.4,0,39.6,0
				c-0.7,1.8-1.4,3.6-2,5.3c-7.2,18.8-14.4,37.7-21.6,56.5c-0.2,0.6-0.5,0.8-1.1,0.7C127.5,81.7,126.3,81.7,125,81.7z"/>
			<path class="st2" d="M212.3,81.9h-38.5V19h38.5v4.3h-34.1v31.8h29.5v4.3h-29.5v18.1h34.1V81.9z"/>
			<path class="st2" d="M263.1,19v62.9h-3.4l-38.8-54.7v54.7H217V19h3.8l38.5,54.7V19H263.1z"/>
			<path class="st2" d="M306.3,81.9h-38.5V19h38.5v4.3h-34.1v31.8h29.5v4.3h-29.5v18.1h34.1V81.9z"/>
			<path class="st2" d="M313,81.9V19h18.6c3.3,0,6.3,0.6,9.2,1.8c2.9,1.2,5.4,2.9,7.5,5.1c2.1,2.2,3.8,4.7,5,7.6
				c1.2,2.9,1.8,6,1.8,9.3c0,2.4-0.3,4.8-1,7c-0.7,2.2-1.7,4.3-2.9,6.1c-1.3,1.9-2.8,3.6-4.5,5c-1.8,1.5-3.7,2.6-5.8,3.5l13.4,17.4
				h-5l-12.6-16.2c-1.7,0.4-3.4,0.6-5.2,0.6h-14.3v15.7H313z M317.4,61.9h14.3c2.6,0,5.1-0.5,7.5-1.5s4.4-2.4,6.1-4.1
				c1.7-1.8,3.1-3.8,4.1-6.1c1-2.3,1.5-4.8,1.5-7.4c0-2.7-0.5-5.2-1.5-7.6c-1-2.4-2.4-4.4-4.1-6.2c-1.8-1.8-3.8-3.1-6.1-4.1
				c-2.3-1-4.8-1.5-7.5-1.5h-14.3V61.9z"/>
			<path class="st2" d="M414.8,35.6c-2.8-3.7-6.1-6.6-9.9-8.9c-3.9-2.2-8.2-3.3-13-3.3c-3.8,0-7.3,0.7-10.6,2.1
				c-3.3,1.4-6.2,3.3-8.6,5.8c-2.5,2.4-4.4,5.3-5.9,8.6c-1.4,3.3-2.2,6.9-2.2,10.6c0,3.8,0.7,7.3,2.2,10.6c1.4,3.3,3.4,6.2,5.9,8.6
				c2.5,2.4,5.3,4.4,8.6,5.8s6.8,2.1,10.6,2.1c2.5,0,4.9-0.3,7.2-0.9c2.3-0.6,4.4-1.4,6.3-2.4c1.9-1,3.6-2.2,5.1-3.5
				c1.5-1.3,2.8-2.7,3.8-4.2v-9.4h-27v-3.8h31v14.7c-3.1,4.2-6.9,7.5-11.4,10c-4.5,2.5-9.5,3.8-15,3.8c-4.4,0-8.5-0.8-12.3-2.4
				c-3.8-1.6-7.1-3.8-10-6.7c-2.8-2.8-5.1-6.1-6.7-9.9c-1.7-3.8-2.5-7.9-2.5-12.3s0.8-8.5,2.5-12.3c1.7-3.8,3.9-7.2,6.7-10
				c2.8-2.8,6.2-5.1,10-6.7c3.8-1.6,7.9-2.4,12.3-2.4c5.2,0,10.1,1.2,14.7,3.5c4.6,2.3,8.4,5.7,11.4,10L414.8,35.6z"/>
			<path class="st2" d="M426,81.9V19h4.3v62.9H426z"/>
			<path class="st2" d="M435.5,81.9L457.6,19h4.4l22.9,62.9h-4.6l-5.6-15.5h-29.3l-5.3,15.5H435.5z M446.6,62.8h26.8l-13.6-37.9
				L446.6,62.8z"/>
		</g>
	</g>
</g>
</svg>
